<svg width="64" height="64" viewBox="0 0 512 512" xmlns="http://www.w3.org/2000/svg"><path fill="#000" d="M350.2 64.1c-6.5 0-13.5 2.6-21.1 7.9-7.6 5.3-15 12.5-22.4 21.5-7.2 8.8-12.4 17.8-15.6 27-3.5 10.4-5.3 20.5-5.3 30.2 0 11.4 2.4 21.8 7.1 31 5.1 9.8 11.7 17.7 19.9 23.6-7.9 10.5-16.4 19.7-25.4 27.8-9.4 8.3-18 12.4-25.8 12.4-4.7 0-11.3-1.7-19.7-5.2-8.6-3.6-15.6-5.5-20.9-5.5-4.7 0-11.1 1.8-19.2 5.3-8.2 3.7-14.8 5.5-19.7 5.5-8.3 0-17-4.2-26.2-12.5-9.3-8.4-18-18.7-26.2-31-8.5-12.8-15.3-27-20.4-42.6-5.1-15.8-7.6-30.9-7.6-45.3 0-16.6 3.5-32.1 10.5-46.4 7.2-15 16.7-27.1 28.3-36.3 12.8-10.3 25.6-15.4 38.4-15.4 6.9 0 15.5 2 25.7 6.1 10.1 4 17.4 6 22 6 3.7 0 10.3-2 19.6-6.1 10.7-4.6 20.7-6.8 30-6.8 13.1 0 25.1 4 36.1 12 11 8.2 19.2 18.3 24.5 30.3-9.7 5-18 11.4-24.8 19.2-6.8 7.7-10.1 16.4-10.1 26 0 10.7 3.4 19.6 10.3 26.6 5 5.2 10.5 9 16.4 11.3 1.5.6 1.3 2.6-.3 3.3-5.6 2.5-11 3.7-16.3 3.7-6.7 0-12.7-1.8-18-5.4-3-2-5.8-5-8.5-9-2.6-3.8-4.4-7.2-5.3-10.2-2-.2-3-.9-3-.1z"/></svg>
