<?xml version="1.0" encoding="UTF-8"?>
<svg id="Layer_2" data-name="Layer 2" xmlns="http://www.w3.org/2000/svg" viewBox="0 0 266.04 19.09">
  <defs>
    <style>
      .cls-1 {
        fill: #8eb2bc;
      }
    </style>
  </defs>
  <g id="Layer_1-2" data-name="Layer 1">
    <g>
      <g>
        <path class="cls-1" d="M11.58.61h1.44c.43,0,.79.18,1.09.54.3.36.53.76.7,1.21.17.45.3.87.38,1.27.08.4.12.64.12.72,0,.16.01.29.03.38.02.09.05.18.09.26.04.08.08.15.12.21,0,.06-.01.13-.03.21-.04.14-.11.27-.21.37,0,.14-.01.28-.03.41-.02.13-.09.2-.21.2-.1,0-.27-.12-.49-.35-.23-.23-.46-.49-.7-.78-.29-.35-.6-.74-.95-1.16-.22-.12-.53-.26-.9-.4-.38-.14-.74-.28-1.09-.4-.43-.14-.87-.28-1.32-.4-.65,0-1.3.12-1.95.37-.64.25-1.23.6-1.75,1.07-.52.47-.96,1.04-1.32,1.72-.36.67-.57,1.44-.63,2.3,0,.41-.04.74-.12.98-.08.25-.12.51-.12.8s.01.53.03.72c.02.19.09.43.21.72.14.43.35.89.61,1.38.27.49.58.95.93,1.36.36.42.76.77,1.21,1.04.45.28.93.41,1.44.41l1.1-.37c.29,0,.6-.11.93-.32s.51-.53.51-.93v-.61c-.04-.25-.09-.49-.15-.75-.06-.26-.15-.52-.28-.78-.16-.29-.36-.58-.6-.87-.24-.3-.43-.48-.6-.57-.29-.1-.43-.25-.43-.43,0-.08.05-.15.14-.2.09-.05.2-.09.32-.11.14-.02.31-.03.49-.03h3.4c.14,0,.26-.01.35-.03.09-.02.19-.05.29-.08.1-.03.23-.06.4-.09.16-.03.39-.05.67-.05.14.04.28.09.4.15.1.04.2.1.29.18.09.08.14.16.14.25,0,.12-.05.32-.15.6-.1.28-.21.41-.34.41h-.34c-.43,0-.78.16-1.06.49-.28.33-.41.62-.41.89v1.78c0,.27-.04.47-.12.61-.08.14-.12.37-.12.67.04.16.07.33.09.49.02.14.03.3.02.47-.01.17-.05.33-.11.47,0,.14-.05.26-.14.35s-.19.18-.29.26c-.12.08-.27.16-.43.25l-2.05.34h-.49c-.08,0-.21-.02-.38-.05-.17-.03-.36-.07-.55-.12-.19-.05-.4-.09-.61-.12-.21-.03-.41-.05-.6-.05h-.83c-.1,0-.25-.02-.43-.06-.18-.04-.36-.1-.52-.18-.31-.1-.61-.17-.92-.21-.31-.04-.54-.06-.7-.06-.06-.08-.16-.15-.29-.2-.13-.05-.28-.11-.43-.17-.15-.06-.3-.13-.43-.21-.13-.08-.23-.19-.29-.34-.16-.06-.37-.27-.63-.63-.26-.36-.51-.76-.75-1.21-.25-.45-.46-.9-.64-1.36-.18-.46-.28-.84-.28-1.15v-.52c0-.16-.06-.36-.17-.6-.11-.23-.17-.43-.17-.6v-2.02c.12-.33.23-.63.34-.92.08-.25.16-.49.23-.75.07-.26.11-.46.11-.63l.25-.52c0-.45.17-.93.52-1.44.35-.51.76-.99,1.24-1.44.48-.45.98-.82,1.5-1.12.52-.3.97-.44,1.33-.44.16-.02.32-.04.46-.06.12-.02.25-.04.37-.06.12-.02.22-.03.31-.03h.34c.31,0,.53-.02.66-.05.13-.03.26-.07.38-.12.12-.05.27-.09.44-.12.17-.03.44-.05.81-.05h2.3Z"/>
        <path class="cls-1" d="M29.11,7.26c-.04-.06-.08-.13-.12-.21-.08-.16-.12-.3-.12-.4v-1.44l-.28-1.72v-.58c0-.22-.07-.37-.21-.44-.14-.07-.3-.13-.46-.17-.22-.04-.42-.08-.6-.12-.17-.04-.26-.16-.26-.37,0-.18.04-.36.12-.54.08-.17.18-.34.29-.49.11-.15.24-.28.38-.37.14-.09.28-.14.4-.14.29.14.57.26.86.34.25.1.52.18.83.25s.6.09.89.09h1.19c.2,0,.44-.03.7-.08.27-.05.52-.07.75-.06.23.01.43.08.6.21.16.13.25.39.25.78.06.2.1.4.12.58.02.16.03.32.02.46-.01.14-.06.25-.14.31h-1.47c-.25,0-.44.13-.6.38-.15.26-.23.53-.23.81-.1.31-.16.55-.18.74-.02.18-.01.33.03.43.02.12.07.21.15.28l-.37,1.1c.1.16.17.33.2.51.03.17.07.33.11.47.02.18.04.35.06.49,0,.06-.02.15-.06.28-.04.12-.08.26-.12.4-.04.14-.08.29-.12.43-.04.14-.06.26-.06.34v.58c0,.08-.01.18-.03.31-.02.12-.05.26-.09.4-.04.16-.08.33-.12.49,0,.14.02.27.06.38.04.11.08.22.12.32.04.08.06.18.06.29v.38c0,.29-.02.48-.06.58-.12.12-.18.33-.18.61s-.12.58-.35.87c-.24.3-.49.68-.75,1.15,0,.27-.13.5-.38.69-.26.19-.53.42-.81.69-.14.16-.26.29-.34.38-.08.09-.16.17-.23.23-.07.06-.15.11-.25.15-.09.04-.22.09-.38.15-.67.31-1.34.48-1.99.54-.65.05-1.12.08-1.41.08-.35,0-.73-.02-1.15-.06-.42-.04-.84-.11-1.26-.21-.42-.1-.82-.23-1.21-.37-.39-.14-.72-.33-.98-.55l-.61-.86c-.16-.22-.31-.47-.43-.74-.12-.27-.24-.51-.34-.74-.12-.27-.24-.54-.34-.83v-2.05c0-.29-.06-.58-.17-.87-.11-.3-.17-.68-.17-1.15v-1.72c.04-.2.09-.41.15-.61.04-.16.08-.33.12-.49.04-.16.06-.28.06-.34-.06-.29-.12-.54-.18-.77-.1-.45-.15-.77-.15-.95.04-.16.09-.33.15-.49.04-.14.08-.28.12-.4.04-.12.06-.22.06-.31v-1.69c0-.14-.12-.27-.37-.37-.25-.1-.52-.19-.81-.26-.3-.07-.56-.14-.8-.21-.24-.07-.34-.16-.32-.26,0-.27.11-.53.34-.8.22-.27.48-.4.77-.4l1.47-.34h.58c.12,0,.36.06.72.17.36.11.69.17,1,.17h2.54c.29,0,.45.06.51.18.05.12.08.23.08.31,0,.45-.06.76-.18.93-.12.17-.28.29-.47.34-.19.05-.4.08-.61.08s-.42.05-.61.14c-.19.09-.35.27-.47.52-.12.26-.18.67-.18,1.24,0,.06.01.16.03.29.02.13.05.28.08.43.03.15.06.3.09.43.03.13.05.23.05.29v7.51c-.12.27-.15.43-.09.51.06.07.09.19.09.35l.34.83c.2.31.4.55.58.74s.39.33.61.44c.22.11.49.19.8.23.31.04.69.06,1.16.06.14,0,.39-.06.74-.18.35-.12.67-.27.98-.43.06-.14.16-.28.29-.41.13-.13.29-.32.47-.55.18-.23.38-.54.6-.92.21-.38.44-.88.69-1.52v-1.19c0-.14.01-.41.03-.8.02-.39.05-.8.08-1.23.03-.43.06-.83.09-1.21.03-.38.05-.63.05-.75Z"/>
        <path class="cls-1" d="M40.69.61c.06,0,.16.02.31.05.14.03.3.06.46.09.16.03.32.06.47.08.15.02.27.03.35.03.04,0,.11.04.21.12.1.08.2.18.29.31.09.12.17.26.25.41.07.15.11.3.11.44,0,.08-.12.15-.37.21s-.52.12-.83.18-.58.13-.83.21c-.25.08-.37.18-.37.31v2.14c.04.16.09.32.15.46.04.12.08.25.12.37.04.12.06.21.06.28l-.34,1.44c0,.06.02.17.05.34.03.16.07.34.12.52.05.18.09.36.12.52.03.16.05.28.05.34l.28,1.53c0,.43-.05.83-.14,1.19-.09.37-.14.62-.14.77v.86c0,.12-.06.23-.17.32-.11.09-.17.35-.17.78,0,.08.03.18.09.29.06.11.14.21.23.31.09.09.19.17.29.23.1.06.18.09.25.09l.67.18c.57.27.86.69.86,1.29,0,.25-.17.44-.51.6-.34.15-.68.23-1.03.23h-1.69l-1.13-.34c-.12,0-.3.03-.52.09-.22.06-.46.13-.7.21-.25.08-.47.15-.67.21-.2.06-.34.09-.4.09-.12,0-.29-.07-.51-.2-.21-.13-.32-.27-.32-.41,0-.22.12-.42.35-.6.23-.17.49-.35.77-.52.28-.17.51-.36.7-.57.19-.2.26-.46.2-.77-.16-.31-.2-.54-.12-.69.08-.15.12-.3.12-.44v-7.32l-.34-.83c.04-.22.09-.44.15-.64.04-.16.08-.32.12-.47.04-.15.06-.27.06-.35,0-.41-.03-.73-.09-.97-.06-.23-.14-.42-.25-.57-.1-.1-.21-.17-.34-.2-.12-.03-.25-.05-.38-.06-.13-.01-.27-.03-.41-.05-.14-.02-.28-.06-.4-.12-.12-.08-.23-.21-.31-.4-.08-.18-.12-.47-.12-.86,0-.08.01-.16.03-.25.02-.06.05-.12.08-.18s.09-.09.17-.09h1.69c.08,0,.18.01.29.03.11.02.22.05.32.09.1.04.21.08.34.12.12,0,.28-.01.46-.03.18-.02.36-.05.52-.09.2-.04.42-.08.64-.12h.34c.08,0,.18-.04.31-.12l.12-.12Z"/>
        <path class="cls-1" d="M53.03,1.1c.29,0,.56.08.81.25.26.16.38.4.38.7v.58c-.22.16-.44.31-.64.43-.16.1-.33.2-.49.29-.16.09-.28.14-.34.14h-.92c-.43,0-.77.12-1.01.37s-.37.58-.37,1.01v.92c0,.55-.07,1.15-.2,1.81-.13.65-.26,1.28-.38,1.87v4.6c0,.06.02.17.05.32.03.15.08.31.15.46.07.15.16.29.26.4.1.11.23.17.4.17h2.63c.06,0,.23-.06.51-.18s.58-.27.9-.43c.33-.16.65-.34.97-.52.32-.18.55-.34.69-.46.16-.14.33-.28.49-.41.16-.13.32-.2.46-.2.12-.29.21-.45.26-.51.05-.05.16-.08.32-.08.12,0,.3.07.52.2.22.13.34.26.34.38,0,.06-.09.3-.26.72-.17.42-.38.89-.63,1.41-.25.52-.51,1.02-.8,1.5-.29.48-.55.8-.8.97-.06.08-.24.14-.54.17-.3.03-.61.06-.93.08-.37.02-.79.03-1.26.03h-1.44c-.43,0-.86-.04-1.29-.12-.43-.08-.72-.07-.86.03l-.4.09-1.47.34c-.06,0-.19-.02-.38-.05-.19-.03-.4-.07-.63-.12-.23-.05-.43-.09-.63-.12-.19-.03-.32-.05-.38-.05-.16,0-.32.02-.46.06-.14.04-.27.08-.37.12-.12.06-.25.11-.37.15-.22,0-.39-.05-.51-.15-.11-.1-.19-.22-.25-.37-.05-.14-.08-.29-.09-.43-.01-.14-.02-.26-.02-.34,0-.43.14-.69.41-.8.28-.1.58-.19.9-.26.33-.07.63-.19.9-.37.28-.17.41-.55.41-1.12v-2.57l.25-2.3v-1.1c0-.08.01-.24.03-.47.02-.23.05-.48.09-.75.04-.31.09-.63.15-.98,0-.16-.05-.32-.14-.46-.09-.14-.14-.28-.14-.4v-.34c0-.57-.09-.97-.26-1.18-.17-.21-.37-.38-.58-.49-.21-.11-.41-.24-.58-.38-.17-.14-.26-.43-.26-.86,0-.2.05-.38.14-.54.09-.15.2-.28.32-.38.12-.1.25-.17.37-.21.12-.04.21-.06.28-.06h6.65Z"/>
        <path class="cls-1" d="M77.54,0c.06,0,.13.08.2.23.07.15.14.33.2.54.06.2.11.41.15.61.04.2.06.35.06.43v2.21c0,.08,0,.24-.02.46-.01.23-.04.45-.09.69-.05.23-.14.44-.26.63-.12.18-.29.28-.49.28-.35,0-.6-.08-.75-.23-.15-.15-.27-.35-.34-.58-.07-.23-.13-.49-.17-.77-.04-.28-.11-.53-.21-.77-.1-.23-.26-.43-.47-.58-.21-.15-.54-.23-.97-.23h-1.69c-.1,0-.21.01-.34.03-.12.02-.24.05-.34.09-.12.04-.25.08-.37.12-.43,0-.76.14-1,.41-.24.28-.35.62-.35,1.03v1.47c0,.16,0,.31-.02.44-.01.13.05.26.17.38l-.15,1.19v4.96c0,.41.03.74.09,1,.06.26.14.46.25.63.1.16.21.3.34.41.12.11.23.22.34.32.31.1.58.2.83.29.25.09.54.14.89.14.61.1,1.07.29,1.38.57.31.28.47.56.49.86.02.3-.09.57-.34.83-.25.26-.61.41-1.1.47-.18,0-.36-.03-.54-.09-.17-.06-.34-.11-.51-.15-.18-.02-.39-.03-.61-.03s-.45,0-.69-.02c-.24-.01-.46-.04-.67-.08-.21-.04-.4-.11-.57-.21h-2.91c-.12,0-.37.06-.75.17-.38.11-.8.17-1.27.17-.33,0-.62-.01-.89-.03-.23-.02-.45-.04-.69-.05-.24-.01-.39-.02-.47-.02-.1,0-.18.04-.25.12-.06.08-.27.12-.61.12-.04-.02-.08-.06-.12-.12-.04-.04-.07-.09-.09-.14-.02-.05-.03-.13-.03-.23.08-.22.18-.45.31-.67.1-.18.22-.38.35-.58.13-.2.28-.39.44-.55.29-.1.55-.19.8-.28.2-.08.4-.15.6-.21.19-.06.32-.09.38-.09l1.47-.34c.14,0,.26-.1.34-.29.08-.19.14-.4.18-.63.04-.27.06-.58.06-.95v-3.25c0-.08.04-.22.12-.43l.12-.25v-3.92c0-.16.02-.33.05-.49.03-.16.05-.32.05-.46,0-.06-.03-.15-.09-.28s-.14-.25-.25-.37c-.1-.12-.22-.23-.35-.32-.13-.09-.27-.14-.41-.14h-3.4c-.43,0-.76.08-1,.23-.24.15-.41.35-.54.58-.12.24-.21.49-.28.77-.06.28-.14.53-.23.77-.09.24-.22.43-.38.58-.16.15-.41.23-.74.23-.31,0-.53-.12-.66-.35-.13-.23-.2-.49-.2-.75,0-.08.01-.21.03-.38.02-.17.05-.35.08-.54.03-.18.06-.36.09-.52.03-.16.05-.28.05-.34l.37-1.47c0-.06.02-.2.05-.41.03-.21.08-.44.15-.69.07-.25.16-.46.26-.64.1-.18.22-.28.37-.28.27,0,.47.05.63.15.15.1.32.21.51.34.12.1.25.18.38.25.13.06.31.09.54.09.12,0,.31-.03.55-.08.25-.05.43-.08.55-.08h.61c.06.04.13.07.21.08.08.01.17.03.28.05.1.02.21.03.34.03h4.63l.83-.15.86.15c.43,0,.87-.03,1.33-.08.46-.05.89-.08,1.3-.08h1.47c.37,0,.69-.05.98-.15.29-.1.54-.21.75-.32.21-.11.39-.22.52-.32.13-.1.23-.15.29-.15Z"/>
        <path class="cls-1" d="M96.11.61c.12,0,.28.02.47.06.19.04.38.09.57.14.18.05.34.1.47.15.13.05.2.1.2.14,0,.47-.13.84-.4,1.12-.27.28-.61.41-1.04.41h-.95c-.29,0-.5.05-.64.15-.14.1-.26.23-.35.38-.09.15-.16.34-.2.55-.04.21-.09.42-.15.63-.1.12-.19.25-.28.37-.08.12-.19.22-.34.31-.08.14-.18.28-.29.4-.11.12-.21.25-.29.37-.12.22-.3.57-.54,1.03-.24.46-.46.97-.69,1.53-.23.56-.42,1.13-.58,1.7-.16.57-.25,1.08-.25,1.53v1.1l-.15.86c0,.06.01.19.03.38.02.19.05.39.09.58.04.19.09.37.15.52.06.15.13.23.21.23.14.08.44.18.89.29.45.11.91.25,1.39.4.48.15.9.32,1.27.51s.55.38.55.58c0,.1-.01.19-.03.28-.04.16-.14.25-.31.25-.18.16-.34.28-.47.34-.13.06-.26.17-.38.34-.08,0-.15.05-.2.14-.05.09-.1.19-.15.29-.05.1-.12.2-.2.29-.08.09-.18.14-.31.14-.16,0-.37-.06-.63-.17-.26-.11-.53-.17-.81-.17h-2.05c-.16,0-.33-.01-.49-.03-.14-.02-.3-.05-.47-.08-.17-.03-.33-.09-.47-.17h-1.38c-.35,0-.6.05-.77.14-.16.09-.42.14-.77.14h-.52c-.72,0-1.19-.09-1.42-.28-.24-.18-.35-.55-.35-1.1,0-.35.09-.69.28-1.03.18-.34.49-.51.92-.51l1.44.34c.12,0,.27-.04.44-.11.17-.07.33-.16.46-.26.13-.1.23-.22.29-.37.06-.14.06-.3,0-.46l-.34-3.4c0-.16-.01-.33-.03-.51-.02-.17.02-.34.12-.51,0-.12-.03-.25-.09-.38-.06-.13-.09-.26-.09-.38,0-.43-.11-.81-.32-1.15-.21-.34-.56-.72-1.03-1.15-.14-.31-.41-.59-.81-.86-.4-.27-.81-.55-1.24-.86-.12-.29-.31-.58-.55-.89s-.43-.6-.55-.89c-.12-.1-.26-.17-.4-.21-.14-.04-.3-.11-.46-.21-.39-.1-.79-.18-1.19-.25-.35-.14-.62-.33-.81-.57-.19-.23-.29-.56-.29-.97,0-.35.08-.63.23-.86.15-.22.44-.34.87-.34h1.47c.29,0,.56.06.83.17.27.11.47.17.61.17h1.44c.06,0,.17.01.34.03.16.02.34.04.54.05.19.01.39.03.6.05.2.02.37.03.49.03h.67c.14,0,.22.02.25.05.02.03.03.13.03.29s-.06.32-.18.46c-.12.14-.25.3-.38.47-.13.17-.26.35-.38.54-.12.18-.18.38-.18.58,0,.22.11.51.34.86.22.35.48.69.77,1.04.33.39.7.81,1.13,1.26,0,.06.02.15.06.28.04.12.09.25.14.37.05.12.11.23.18.32.07.09.14.14.2.14.14,0,.29-.1.43-.31.14-.2.28-.44.4-.7.12-.27.23-.52.34-.75.1-.23.19-.38.28-.44,0-.08.06-.22.18-.43.12-.2.26-.42.41-.66.15-.23.29-.47.41-.7.12-.23.18-.43.18-.6,0-.12-.08-.22-.25-.31-.16-.08-.34-.18-.52-.29-.18-.11-.36-.25-.52-.41-.16-.16-.25-.4-.25-.7,0-.08.05-.15.14-.21s.2-.11.34-.15c.13-.04.27-.07.4-.09.13-.02.24-.03.32-.03.12.04.23.07.34.09.1.02.2.04.29.05.09.01.17.02.23.02h.58c.31-.08.57-.13.8-.14.22-.01.61-.02,1.16-.02.2,0,.37-.02.51-.05.13-.03.25-.07.34-.12.09-.05.19-.09.29-.12.1-.03.23-.05.4-.05Z"/>
      </g>
      <g>
        <path class="cls-1" d="M122.49.35c.41,0,.79.16,1.15.47.36.32.68.61.97.87.16.49.42.86.77,1.1.12.14.25.3.37.46.12.16.2.36.25.58.08,0,.16.09.25.26.08.17.15.38.21.61.06.24.11.45.15.66.04.2.06.34.06.4,0,.29-.05.6-.15.95-.1.35-.23.69-.38,1.04-.15.35-.32.68-.49,1-.17.32-.32.58-.44.78-.08.14-.19.26-.32.34-.13.08-.26.16-.38.23-.12.07-.23.17-.32.29-.09.12-.14.29-.14.49,0,.23.06.52.18.89.12.37.28.74.46,1.1.18.37.37.69.57.98.19.29.35.46.47.52.25.16.46.37.66.61.19.25.4.49.61.74.21.25.44.46.69.66.25.19.53.32.86.38.12.04.32.12.58.23.27.11.47.24.61.38.12.12.19.21.2.26.01.05,0,.16-.05.32-.06.22-.21.39-.44.49-.24.1-.49.17-.77.2s-.53.04-.75.03c-.23-.01-.36-.03-.4-.05-.14-.12-.33-.18-.57-.18s-.42-.02-.57-.06c-.55-.33-.94-.59-1.16-.8-.22-.2-.49-.4-.8-.58-.12-.06-.28-.17-.46-.32-.18-.15-.38-.33-.6-.54-.21-.2-.43-.42-.64-.64-.21-.22-.41-.43-.6-.61-.25-.31-.45-.6-.63-.89-.17-.29-.33-.56-.46-.81-.13-.26-.26-.49-.38-.7-.12-.21-.26-.38-.4-.51-.29-.16-.5-.32-.63-.46-.13-.14-.34-.21-.63-.21-.25,0-.43.08-.57.23-.13.15-.24.33-.31.54-.07.2-.12.42-.14.64-.02.23-.03.41-.03.55l.34,1.44v.61c0,.49.16.86.47,1.1.32.25.66.45,1.03.61.37.16.71.32,1.03.47.32.15.47.38.47.69,0,.14-.07.27-.21.37-.14.1-.28.15-.4.15h-1.1l-1.72-.25h-3.83c-.06,0-.26-.02-.6-.05s-.69-.08-1.07-.15c-.38-.07-.72-.17-1.03-.31-.31-.13-.46-.31-.46-.54,0-.06.03-.12.09-.18.06-.06.13-.12.21-.18.08-.08.18-.15.31-.21.06,0,.15.01.28.03.12.02.25.04.37.06.14.02.3.04.46.06h.61c.41,0,.75-.12,1.03-.35.28-.23.41-.48.41-.75V7.74l.25-2.21c-.06-.2-.1-.45-.12-.74-.02-.29-.06-.56-.11-.81-.05-.26-.14-.48-.28-.69-.13-.2-.33-.34-.6-.4h-1.19c-.23,0-.45-.02-.67-.06-.23-.04-.43-.11-.63-.21-.19-.1-.35-.25-.47-.43-.12-.18-.18-.43-.18-.74,0-.06.05-.13.14-.2.09-.07.19-.14.29-.2.12-.08.27-.15.43-.21l5.18-.25h3.16c.06,0,.17-.01.34-.03.16-.02.33-.05.49-.09.2-.04.42-.08.64-.12h1.19ZM119.58,3.48c-.08.02-.17.04-.28.06-.1.04-.21.08-.34.11-.12.03-.26.1-.4.2-.14,0-.28.07-.41.2-.13.13-.2.34-.2.63v2.24c0,.16-.04.31-.12.44-.08.13-.12.26-.12.38l.12.06s.07.08.09.11c.02.03.03.1.03.2-.06.2-.04.39.06.57.1.17.25.33.43.46.18.13.38.24.6.31.21.07.39.11.54.11.18-.08.37-.16.55-.25.16-.06.31-.12.44-.18.13-.06.25-.09.35-.09l.61.25c.27,0,.49-.11.67-.32s.33-.46.44-.74c.11-.28.2-.54.26-.8.06-.26.11-.42.15-.51l-.18-.86c0-.14-.02-.28-.05-.41-.03-.13-.13-.28-.29-.44,0-.12-.02-.31-.05-.55-.03-.25-.13-.43-.29-.55-.06,0-.21-.03-.44-.09-.24-.06-.49-.13-.77-.21-.28-.08-.55-.15-.83-.21s-.47-.09-.6-.09Z"/>
        <path class="cls-1" d="M135.08.69c.06,0,.16.02.31.05.14.03.3.06.46.09.16.03.32.06.47.08.15.02.27.03.35.03.04,0,.11.04.21.12.1.08.2.18.29.31.09.12.17.26.25.41.07.15.11.3.11.44,0,.08-.12.15-.37.21s-.52.12-.83.18-.58.13-.83.21c-.25.08-.37.18-.37.31v2.14c.04.16.09.32.15.46.04.12.08.25.12.37.04.12.06.21.06.28l-.34,1.44c0,.06.02.17.05.34.03.16.07.34.12.52.05.18.09.36.12.52.03.16.05.28.05.34l.28,1.53c0,.43-.05.83-.14,1.19-.09.37-.14.62-.14.77v.86c0,.12-.06.23-.17.32-.11.09-.17.35-.17.78,0,.08.03.18.09.29.06.11.14.21.23.31.09.09.19.17.29.23.1.06.18.09.25.09l.67.18c.57.27.86.69.86,1.29,0,.25-.17.44-.51.6-.34.15-.68.23-1.03.23h-1.69l-1.13-.34c-.12,0-.3.03-.52.09-.22.06-.46.13-.7.21-.25.08-.47.15-.67.21-.2.06-.34.09-.4.09-.12,0-.29-.07-.51-.2-.21-.13-.32-.27-.32-.41,0-.22.12-.42.35-.6.23-.17.49-.35.77-.52.28-.17.51-.36.7-.57.19-.2.26-.46.2-.77-.16-.31-.2-.54-.12-.69.08-.15.12-.3.12-.44v-7.32l-.34-.83c.04-.22.09-.44.15-.64.04-.16.08-.32.12-.47.04-.15.06-.27.06-.35,0-.41-.03-.73-.09-.97-.06-.23-.14-.42-.25-.57-.1-.1-.21-.17-.34-.2-.12-.03-.25-.05-.38-.06-.13-.01-.27-.03-.41-.05-.14-.02-.28-.06-.4-.12-.12-.08-.23-.21-.31-.4-.08-.18-.12-.47-.12-.86,0-.08.01-.16.03-.25.02-.06.05-.12.08-.18s.09-.09.17-.09h1.69c.08,0,.18.01.29.03.11.02.22.05.32.09.1.04.21.08.34.12.12,0,.28-.01.46-.03.18-.02.36-.05.52-.09.2-.04.42-.08.64-.12h.34c.08,0,.18-.04.31-.12l.12-.12Z"/>
        <path class="cls-1" d="M139.83.69c.14,0,.23.02.28.05.04.03.12.13.25.29h5.27l2.57.49h.86c.57,0,1.06.2,1.46.61.4.41.72.88.97,1.42.25.54.42,1.09.54,1.64.11.55.17.98.17,1.29,0,.35-.03.74-.08,1.16-.05.43-.15.85-.31,1.27-.15.42-.38.8-.69,1.15-.31.35-.72.59-1.23.74-.08,0-.19.03-.34.08-.14.05-.29.11-.43.18-.14.07-.28.13-.4.18-.12.05-.21.08-.28.08-.14,0-.34-.02-.6-.05-.26-.03-.51-.09-.77-.18-.26-.09-.47-.2-.66-.34-.18-.13-.28-.31-.28-.54,0-.29.08-.48.25-.58.16-.1.37-.18.63-.23.26-.05.53-.11.83-.18.3-.07.57-.21.83-.43.26-.21.46-.55.63-1.01.16-.46.25-1.1.25-1.91,0-.12-.01-.26-.03-.41-.02-.15-.09-.3-.21-.44-.16-.22-.4-.43-.7-.61-.31-.18-.63-.34-.97-.46-.34-.12-.65-.21-.93-.28-.29-.06-.47-.09-.55-.09h-.52c-.08,0-.17.03-.28.09-.1.06-.19.13-.28.21-.08.08-.14.17-.17.28-.03.1-.02.19.05.28v7.23l.34,1.38c-.06.29-.12.54-.18.77-.04.2-.08.4-.11.6-.03.19-.05.33-.05.41,0,.57.15.93.46,1.09.31.15.64.24,1,.25.36.01.69.04,1,.08.31.04.46.23.46.55v.34c0,.08-.03.19-.09.32-.06.13-.13.27-.21.4-.08.13-.17.25-.28.34-.1.09-.19.14-.28.14h-.52c-.16,0-.42-.06-.77-.17-.35-.11-.6-.17-.77-.17h-1.96c-.08,0-.25.02-.51.05-.26.03-.54.07-.84.12-.31.05-.6.09-.89.12-.29.03-.5.05-.64.05-.23,0-.44,0-.64-.02-.2-.01-.38-.06-.54-.14-.15-.08-.28-.2-.38-.35-.1-.15-.15-.38-.15-.69,0-.14,0-.31.02-.51.01-.19.05-.38.12-.55.07-.17.18-.32.32-.44.14-.12.36-.18.64-.18l.34.25h1.13c.55,0,.83-.29.83-.86v-.92l.34-1.13-.34-.58c.04-.16.09-.32.15-.46.04-.12.08-.25.12-.37.04-.12.06-.21.06-.28,0-.14-.06-.34-.17-.58-.11-.25-.17-.45-.17-.61,0-.06.02-.11.05-.15.03-.04.07-.1.12-.18.05-.08.09-.18.12-.31.03-.12.05-.31.05-.55v-1.72c0-.12-.06-.26-.17-.41-.11-.15-.17-.38-.17-.69v-.86c0-.2.05-.44.15-.7.06-.14.12-.3.18-.46,0-.31-.13-.57-.4-.8-.27-.22-.61-.34-1.04-.34h-.34c-.06,0-.18-.02-.37-.06-.18-.04-.38-.1-.58-.17-.2-.07-.38-.16-.54-.26-.15-.1-.23-.21-.23-.34,0-.18.05-.35.14-.49.09-.14.2-.27.34-.37.13-.1.27-.18.4-.25.13-.06.24-.09.32-.09Z"/>
        <path class="cls-1" d="M154.38.69c.14,0,.23.02.28.05.04.03.12.13.25.29h5.27l2.57.49h.86c.57,0,1.06.2,1.46.61.4.41.72.88.97,1.42.25.54.42,1.09.54,1.64.11.55.17.98.17,1.29,0,.35-.03.74-.08,1.16-.05.43-.15.85-.31,1.27-.15.42-.38.8-.69,1.15-.31.35-.72.59-1.23.74-.08,0-.19.03-.34.08-.14.05-.29.11-.43.18-.14.07-.28.13-.4.18-.12.05-.21.08-.28.08-.14,0-.34-.02-.6-.05-.26-.03-.51-.09-.77-.18-.26-.09-.47-.2-.66-.34-.18-.13-.28-.31-.28-.54,0-.29.08-.48.25-.58.16-.1.37-.18.63-.23.26-.05.53-.11.83-.18.3-.07.57-.21.83-.43.26-.21.46-.55.63-1.01.16-.46.25-1.1.25-1.91,0-.12-.01-.26-.03-.41-.02-.15-.09-.3-.21-.44-.16-.22-.4-.43-.7-.61-.31-.18-.63-.34-.97-.46-.34-.12-.65-.21-.93-.28-.29-.06-.47-.09-.55-.09h-.52c-.08,0-.17.03-.28.09-.1.06-.19.13-.28.21-.08.08-.14.17-.17.28-.03.1-.02.19.05.28v7.23l.34,1.38c-.06.29-.12.54-.18.77-.04.2-.08.4-.11.6-.03.19-.05.33-.05.41,0,.57.15.93.46,1.09.31.15.64.24,1,.25.36.01.69.04,1,.08.31.04.46.23.46.55v.34c0,.08-.03.19-.09.32-.06.13-.13.27-.21.4-.08.13-.17.25-.28.34-.1.09-.19.14-.28.14h-.52c-.16,0-.42-.06-.77-.17-.35-.11-.6-.17-.77-.17h-1.96c-.08,0-.25.02-.51.05-.26.03-.54.07-.84.12-.31.05-.6.09-.89.12-.29.03-.5.05-.64.05-.22,0-.44,0-.64-.02-.2-.01-.38-.06-.54-.14-.15-.08-.28-.2-.38-.35-.1-.15-.15-.38-.15-.69,0-.14,0-.31.02-.51.01-.19.05-.38.12-.55.07-.17.18-.32.32-.44.14-.12.36-.18.64-.18l.34.25h1.13c.55,0,.83-.29.83-.86v-.92l.34-1.13-.34-.58c.04-.16.09-.32.15-.46.04-.12.08-.25.12-.37.04-.12.06-.21.06-.28,0-.14-.06-.34-.17-.58-.11-.25-.17-.45-.17-.61,0-.06.02-.11.05-.15.03-.04.07-.1.12-.18.05-.08.09-.18.12-.31.03-.12.05-.31.05-.55v-1.72c0-.12-.06-.26-.17-.41-.11-.15-.17-.38-.17-.69v-.86c0-.2.05-.44.15-.7.06-.14.12-.3.18-.46,0-.31-.13-.57-.4-.8-.27-.22-.61-.34-1.04-.34h-.34c-.06,0-.18-.02-.37-.06-.18-.04-.38-.1-.58-.17-.2-.07-.38-.16-.54-.26-.15-.1-.23-.21-.23-.34,0-.18.05-.35.14-.49.09-.14.2-.27.34-.37.13-.1.27-.18.4-.25.13-.06.24-.09.32-.09Z"/>
        <path class="cls-1" d="M176.35,1.18c.29,0,.56.08.81.25.26.16.38.4.38.7v.58c-.22.16-.44.31-.64.43-.16.1-.33.2-.49.29-.16.09-.28.14-.34.14h-.92c-.43,0-.77.12-1.01.37-.25.25-.37.58-.37,1.01v.92c0,.55-.07,1.15-.2,1.81-.13.65-.26,1.28-.38,1.87v4.6c0,.06.02.17.05.32.03.15.08.31.15.46.07.15.16.29.26.4.1.11.23.17.4.17h2.63c.06,0,.23-.06.51-.18.28-.12.58-.27.9-.43.33-.16.65-.34.97-.52.32-.18.55-.34.69-.46.16-.14.33-.28.49-.41.16-.13.32-.2.46-.2.12-.29.21-.45.26-.51.05-.05.16-.08.32-.08.12,0,.3.07.52.2.22.13.34.26.34.38,0,.06-.09.3-.26.72-.17.42-.38.89-.63,1.41-.25.52-.51,1.02-.8,1.5-.29.48-.55.8-.8.97-.06.08-.24.14-.54.17-.3.03-.61.06-.93.08-.37.02-.79.03-1.26.03h-1.44c-.43,0-.86-.04-1.29-.12-.43-.08-.72-.07-.86.03l-.4.09-1.47.34c-.06,0-.19-.02-.38-.05-.19-.03-.4-.07-.63-.12-.22-.05-.43-.09-.63-.12-.19-.03-.32-.05-.38-.05-.16,0-.32.02-.46.06-.14.04-.27.08-.37.12-.12.06-.25.11-.37.15-.22,0-.39-.05-.51-.15-.11-.1-.19-.22-.25-.37-.05-.14-.08-.29-.09-.43-.01-.14-.02-.26-.02-.34,0-.43.14-.69.41-.8.28-.1.58-.19.9-.26.33-.07.63-.19.9-.37.28-.17.41-.55.41-1.12v-2.57l.25-2.3v-1.1c0-.08.01-.24.03-.47.02-.23.05-.48.09-.75.04-.31.09-.63.15-.98,0-.16-.05-.32-.14-.46-.09-.14-.14-.28-.14-.4v-.34c0-.57-.09-.97-.26-1.18-.17-.21-.37-.38-.58-.49-.21-.11-.41-.24-.58-.38-.17-.14-.26-.43-.26-.86,0-.2.05-.38.14-.54.09-.15.2-.28.32-.38.12-.1.25-.17.37-.21.12-.04.21-.06.28-.06h6.65Z"/>
        <path class="cls-1" d="M189.71,1.03c.12,0,.24.01.35.03.11.02.25.04.4.05.15.01.34.03.55.05.21.02.49.03.84.03l1.01-.25c.16-.04.32-.08.46-.12.12-.04.25-.07.37-.09.12-.02.21-.03.28-.03.14,0,.32.05.54.15.21.1.4.21.57.34.14.27.23.58.28.95.04.37.12.68.25.95.06.06.13.18.21.35.08.17.16.34.25.51.08.23.18.45.31.67,0,.39-.26.58-.77.58-.12,0-.31-.1-.55-.29-.25-.19-.56-.41-.95-.64-.39-.23-.85-.45-1.38-.64-.53-.19-1.16-.29-1.9-.29l-.58.15c-.12.18-.24.34-.35.46-.11.12-.17.23-.17.31v.28c-.04.16-.08.32-.12.46-.04.12-.07.25-.09.37-.02.12-.03.21-.03.28v2.21c0,.31.06.6.18.87.12.28.32.41.58.41.06,0,.16-.01.31-.03.14-.02.3-.05.46-.09.18-.04.38-.08.58-.12h.61c.16,0,.31-.04.44-.12.13-.08.26-.17.38-.26s.24-.18.35-.26c.11-.08.23-.12.35-.12.06,0,.13.04.21.12.08.08.16.17.25.28l.31.37v2.02c0,.57-.26.86-.77.86-.22,0-.42-.05-.58-.14-.16-.09-.31-.19-.43-.29-.23-.08-.41-.17-.57-.28-.15-.1-.34-.15-.57-.15h-1.1c-.51,0-.84.09-.98.28-.14.18-.21.55-.21,1.1v.77c.06.29.1.57.12.86.02.29.06.55.11.8.05.25.15.45.29.63.14.17.37.29.67.35h1.72c.29,0,.6-.06.93-.17.34-.11.68-.26,1.03-.44.35-.12.67-.23.97-.34.3-.1.57-.15.81-.15.08.06.16.13.25.21l.18.18c.06.06.09.12.09.18,0,.14-.05.28-.15.4-.1.12-.23.25-.37.37-.29.27-.49.54-.61.81-.12.28-.24.53-.35.77-.11.24-.25.43-.41.58-.16.15-.41.23-.74.23-.12,0-.24-.02-.34-.05-.1-.03-.21-.07-.32-.12-.11-.05-.25-.09-.4-.12-.15-.03-.34-.05-.57-.05l-2.97.09-1.04.25h-2.54l-.61.18-.92.06c-.1,0-.21-.04-.34-.12-.12-.08-.24-.18-.34-.29-.1-.11-.19-.22-.26-.34-.07-.11-.11-.2-.11-.26,0-.51.38-.77,1.13-.77.16-.06.33-.13.49-.21.31-.14.56-.25.77-.31.43-.08.72-.21.87-.4.15-.18.23-.61.23-1.29,0-.1.04-.21.11-.32.07-.11.04-.23-.11-.35,0-.1-.01-.21-.03-.32-.02-.11-.05-.22-.09-.32-.04-.12-.08-.26-.12-.4v-2.45l.25-2.14v-.52c0-.12.02-.2.05-.25.03-.04.05-.12.05-.25v-3.4c0-.18-.1-.33-.31-.44-.2-.11-.36-.17-.46-.17h-.86c-.39,0-.67-.16-.84-.49-.17-.33-.26-.7-.26-1.13,0-.12.06-.23.17-.34.11-.1.23-.15.35-.15h1.62c.12,0,.31-.02.57-.05.26-.03.58-.05.97-.05h2.11Z"/>
      </g>
      <g>
        <path class="cls-1" d="M219.87.14c.45,0,.79.1,1.01.29.22.19.38.44.47.75.09.31.15.64.18,1,.03.36.07.7.11,1.03v1.1c.12.23.28.53.47.9.19.38.29.76.29,1.15v.77c0,.06.05.25.15.55.1.31.22.64.35,1.01.13.37.25.72.35,1.06.1.34.15.57.15.69,0,.39.05.9.15,1.55.1.64.23,1.27.4,1.88.16.61.35,1.14.57,1.59.21.45.44.67.69.67.29,0,.51.03.67.09.16.06.31.09.43.09.06,0,.17.01.32.03.15.02.32.06.49.12.17.06.32.15.44.26.12.11.18.26.18.44,0,.41-.14.69-.43.86-.29.16-.62.25-1.01.25l-2.05-.09h-3.06l-.86.09c-.12,0-.32-.01-.6-.03-.28-.02-.41-.1-.41-.25,0-.29.13-.52.38-.7.26-.18.56-.34.9-.46.29-.1.53-.21.72-.34.19-.12.29-.33.29-.61,0-.06-.03-.21-.08-.46-.05-.25-.11-.51-.18-.78-.07-.28-.15-.52-.25-.74s-.18-.32-.26-.32c-.06-.2-.11-.43-.14-.67-.03-.25-.07-.46-.12-.66-.05-.19-.13-.34-.25-.44-.11-.1-.28-.13-.51-.09h-1.39c-.17,0-.35.01-.54.03-.18.02-.36.05-.54.08-.17.03-.29.08-.35.14-.27.12-.37.3-.32.54.05.24.08.49.08.75-.06.08-.15.24-.28.47-.12.24-.24.49-.35.75-.11.27-.21.51-.29.74-.08.23-.12.37-.12.43,0,.25.07.42.2.52.13.1.28.2.44.29.16.09.31.22.44.38.13.16.2.44.2.83,0,.12-.04.22-.12.29-.08.07-.18.12-.29.15-.11.03-.22.05-.34.06-.11.01-.2.02-.26.02,0,.06-.02.1-.06.12-.04.02-.1.03-.17.03s-.17-.05-.29-.15h-.32c-.13,0-.27-.01-.41-.03l-.55-.06c-.27,0-.48.03-.64.09-.16.06-.38.09-.64.09-.29,0-.49.02-.61.05-.12.03-.21.06-.26.09-.05.03-.09.06-.11.08-.02.02-.06.03-.12.03-.1,0-.28-.01-.54-.03-.26-.02-.52-.06-.78-.11-.27-.05-.5-.12-.69-.21-.19-.09-.29-.2-.29-.32,0-.39.12-.71.35-.98.23-.27.55-.4.93-.4l.58-.15s.12-.04.23-.11c.11-.07.23-.16.35-.26.12-.1.25-.21.38-.32.13-.11.24-.2.32-.26.12-.51.34-1.07.66-1.67.32-.6.61-1.18.87-1.73.12-.35.28-.71.47-1.09.19-.38.37-.7.54-.97.2-.39.38-.77.52-1.13.14-.37.28-.74.4-1.12.12-.38.26-.76.4-1.15.14-.39.31-.79.49-1.19.14-.31.26-.64.34-1,.08-.36.16-.72.23-1.1.07-.38.16-.76.28-1.15.11-.39.26-.78.44-1.16.12-.1.26-.22.4-.37.14-.14.35-.28.61-.4h.52ZM219.5,5.74c-.14,0-.27.06-.38.18-.11.12-.21.26-.29.41-.08.15-.14.31-.18.46-.04.15-.06.26-.06.32v.41c0,.09-.01.17-.03.25-.02.07-.05.17-.08.29s-.08.32-.14.58v.25c0,.12.09.24.28.35.18.11.35.17.49.17h.29c.13,0,.27-.01.4-.03.13-.02.25-.06.35-.12.1-.06.15-.15.15-.28,0-.27-.07-.47-.21-.61-.14-.14-.21-.29-.21-.43v-1.35c0-.12-.04-.3-.11-.52-.07-.22-.16-.34-.26-.34Z"/>
        <path class="cls-1" d="M239.81.57c.41,0,.79.16,1.15.47.36.32.68.61.97.87.16.49.42.86.77,1.1.12.14.25.3.37.46.12.16.2.36.25.58.08,0,.16.09.25.26.08.17.15.38.21.61.06.24.11.45.15.66.04.2.06.34.06.4,0,.29-.05.6-.15.95-.1.35-.23.69-.38,1.04-.15.35-.32.68-.49,1-.17.32-.32.58-.44.78-.08.14-.19.26-.32.34-.13.08-.26.16-.38.23-.12.07-.23.17-.32.29-.09.12-.14.29-.14.49,0,.23.06.52.18.89.12.37.28.74.46,1.1.18.37.37.69.57.98.19.29.35.46.47.52.25.16.46.37.66.61.19.25.4.49.61.74.21.25.44.46.69.66.25.19.53.32.86.38.12.04.32.12.58.23.27.11.47.24.61.38.12.12.19.21.2.26.01.05,0,.16-.05.32-.06.22-.21.39-.44.49-.24.1-.49.17-.77.2-.28.03-.53.04-.75.03-.22-.01-.36-.03-.4-.05-.14-.12-.33-.18-.57-.18s-.42-.02-.57-.06c-.55-.33-.94-.59-1.16-.8-.22-.2-.49-.4-.8-.58-.12-.06-.28-.17-.46-.32-.18-.15-.38-.33-.6-.54-.21-.2-.43-.42-.64-.64-.21-.22-.41-.43-.6-.61-.25-.31-.45-.6-.63-.89-.17-.29-.33-.56-.46-.81-.13-.26-.26-.49-.38-.7-.12-.21-.26-.38-.4-.51-.29-.16-.5-.32-.63-.46-.13-.14-.34-.21-.63-.21-.25,0-.43.08-.57.23-.13.15-.24.33-.31.54-.07.2-.12.42-.14.64-.02.23-.03.41-.03.55l.34,1.44v.61c0,.49.16.86.47,1.1.32.25.66.45,1.03.61.37.16.71.32,1.03.47.32.15.47.38.47.69,0,.14-.07.27-.21.37-.14.1-.28.15-.4.15h-1.1l-1.72-.25h-3.83c-.06,0-.26-.02-.6-.05-.34-.03-.69-.08-1.07-.15-.38-.07-.72-.17-1.03-.31-.31-.13-.46-.31-.46-.54,0-.06.03-.12.09-.18s.13-.12.21-.18c.08-.08.18-.15.31-.21.06,0,.15.01.28.03.12.02.25.04.37.06.14.02.3.04.46.06h.61c.41,0,.75-.12,1.03-.35.28-.23.41-.48.41-.75V7.95l.25-2.21c-.06-.2-.1-.45-.12-.74-.02-.29-.06-.56-.11-.81-.05-.26-.14-.48-.28-.69-.13-.2-.33-.34-.6-.4h-1.19c-.23,0-.45-.02-.67-.06-.23-.04-.43-.11-.63-.21-.19-.1-.35-.25-.47-.43-.12-.18-.18-.43-.18-.74,0-.06.05-.13.14-.2.09-.07.19-.14.29-.2.12-.08.27-.15.43-.21l5.18-.25h3.16c.06,0,.17-.01.34-.03.16-.02.33-.05.49-.09.2-.04.42-.08.64-.12h1.19ZM236.9,3.69c-.08.02-.17.04-.28.06-.1.04-.21.08-.34.11-.12.03-.26.1-.4.2-.14,0-.28.07-.41.2-.13.13-.2.34-.2.63v2.24c0,.16-.04.31-.12.44-.08.13-.12.26-.12.38l.12.06s.07.08.09.11c.02.03.03.1.03.2-.06.2-.04.39.06.57.1.17.25.33.43.46.18.13.38.24.6.31.21.07.39.11.54.11.18-.08.37-.16.55-.25.16-.06.31-.12.44-.18.13-.06.25-.09.35-.09l.61.25c.27,0,.49-.11.67-.32.18-.21.33-.46.44-.74.11-.28.2-.54.26-.8.06-.26.11-.42.15-.51l-.18-.86c0-.14-.02-.28-.05-.41-.03-.13-.13-.28-.29-.44,0-.12-.02-.31-.05-.55-.03-.25-.13-.43-.29-.55-.06,0-.21-.03-.44-.09-.24-.06-.49-.13-.77-.21-.28-.08-.55-.15-.83-.21-.28-.06-.47-.09-.6-.09Z"/>
        <path class="cls-1" d="M265.42.29c.06,0,.13.08.2.23.07.15.14.33.2.54.06.2.11.41.15.61.04.2.06.35.06.43v2.21c0,.08,0,.24-.02.46-.01.23-.04.45-.09.69-.05.23-.14.44-.26.63-.12.18-.29.28-.49.28-.35,0-.6-.08-.75-.23-.15-.15-.27-.35-.34-.58-.07-.23-.13-.49-.17-.77-.04-.28-.11-.53-.21-.77-.1-.23-.26-.43-.47-.58-.21-.15-.54-.23-.97-.23h-1.69c-.1,0-.21.01-.34.03-.12.02-.24.05-.34.09-.12.04-.25.08-.37.12-.43,0-.76.14-1,.41-.24.28-.35.62-.35,1.03v1.47c0,.16,0,.31-.02.44-.01.13.05.26.17.38l-.15,1.19v4.96c0,.41.03.74.09,1,.06.26.14.46.25.63.1.16.21.3.34.41.12.11.23.22.34.32.31.1.58.2.83.29.25.09.54.14.89.14.61.1,1.07.29,1.38.57.31.28.47.56.49.86.02.3-.09.57-.34.83-.25.26-.61.41-1.1.47-.18,0-.36-.03-.54-.09-.17-.06-.34-.11-.51-.15-.18-.02-.39-.03-.61-.03s-.45,0-.69-.02c-.24-.01-.46-.04-.67-.08-.21-.04-.4-.11-.57-.21h-2.91c-.12,0-.37.06-.75.17-.38.11-.8.17-1.27.17-.33,0-.62-.01-.89-.03-.23-.02-.45-.04-.69-.05-.24-.01-.39-.02-.47-.02-.1,0-.18.04-.25.12-.06.08-.27.12-.61.12-.04-.02-.08-.06-.12-.12-.04-.04-.07-.09-.09-.14-.02-.05-.03-.13-.03-.23.08-.22.18-.45.31-.67.1-.18.22-.38.35-.58.13-.2.28-.39.44-.55.29-.1.55-.19.8-.28.2-.08.4-.15.6-.21.19-.06.32-.09.38-.09l1.47-.34c.14,0,.26-.1.34-.29.08-.19.14-.4.18-.63.04-.27.06-.58.06-.95v-3.25c0-.08.04-.22.12-.43l.12-.25v-3.92c0-.16.02-.33.05-.49.03-.16.05-.32.05-.46,0-.06-.03-.15-.09-.28s-.14-.25-.25-.37c-.1-.12-.22-.23-.35-.32-.13-.09-.27-.14-.41-.14h-3.4c-.43,0-.76.08-1,.23-.24.15-.41.35-.54.58-.12.24-.21.49-.28.77-.06.28-.14.53-.23.77-.09.24-.22.43-.38.58-.16.15-.41.23-.74.23-.31,0-.53-.12-.66-.35-.13-.23-.2-.49-.2-.75,0-.08.01-.21.03-.38.02-.17.05-.35.08-.54.03-.18.06-.36.09-.52.03-.16.05-.28.05-.34l.37-1.47c0-.06.02-.2.05-.41.03-.21.08-.44.15-.69.07-.25.16-.46.26-.64.1-.18.22-.28.37-.28.27,0,.47.05.63.15.15.1.32.21.51.34.12.1.25.18.38.25.13.06.31.09.54.09.12,0,.31-.03.55-.08.25-.05.43-.08.55-.08h.61c.06.04.13.07.21.08.08.01.17.03.28.05.1.02.21.03.34.03h4.63l.83-.15.86.15c.43,0,.87-.03,1.33-.08.46-.05.89-.08,1.3-.08h1.47c.37,0,.69-.05.98-.15.29-.1.54-.21.75-.32.21-.11.39-.22.52-.32.13-.1.23-.15.29-.15Z"/>
      </g>
    </g>
  </g>
</svg>