<?xml version="1.0" encoding="UTF-8"?>
<svg id="Layer_2" data-name="Layer 2" xmlns="http://www.w3.org/2000/svg" viewBox="0 0 122.52 89.78">
  <defs>
    <style>
      .cls-1 {
        fill: #8eb2bc;
      }
    </style>
  </defs>
  <g id="Layer_1-2" data-name="Layer 1">
    <g>
      <g>
        <path class="cls-1" d="M14.51.77h1.8c.54,0,.99.22,1.36.67.37.45.66.95.88,1.52.22.56.38,1.09.48,1.59.1.5.15.8.15.9,0,.21.01.36.04.48.03.12.06.22.12.33.05.1.1.19.15.27,0,.08-.01.17-.04.27-.05.18-.14.33-.27.46,0,.18-.01.35-.04.52-.03.17-.12.25-.27.25-.13,0-.33-.15-.61-.44-.28-.29-.58-.62-.88-.98-.36-.43-.75-.92-1.19-1.46-.28-.15-.66-.32-1.13-.5-.47-.18-.93-.35-1.36-.5-.54-.18-1.09-.35-1.65-.5-.82,0-1.63.15-2.44.46-.81.31-1.53.75-2.19,1.34-.65.59-1.2,1.3-1.65,2.15-.45.84-.71,1.8-.79,2.88,0,.51-.05.92-.15,1.23-.1.31-.15.64-.15,1s.01.66.04.9c.03.24.12.54.27.9.18.54.43,1.11.77,1.73.33.61.72,1.18,1.17,1.71.45.52.95.96,1.52,1.3.56.35,1.16.52,1.8.52l1.38-.46c.36,0,.75-.13,1.17-.4s.63-.66.63-1.17v-.77c-.05-.31-.12-.62-.19-.94-.08-.32-.19-.65-.35-.98-.21-.36-.45-.72-.75-1.09-.29-.37-.54-.61-.75-.71-.36-.13-.54-.31-.54-.54,0-.1.06-.19.17-.25.12-.06.25-.11.4-.13.18-.03.38-.04.61-.04h4.26c.18,0,.33-.01.44-.04.12-.03.24-.06.36-.1.13-.04.29-.08.5-.12.2-.04.49-.06.84-.06.18.05.35.12.5.19.13.05.25.13.36.23.12.1.17.21.17.31,0,.15-.06.4-.19.75-.13.35-.27.52-.42.52h-.42c-.54,0-.98.21-1.32.61-.35.41-.52.78-.52,1.11v2.23c0,.33-.05.59-.15.77-.1.18-.15.46-.15.84.05.21.09.41.12.61.03.18.03.38.02.59-.01.22-.06.42-.13.59,0,.18-.06.33-.17.44s-.24.22-.36.33c-.15.1-.33.2-.54.31l-2.57.42h-.61c-.1,0-.26-.02-.48-.06-.22-.04-.45-.09-.69-.15-.24-.06-.5-.12-.77-.15-.27-.04-.52-.06-.75-.06h-1.04c-.13,0-.31-.03-.54-.08-.23-.05-.45-.13-.65-.23-.38-.13-.77-.22-1.15-.27-.38-.05-.68-.08-.88-.08-.08-.1-.2-.19-.36-.25-.17-.06-.35-.13-.54-.21-.19-.08-.37-.17-.54-.27-.17-.1-.29-.24-.36-.42-.21-.08-.47-.34-.79-.79-.32-.45-.63-.95-.94-1.52-.31-.56-.58-1.13-.81-1.71-.23-.58-.35-1.06-.35-1.44v-.65c0-.2-.07-.45-.21-.75-.14-.29-.21-.54-.21-.75v-2.53c.15-.41.29-.79.42-1.15.1-.31.2-.62.29-.94.09-.32.13-.58.13-.79l.31-.65c0-.56.22-1.16.65-1.8.43-.64.95-1.24,1.55-1.8.6-.56,1.23-1.03,1.88-1.4.65-.37,1.21-.56,1.67-.56.2-.03.4-.05.58-.08.15-.03.31-.05.46-.08.15-.03.28-.04.38-.04h.42c.38,0,.66-.02.83-.06.17-.04.33-.09.48-.15.15-.06.34-.12.56-.15.22-.04.56-.06,1.02-.06h2.88Z"/>
        <path class="cls-1" d="M36.45,9.09c-.05-.08-.1-.17-.15-.27-.1-.2-.15-.37-.15-.5v-1.8l-.35-2.15v-.73c0-.28-.09-.47-.27-.56-.18-.09-.37-.16-.58-.21-.28-.05-.53-.1-.75-.15-.22-.05-.33-.2-.33-.46,0-.23.05-.45.15-.67.1-.22.22-.42.36-.61.14-.19.3-.35.48-.46.18-.12.35-.17.5-.17.36.18.72.32,1.07.42.31.13.65.23,1.04.31s.75.12,1.11.12h1.5c.26,0,.55-.03.88-.1.33-.06.65-.09.94-.08.29.01.54.1.75.27.2.17.31.49.31.98.08.26.13.5.15.73.03.2.03.4.02.58-.01.18-.07.31-.17.38h-1.84c-.31,0-.56.16-.75.48-.19.32-.29.66-.29,1.02-.13.38-.21.69-.23.92-.03.23-.01.41.04.54.03.15.09.27.19.35l-.46,1.38c.13.2.21.42.25.63.04.22.08.42.13.59.03.23.05.44.08.61,0,.08-.03.19-.08.35-.05.15-.1.32-.15.5-.05.18-.1.36-.15.54-.05.18-.08.32-.08.42v.73c0,.1-.01.23-.04.38-.03.15-.06.32-.12.5-.05.21-.1.41-.15.61,0,.18.03.34.08.48.05.14.1.28.15.4.05.1.08.22.08.36v.48c0,.36-.03.6-.08.73-.15.15-.23.41-.23.77s-.15.72-.44,1.09c-.29.37-.61.85-.94,1.44,0,.33-.16.62-.48.86-.32.24-.66.53-1.02.86-.18.2-.32.36-.42.48-.1.12-.2.21-.29.29-.09.08-.19.14-.31.19-.12.05-.28.12-.48.19-.84.38-1.68.61-2.49.67-.82.06-1.41.1-1.77.1-.44,0-.91-.03-1.44-.08-.52-.05-1.05-.14-1.57-.27-.52-.13-1.03-.28-1.52-.46-.49-.18-.9-.41-1.23-.69l-.77-1.07c-.21-.28-.38-.59-.54-.92-.15-.33-.29-.64-.42-.92-.15-.33-.29-.68-.42-1.04v-2.57c0-.36-.07-.72-.21-1.09-.14-.37-.21-.85-.21-1.44v-2.15c.05-.26.12-.51.19-.77.05-.2.1-.41.15-.61.05-.2.08-.35.08-.42-.08-.36-.15-.68-.23-.96-.13-.56-.19-.96-.19-1.19.05-.2.12-.41.19-.61.05-.18.1-.35.15-.5.05-.15.08-.28.08-.38v-2.11c0-.18-.15-.33-.46-.46-.31-.13-.65-.24-1.02-.33-.37-.09-.7-.18-1-.27-.29-.09-.43-.2-.4-.33,0-.33.14-.66.42-1,.28-.33.6-.5.96-.5l1.84-.42h.73c.15,0,.45.07.9.21.45.14.86.21,1.25.21h3.18c.36,0,.57.08.63.23.06.15.1.28.1.38,0,.56-.08.95-.23,1.17-.15.22-.35.36-.59.42-.24.06-.5.1-.77.1s-.52.06-.77.17c-.24.12-.44.33-.59.65-.15.32-.23.84-.23,1.55,0,.08.01.2.04.36.03.17.06.35.1.54.04.19.08.37.12.54.04.17.06.29.06.36v9.4c-.15.33-.19.54-.12.63.08.09.12.24.12.44l.42,1.04c.26.38.5.69.73.92s.49.42.77.56c.28.14.61.24,1,.29.38.05.87.08,1.46.08.18,0,.49-.08.92-.23.43-.15.84-.33,1.23-.54.08-.18.2-.35.36-.52.17-.17.36-.4.59-.69.23-.29.48-.68.75-1.15.27-.47.56-1.11.86-1.9v-1.5c0-.18.01-.51.04-1,.03-.49.06-1,.1-1.53.04-.54.08-1.04.12-1.52.04-.47.06-.79.06-.94Z"/>
        <path class="cls-1" d="M50.96.77c.08,0,.2.02.38.06.18.04.37.08.58.12.2.04.4.07.59.1.19.03.34.04.44.04.05,0,.14.05.27.15.13.1.25.23.36.38.12.15.22.33.31.52.09.19.13.38.13.56,0,.1-.15.19-.46.27s-.65.15-1.04.23-.73.17-1.04.27c-.31.1-.46.23-.46.38v2.69c.05.21.12.4.19.58.05.15.1.31.15.46.05.15.08.27.08.35l-.42,1.8c0,.08.02.22.06.42.04.2.09.42.15.65.06.23.12.45.15.65.04.21.06.35.06.42l.35,1.92c0,.54-.06,1.04-.17,1.5-.12.46-.17.78-.17.96v1.07c0,.15-.07.29-.21.4-.14.12-.21.44-.21.98,0,.1.04.22.12.36.08.14.17.27.29.38.12.12.24.21.36.29.13.08.23.12.31.12l.84.23c.72.33,1.07.87,1.07,1.61,0,.31-.21.56-.63.75-.42.19-.85.29-1.29.29h-2.11l-1.42-.42c-.15,0-.37.04-.65.12-.28.08-.58.17-.88.27-.31.1-.59.19-.84.27-.26.08-.42.12-.5.12-.15,0-.36-.08-.63-.25-.27-.17-.4-.34-.4-.52,0-.28.15-.53.44-.75.29-.22.61-.43.96-.65.35-.22.64-.45.88-.71.24-.26.33-.58.25-.96-.21-.38-.26-.67-.15-.86.1-.19.15-.38.15-.56v-9.17l-.42-1.04c.05-.28.12-.55.19-.81.05-.2.1-.4.15-.59.05-.19.08-.34.08-.44,0-.51-.04-.91-.12-1.21-.08-.29-.18-.53-.31-.71-.13-.13-.27-.21-.42-.25-.15-.04-.31-.06-.48-.08-.17-.01-.34-.03-.52-.06-.18-.03-.35-.08-.5-.15-.15-.1-.28-.27-.38-.5-.1-.23-.15-.59-.15-1.07,0-.1.01-.2.04-.31.03-.08.06-.15.1-.23s.11-.12.21-.12h2.11c.1,0,.22.01.36.04.14.03.27.06.4.12.13.05.27.1.42.15.15,0,.35-.01.58-.04.23-.03.45-.06.65-.12.26-.05.52-.1.81-.15h.42c.1,0,.23-.05.38-.15l.15-.15Z"/>
        <path class="cls-1" d="M66.42,1.38c.36,0,.7.1,1.02.31.32.2.48.5.48.88v.73c-.28.2-.55.38-.81.54-.21.13-.41.25-.61.36-.21.12-.35.17-.42.17h-1.15c-.54,0-.96.15-1.27.46s-.46.73-.46,1.27v1.15c0,.69-.08,1.45-.25,2.26-.17.82-.33,1.6-.48,2.34v5.76c0,.08.02.21.06.4.04.19.1.38.19.58.09.19.2.36.33.5.13.14.29.21.5.21h3.3c.08,0,.29-.08.63-.23s.72-.33,1.13-.54c.41-.2.81-.42,1.21-.65.4-.23.68-.42.86-.58.2-.18.41-.35.61-.52.2-.17.4-.25.58-.25.15-.36.26-.57.33-.63.06-.06.2-.1.4-.1.15,0,.37.08.65.25.28.17.42.33.42.48,0,.08-.11.38-.33.9-.22.52-.48,1.11-.79,1.77-.31.65-.64,1.28-1,1.88-.36.6-.69,1-1,1.21-.08.1-.3.17-.67.21-.37.04-.76.07-1.17.1-.46.03-.99.04-1.57.04h-1.8c-.54,0-1.07-.05-1.61-.15-.54-.1-.9-.09-1.07.04l-.5.12-1.84.42c-.08,0-.24-.02-.48-.06-.24-.04-.51-.09-.79-.15-.28-.06-.54-.12-.79-.15-.24-.04-.4-.06-.48-.06-.21,0-.4.03-.58.08-.18.05-.33.1-.46.15-.15.08-.31.14-.46.19-.28,0-.49-.06-.63-.19-.14-.13-.24-.28-.31-.46-.06-.18-.1-.36-.12-.54-.01-.18-.02-.32-.02-.42,0-.54.17-.87.52-1,.35-.13.72-.24,1.13-.33.41-.09.79-.24,1.13-.46.35-.22.52-.68.52-1.4v-3.22l.31-2.88v-1.38c0-.1.01-.3.04-.59.03-.29.06-.61.12-.94.05-.38.12-.79.19-1.23,0-.2-.06-.4-.17-.58-.12-.18-.17-.35-.17-.5v-.42c0-.72-.11-1.21-.33-1.48-.22-.27-.46-.47-.73-.61-.27-.14-.51-.3-.73-.48-.22-.18-.33-.54-.33-1.07,0-.26.06-.48.17-.67.12-.19.25-.35.4-.48.15-.13.31-.22.46-.27.15-.05.27-.08.35-.08h8.33Z"/>
        <path class="cls-1" d="M97.12,0c.08,0,.16.1.25.29.09.19.17.42.25.67.08.26.14.51.19.77.05.26.08.44.08.54v2.76c0,.1,0,.29-.02.58-.01.28-.05.57-.12.86-.06.29-.17.56-.33.79-.15.23-.36.35-.61.35-.44,0-.75-.1-.94-.29-.19-.19-.33-.43-.42-.73-.09-.29-.16-.61-.21-.96-.05-.35-.14-.66-.27-.96-.13-.29-.33-.54-.59-.73-.27-.19-.67-.29-1.21-.29h-2.11c-.13,0-.27.01-.42.04-.15.03-.29.06-.42.12-.15.05-.31.1-.46.15-.54,0-.95.17-1.25.52-.29.35-.44.77-.44,1.29v1.84c0,.2,0,.39-.02.56-.01.17.06.33.21.48l-.19,1.5v6.22c0,.51.04.93.12,1.25.08.32.18.58.31.79.13.21.27.38.42.52.15.14.29.28.42.4.38.13.73.25,1.04.36.31.12.68.17,1.11.17.77.13,1.34.36,1.73.71.38.35.59.7.61,1.07.03.37-.12.72-.42,1.04-.31.32-.77.52-1.38.59-.23,0-.45-.04-.67-.12-.22-.08-.43-.14-.63-.19-.23-.03-.49-.04-.77-.04s-.57,0-.86-.02c-.29-.01-.58-.04-.84-.1-.27-.05-.51-.14-.71-.27h-3.65c-.15,0-.47.07-.94.21-.47.14-1,.21-1.59.21-.41,0-.78-.01-1.11-.04-.28-.03-.57-.04-.86-.06-.29-.01-.49-.02-.59-.02-.13,0-.23.05-.31.15-.08.1-.33.15-.77.15-.05-.03-.1-.08-.15-.15-.05-.05-.09-.11-.12-.17-.03-.06-.04-.16-.04-.29.1-.28.23-.56.38-.84.13-.23.27-.47.44-.73.17-.26.35-.49.56-.69.36-.13.69-.24,1-.35.26-.1.5-.19.75-.27.24-.08.4-.12.48-.12l1.84-.42c.18,0,.32-.12.42-.36.1-.24.18-.5.23-.79.05-.33.08-.73.08-1.19v-4.07c0-.1.05-.28.15-.54l.15-.31v-4.91c0-.2.02-.41.06-.61.04-.2.06-.4.06-.58,0-.08-.04-.19-.12-.35s-.18-.31-.31-.46c-.13-.15-.28-.29-.44-.4-.17-.12-.34-.17-.52-.17h-4.26c-.54,0-.95.1-1.25.29-.29.19-.52.44-.67.73-.15.29-.27.61-.35.96-.08.35-.17.67-.29.96-.12.29-.28.54-.48.73-.21.19-.51.29-.92.29-.38,0-.66-.15-.83-.44-.17-.29-.25-.61-.25-.94,0-.1.01-.26.04-.48.03-.22.06-.44.1-.67.04-.23.08-.45.12-.65.04-.2.06-.35.06-.42l.46-1.84c0-.08.02-.25.06-.52.04-.27.1-.56.19-.86.09-.31.2-.58.33-.81.13-.23.28-.35.46-.35.33,0,.59.06.79.19.19.13.4.27.63.42.15.13.31.23.48.31.17.08.39.12.67.12.15,0,.38-.03.69-.1.31-.06.54-.1.69-.1h.77c.08.05.17.08.27.1.1.01.22.03.35.06.13.03.27.04.42.04h5.79l1.04-.19,1.07.19c.54,0,1.09-.03,1.67-.1.58-.06,1.12-.1,1.63-.1h1.84c.46,0,.87-.06,1.23-.19.36-.13.67-.26.94-.4.27-.14.49-.27.65-.4.17-.13.29-.19.36-.19Z"/>
        <path class="cls-1" d="M120.38.77c.15,0,.35.03.59.08.24.05.48.11.71.17.23.06.43.13.59.19.17.06.25.12.25.17,0,.59-.17,1.06-.5,1.4-.33.35-.77.52-1.3.52h-1.19c-.36,0-.63.06-.81.19-.18.13-.33.29-.44.48-.12.19-.2.42-.25.69-.05.27-.12.53-.19.79-.13.15-.24.31-.35.46-.1.15-.24.28-.42.38-.1.18-.22.35-.36.5-.14.15-.26.31-.36.46-.15.28-.38.71-.67,1.29-.29.58-.58,1.22-.86,1.92-.28.7-.52,1.41-.73,2.13-.21.72-.31,1.36-.31,1.92v1.38l-.19,1.07c0,.08.01.24.04.48.03.24.06.49.12.73.05.24.12.46.19.65.08.19.17.29.27.29.18.1.55.22,1.11.36.56.14,1.14.31,1.75.5.6.19,1.13.4,1.59.63s.69.47.69.73c0,.13-.01.24-.04.35-.05.21-.18.31-.38.31-.23.2-.43.35-.59.42-.17.08-.33.22-.48.42-.1,0-.19.06-.25.17-.06.12-.13.24-.19.36-.06.13-.15.25-.25.36-.1.12-.23.17-.38.17-.21,0-.47-.07-.79-.21-.32-.14-.66-.21-1.02-.21h-2.57c-.21,0-.41-.01-.61-.04-.18-.03-.38-.06-.59-.1-.22-.04-.42-.11-.59-.21h-1.73c-.44,0-.75.06-.96.17-.21.12-.52.17-.96.17h-.65c-.9,0-1.49-.12-1.78-.35-.29-.23-.44-.69-.44-1.38,0-.43.12-.86.35-1.29.23-.42.61-.63,1.15-.63l1.8.42c.15,0,.34-.04.56-.13.22-.09.41-.2.58-.33.17-.13.29-.28.36-.46.08-.18.08-.37,0-.58l-.42-4.26c0-.2-.01-.42-.04-.63-.03-.22.03-.43.15-.63,0-.15-.04-.31-.12-.48-.08-.17-.12-.33-.12-.48,0-.54-.13-1.02-.4-1.44-.27-.42-.7-.9-1.29-1.44-.18-.38-.52-.74-1.02-1.07-.5-.33-1.02-.69-1.55-1.07-.15-.36-.38-.73-.69-1.11s-.54-.75-.69-1.11c-.15-.13-.32-.22-.5-.27-.18-.05-.37-.14-.58-.27-.49-.13-.99-.23-1.5-.31-.44-.18-.77-.42-1.02-.71-.24-.29-.36-.7-.36-1.21,0-.43.1-.79.29-1.07.19-.28.56-.42,1.09-.42h1.84c.36,0,.7.07,1.04.21.33.14.59.21.77.21h1.8c.08,0,.22.01.42.04.2.03.43.05.67.06.24.01.49.03.75.06.26.03.46.04.61.04h.84c.18,0,.28.02.31.06.03.04.04.16.04.36s-.08.4-.23.58c-.15.18-.31.38-.48.59-.17.22-.33.44-.48.67-.15.23-.23.47-.23.73,0,.28.14.64.42,1.07.28.44.6.87.96,1.3.41.49.88,1.01,1.42,1.57,0,.08.03.19.08.35.05.15.11.31.17.46.06.15.14.29.23.4.09.12.17.17.25.17.18,0,.36-.13.54-.38.18-.26.35-.55.5-.88.15-.33.29-.65.42-.94.13-.29.24-.48.35-.56,0-.1.08-.28.23-.54.15-.26.33-.53.52-.83.19-.29.36-.59.52-.88.15-.29.23-.54.23-.75,0-.15-.1-.28-.31-.38-.21-.1-.42-.22-.65-.36-.23-.14-.45-.31-.65-.52-.21-.2-.31-.5-.31-.88,0-.1.06-.19.17-.27s.26-.14.42-.19c.17-.05.33-.09.5-.12.17-.03.3-.04.4-.04.15.05.29.09.42.12.13.03.25.04.36.06.12.01.21.02.29.02h.73c.38-.1.72-.16,1-.17.28-.01.77-.02,1.46-.02.26,0,.47-.02.63-.06.17-.04.31-.09.42-.15.12-.06.24-.12.36-.15.13-.04.29-.06.5-.06Z"/>
      </g>
      <g>
        <path class="cls-1" d="M14.85,33.46c.51,0,.99.2,1.44.59.45.4.85.76,1.21,1.09.2.61.52,1.07.96,1.38.15.18.31.37.46.58.15.21.26.45.31.73.1,0,.2.11.31.33.1.22.19.47.27.77.08.29.14.57.19.83.05.26.08.42.08.5,0,.36-.06.75-.19,1.19-.13.44-.29.87-.48,1.3-.19.44-.4.85-.61,1.25-.22.4-.4.72-.56.98-.1.18-.24.32-.4.42-.17.1-.33.2-.48.29-.15.09-.29.21-.4.36-.12.15-.17.36-.17.61,0,.28.08.65.23,1.11.15.46.35.92.58,1.38.23.46.47.87.71,1.23.24.36.44.58.59.65.31.21.58.46.83.77.24.31.5.61.77.92.27.31.56.58.86.83.31.24.66.4,1.07.48.15.05.4.15.73.29.33.14.59.3.77.48.15.15.24.26.25.33.01.06,0,.2-.06.4-.08.28-.26.49-.56.61-.29.13-.61.21-.96.25s-.66.05-.94.04c-.28-.01-.45-.03-.5-.06-.18-.15-.42-.23-.71-.23s-.53-.03-.71-.08c-.69-.41-1.18-.74-1.46-1-.28-.26-.61-.5-1-.73-.15-.08-.35-.21-.58-.4-.23-.19-.48-.42-.75-.67-.27-.26-.54-.52-.81-.81-.27-.28-.52-.54-.75-.77-.31-.38-.57-.75-.79-1.11-.22-.36-.41-.7-.58-1.02-.17-.32-.33-.61-.48-.88-.15-.27-.32-.48-.5-.63-.36-.2-.62-.4-.79-.58-.17-.18-.43-.27-.79-.27-.31,0-.54.1-.71.29-.17.19-.29.42-.38.67-.09.26-.15.52-.17.81-.03.28-.04.51-.04.69l.42,1.8v.77c0,.61.2,1.07.59,1.38.4.31.83.56,1.29.77.46.21.89.4,1.29.59.4.19.59.48.59.86,0,.18-.09.33-.27.46-.18.13-.35.19-.5.19h-1.38l-2.15-.31h-4.8c-.08,0-.33-.02-.75-.06s-.87-.1-1.34-.19c-.47-.09-.9-.22-1.29-.38-.38-.17-.58-.39-.58-.67,0-.08.04-.15.12-.23.08-.08.17-.15.27-.23.1-.1.23-.19.38-.27.08,0,.19.01.35.04.15.03.31.05.46.08.18.03.37.05.58.08h.77c.51,0,.94-.15,1.29-.44.35-.29.52-.61.52-.94v-10.25l.31-2.76c-.08-.26-.13-.56-.15-.92-.03-.36-.07-.7-.13-1.02-.06-.32-.18-.61-.35-.86-.17-.26-.42-.42-.75-.5h-1.5c-.28,0-.56-.03-.84-.08-.28-.05-.54-.14-.79-.27-.24-.13-.44-.31-.59-.54-.15-.23-.23-.54-.23-.92,0-.08.06-.16.17-.25.12-.09.24-.17.36-.25.15-.1.33-.19.54-.27l6.49-.31h3.95c.08,0,.22-.01.42-.04.2-.03.41-.06.61-.12.26-.05.52-.1.81-.15h1.5ZM11.2,37.38c-.1.03-.22.05-.35.08-.13.05-.27.1-.42.13-.15.04-.32.12-.5.25-.18,0-.35.08-.52.25-.17.17-.25.43-.25.79v2.8c0,.21-.05.39-.15.56-.1.17-.15.33-.15.48l.15.08c.05.05.09.1.12.13.03.04.04.12.04.25-.08.26-.05.49.08.71.13.22.31.41.54.58.23.17.48.29.75.38.27.09.49.13.67.13.23-.1.46-.2.69-.31.2-.08.39-.15.56-.23.17-.08.31-.12.44-.12l.77.31c.33,0,.61-.13.84-.4s.42-.58.56-.92c.14-.35.25-.68.33-1,.08-.32.14-.53.19-.63l-.23-1.07c0-.18-.02-.35-.06-.52-.04-.17-.16-.35-.36-.56,0-.15-.02-.38-.06-.69-.04-.31-.16-.54-.36-.69-.08,0-.26-.04-.56-.12-.29-.08-.61-.17-.96-.27-.35-.1-.69-.19-1.04-.27s-.59-.12-.75-.12Z"/>
        <path class="cls-1" d="M30.62,33.88c.08,0,.2.02.38.06.18.04.37.08.58.12.2.04.4.07.59.1.19.03.34.04.44.04.05,0,.14.05.27.15.13.1.25.23.36.38.12.15.22.33.31.52.09.19.13.38.13.56,0,.1-.15.19-.46.27s-.65.15-1.04.23-.73.17-1.04.27c-.31.1-.46.23-.46.38v2.69c.05.21.12.4.19.58.05.15.1.31.15.46.05.15.08.27.08.35l-.42,1.8c0,.08.02.22.06.42.04.2.09.42.15.65.06.23.12.45.15.65.04.21.06.35.06.42l.35,1.92c0,.54-.06,1.04-.17,1.5-.12.46-.17.78-.17.96v1.07c0,.15-.07.29-.21.4-.14.12-.21.44-.21.98,0,.1.04.22.12.36.08.14.17.27.29.38.12.12.24.21.36.29.13.08.23.12.31.12l.84.23c.72.33,1.07.87,1.07,1.61,0,.31-.21.56-.63.75-.42.19-.85.29-1.29.29h-2.11l-1.42-.42c-.15,0-.37.04-.65.12-.28.08-.58.17-.88.27-.31.1-.59.19-.84.27-.26.08-.42.12-.5.12-.15,0-.36-.08-.63-.25-.27-.17-.4-.34-.4-.52,0-.28.15-.53.44-.75.29-.22.61-.43.96-.65.35-.22.64-.45.88-.71.24-.26.33-.58.25-.96-.21-.38-.26-.67-.15-.86.1-.19.15-.38.15-.56v-9.17l-.42-1.04c.05-.28.12-.55.19-.81.05-.2.1-.4.15-.59.05-.19.08-.34.08-.44,0-.51-.04-.91-.12-1.21-.08-.29-.18-.53-.31-.71-.13-.13-.27-.21-.42-.25-.15-.04-.31-.06-.48-.08-.17-.01-.34-.03-.52-.06-.18-.03-.35-.08-.5-.15-.15-.1-.28-.27-.38-.5-.1-.23-.15-.59-.15-1.07,0-.1.01-.2.04-.31.03-.08.06-.15.1-.23s.11-.12.21-.12h2.11c.1,0,.22.01.36.04.14.03.27.06.4.12.13.05.27.1.42.15.15,0,.35-.01.58-.04.23-.03.45-.06.65-.12.26-.05.52-.1.81-.15h.42c.1,0,.23-.05.38-.15l.15-.15Z"/>
        <path class="cls-1" d="M36.57,33.88c.18,0,.29.02.35.06.05.04.15.16.31.36h6.6l3.22.61h1.07c.72,0,1.32.26,1.82.77.5.51.9,1.11,1.21,1.78.31.68.53,1.36.67,2.05.14.69.21,1.23.21,1.61,0,.44-.03.92-.1,1.46-.06.54-.19,1.07-.38,1.59-.19.52-.48,1-.86,1.44-.38.44-.9.74-1.53.92-.1,0-.24.03-.42.1-.18.06-.36.14-.54.23-.18.09-.35.17-.5.23-.15.06-.27.1-.35.1-.18,0-.43-.02-.75-.06-.32-.04-.64-.12-.96-.23-.32-.12-.59-.26-.83-.42-.23-.17-.35-.39-.35-.67,0-.36.1-.6.31-.73.2-.13.47-.22.79-.29.32-.06.66-.14,1.04-.23.37-.09.72-.27,1.04-.54.32-.27.58-.69.79-1.27.2-.58.31-1.37.31-2.4,0-.15-.01-.33-.04-.52-.03-.19-.12-.38-.27-.56-.21-.28-.5-.54-.88-.77-.38-.23-.79-.42-1.21-.58-.42-.15-.81-.27-1.17-.35-.36-.08-.59-.12-.69-.12h-.65c-.1,0-.22.04-.35.12-.13.08-.24.17-.35.27-.1.1-.17.22-.21.35-.04.13-.02.24.06.35v9.06l.42,1.73c-.08.36-.15.68-.23.96-.05.26-.1.51-.13.75-.04.24-.06.42-.06.52,0,.72.19,1.17.58,1.36.38.19.8.29,1.25.31.45.01.86.04,1.25.1.38.05.58.28.58.69v.42c0,.1-.04.24-.12.4-.08.17-.17.33-.27.5-.1.17-.22.31-.35.42-.13.12-.24.17-.35.17h-.65c-.21,0-.52-.07-.96-.21-.44-.14-.75-.21-.96-.21h-2.46c-.1,0-.31.02-.63.06-.32.04-.67.09-1.06.15-.38.06-.75.12-1.11.15-.36.04-.63.06-.81.06-.28,0-.55,0-.81-.02-.26-.01-.48-.07-.67-.17-.19-.1-.35-.25-.48-.44-.13-.19-.19-.48-.19-.86,0-.18,0-.39.02-.63.01-.24.06-.47.15-.69.09-.22.22-.4.4-.56.18-.15.45-.23.81-.23l.42.31h1.42c.69,0,1.04-.36,1.04-1.07v-1.15l.42-1.42-.42-.73c.05-.2.12-.4.19-.58.05-.15.1-.31.15-.46.05-.15.08-.27.08-.35,0-.18-.07-.42-.21-.73-.14-.31-.21-.56-.21-.77,0-.08.02-.14.06-.19.04-.05.09-.13.15-.23.06-.1.12-.23.15-.38.04-.15.06-.38.06-.69v-2.15c0-.15-.07-.33-.21-.52-.14-.19-.21-.48-.21-.86v-1.07c0-.26.06-.55.19-.88.08-.18.15-.37.23-.58,0-.38-.17-.72-.5-1-.33-.28-.77-.42-1.3-.42h-.42c-.08,0-.23-.03-.46-.08-.23-.05-.47-.12-.73-.21-.26-.09-.48-.2-.67-.33-.19-.13-.29-.27-.29-.42,0-.23.06-.43.17-.61.12-.18.26-.33.42-.46.17-.13.33-.23.5-.31.17-.08.3-.12.4-.12Z"/>
        <path class="cls-1" d="M54.8,33.88c.18,0,.29.02.35.06.05.04.15.16.31.36h6.6l3.22.61h1.07c.72,0,1.32.26,1.82.77.5.51.9,1.11,1.21,1.78.31.68.53,1.36.67,2.05.14.69.21,1.23.21,1.61,0,.44-.03.92-.1,1.46-.06.54-.19,1.07-.38,1.59-.19.52-.48,1-.86,1.44-.38.44-.9.74-1.53.92-.1,0-.24.03-.42.1-.18.06-.36.14-.54.23-.18.09-.35.17-.5.23-.15.06-.27.1-.35.1-.18,0-.43-.02-.75-.06-.32-.04-.64-.12-.96-.23-.32-.12-.59-.26-.83-.42-.23-.17-.35-.39-.35-.67,0-.36.1-.6.31-.73.2-.13.47-.22.79-.29.32-.06.66-.14,1.04-.23.37-.09.72-.27,1.04-.54.32-.27.58-.69.79-1.27.2-.58.31-1.37.31-2.4,0-.15-.01-.33-.04-.52-.03-.19-.12-.38-.27-.56-.21-.28-.5-.54-.88-.77-.38-.23-.79-.42-1.21-.58-.42-.15-.81-.27-1.17-.35-.36-.08-.59-.12-.69-.12h-.65c-.1,0-.22.04-.35.12-.13.08-.24.17-.35.27-.1.1-.17.22-.21.35-.04.13-.02.24.06.35v9.06l.42,1.73c-.08.36-.15.68-.23.96-.05.26-.1.51-.13.75-.04.24-.06.42-.06.52,0,.72.19,1.17.58,1.36.38.19.8.29,1.25.31.45.01.86.04,1.25.1.38.05.58.28.58.69v.42c0,.1-.04.24-.12.4-.08.17-.17.33-.27.5-.1.17-.22.31-.35.42-.13.12-.24.17-.35.17h-.65c-.21,0-.52-.07-.96-.21-.44-.14-.75-.21-.96-.21h-2.46c-.1,0-.31.02-.63.06-.32.04-.67.09-1.06.15-.38.06-.75.12-1.11.15-.36.04-.63.06-.81.06-.28,0-.55,0-.81-.02-.26-.01-.48-.07-.67-.17-.19-.1-.35-.25-.48-.44-.13-.19-.19-.48-.19-.86,0-.18,0-.39.02-.63.01-.24.06-.47.15-.69.09-.22.22-.4.4-.56.18-.15.45-.23.81-.23l.42.31h1.42c.69,0,1.04-.36,1.04-1.07v-1.15l.42-1.42-.42-.73c.05-.2.12-.4.19-.58.05-.15.1-.31.15-.46.05-.15.08-.27.08-.35,0-.18-.07-.42-.21-.73-.14-.31-.21-.56-.21-.77,0-.08.02-.14.06-.19.04-.05.09-.13.15-.23.06-.1.12-.23.15-.38.04-.15.06-.38.06-.69v-2.15c0-.15-.07-.33-.21-.52-.14-.19-.21-.48-.21-.86v-1.07c0-.26.06-.55.19-.88.08-.18.15-.37.23-.58,0-.38-.17-.72-.5-1-.33-.28-.77-.42-1.3-.42h-.42c-.08,0-.23-.03-.46-.08-.23-.05-.47-.12-.73-.21-.26-.09-.48-.2-.67-.33-.19-.13-.29-.27-.29-.42,0-.23.06-.43.17-.61.12-.18.26-.33.42-.46.17-.13.33-.23.5-.31.17-.08.3-.12.4-.12Z"/>
        <path class="cls-1" d="M82.31,34.5c.36,0,.7.1,1.02.31.32.2.48.5.48.88v.73c-.28.2-.55.38-.81.54-.21.13-.41.25-.61.36-.21.12-.35.17-.42.17h-1.15c-.54,0-.96.15-1.27.46-.31.31-.46.73-.46,1.27v1.15c0,.69-.08,1.45-.25,2.26-.17.82-.33,1.6-.48,2.34v5.76c0,.08.02.21.06.4.04.19.1.38.19.58.09.19.2.36.33.5.13.14.29.21.5.21h3.3c.08,0,.29-.08.63-.23.35-.15.72-.33,1.13-.54.41-.2.81-.42,1.21-.65.4-.23.68-.42.86-.58.2-.18.41-.35.61-.52.2-.17.4-.25.58-.25.15-.36.26-.57.33-.63.06-.06.2-.1.4-.1.15,0,.37.08.65.25.28.17.42.33.42.48,0,.08-.11.38-.33.9-.22.52-.48,1.11-.79,1.77-.31.65-.64,1.28-1,1.88-.36.6-.69,1-1,1.21-.08.1-.3.17-.67.21-.37.04-.76.07-1.17.1-.46.03-.99.04-1.57.04h-1.8c-.54,0-1.07-.05-1.61-.15-.54-.1-.9-.09-1.07.04l-.5.12-1.84.42c-.08,0-.24-.02-.48-.06-.24-.04-.51-.09-.79-.15-.28-.06-.54-.12-.79-.15-.24-.04-.4-.06-.48-.06-.21,0-.4.03-.58.08-.18.05-.33.1-.46.15-.15.08-.31.14-.46.19-.28,0-.49-.06-.63-.19-.14-.13-.24-.28-.31-.46-.06-.18-.1-.36-.12-.54-.01-.18-.02-.32-.02-.42,0-.54.17-.87.52-1,.35-.13.72-.24,1.13-.33.41-.09.79-.24,1.13-.46.35-.22.52-.68.52-1.4v-3.22l.31-2.88v-1.38c0-.1.01-.3.04-.59.03-.29.06-.61.12-.94.05-.38.12-.79.19-1.23,0-.2-.06-.4-.17-.58-.12-.18-.17-.35-.17-.5v-.42c0-.72-.11-1.21-.33-1.48-.22-.27-.46-.47-.73-.61-.27-.14-.51-.3-.73-.48-.22-.18-.33-.54-.33-1.07,0-.26.06-.48.17-.67.12-.19.25-.35.4-.48.15-.13.31-.22.46-.27.15-.05.27-.08.35-.08h8.33Z"/>
        <path class="cls-1" d="M99.04,34.31c.15,0,.3.01.44.04.14.03.31.05.5.06.19.01.42.03.69.06.27.03.62.04,1.06.04l1.27-.31c.2-.05.4-.1.58-.15.15-.05.31-.09.46-.12.15-.03.27-.04.35-.04.18,0,.4.06.67.19.27.13.5.27.71.42.18.33.29.73.35,1.19.05.46.15.86.31,1.19.08.08.17.22.27.44.1.22.2.43.31.63.1.28.23.56.38.84,0,.49-.32.73-.96.73-.15,0-.38-.12-.69-.36-.31-.24-.7-.51-1.19-.81-.49-.29-1.06-.56-1.73-.81-.67-.24-1.46-.36-2.38-.36l-.73.19c-.15.23-.3.42-.44.58-.14.15-.21.28-.21.38v.35c-.05.21-.1.4-.15.58-.05.15-.09.31-.12.46-.03.15-.04.27-.04.35v2.76c0,.38.08.75.23,1.09.15.35.4.52.73.52.08,0,.2-.01.38-.04.18-.03.37-.06.58-.12.23-.05.47-.1.73-.15h.77c.2,0,.39-.05.56-.15.17-.1.33-.21.48-.33s.3-.22.44-.33c.14-.1.29-.15.44-.15.08,0,.17.05.27.15.1.1.2.22.31.35l.38.46v2.53c0,.72-.32,1.07-.96,1.07-.28,0-.52-.06-.73-.17-.21-.12-.38-.24-.54-.36-.28-.1-.52-.22-.71-.35-.19-.13-.43-.19-.71-.19h-1.38c-.64,0-1.05.12-1.23.35-.18.23-.27.69-.27,1.38v.96c.08.36.13.72.15,1.07.03.36.07.69.13,1,.06.31.19.57.36.79.18.22.46.36.84.44h2.15c.36,0,.75-.07,1.17-.21.42-.14.85-.33,1.29-.56.43-.15.84-.29,1.21-.42.37-.13.71-.19,1.02-.19.1.08.2.17.31.27l.23.23c.08.08.12.15.12.23,0,.18-.06.35-.19.5-.13.15-.28.31-.46.46-.36.33-.61.67-.77,1.02-.15.35-.3.67-.44.96-.14.29-.31.54-.52.73-.21.19-.51.29-.92.29-.15,0-.29-.02-.42-.06-.13-.04-.26-.09-.4-.15-.14-.06-.31-.12-.5-.15-.19-.04-.43-.06-.71-.06l-3.72.12-1.3.31h-3.19l-.77.23-1.15.08c-.13,0-.27-.05-.42-.15-.15-.1-.29-.22-.42-.36-.13-.14-.24-.28-.33-.42-.09-.14-.13-.25-.13-.33,0-.64.47-.96,1.42-.96.2-.08.41-.17.61-.27.38-.18.7-.31.96-.38.54-.1.9-.27,1.09-.5.19-.23.29-.77.29-1.61,0-.13.04-.26.13-.4.09-.14.04-.29-.13-.44,0-.13-.01-.26-.04-.4-.03-.14-.06-.27-.12-.4-.05-.15-.1-.32-.15-.5v-3.07l.31-2.69v-.65c0-.15.02-.26.06-.31.04-.05.06-.15.06-.31v-4.26c0-.23-.13-.42-.38-.56-.26-.14-.45-.21-.58-.21h-1.07c-.49,0-.84-.2-1.06-.61-.22-.41-.33-.88-.33-1.42,0-.15.07-.29.21-.42.14-.13.29-.19.44-.19h2.03c.15,0,.39-.02.71-.06.32-.04.72-.06,1.21-.06h2.65Z"/>
      </g>
      <g>
        <path class="cls-1" d="M12.93,66.22c.56,0,.98.12,1.27.36.28.24.48.56.59.94.12.38.19.8.23,1.25.04.45.08.88.13,1.29v1.38c.15.28.35.66.59,1.13.24.47.36.95.36,1.44v.96c0,.08.06.31.19.69.13.38.27.81.44,1.27.17.46.31.9.44,1.32.13.42.19.71.19.86,0,.49.06,1.13.19,1.94.13.81.29,1.59.5,2.36.2.77.44,1.43.71,2,.27.56.56.84.86.84.36,0,.64.04.84.12.2.08.38.12.54.12.08,0,.21.01.4.04.19.03.4.08.61.15.22.08.4.19.56.33.15.14.23.33.23.56,0,.51-.18.87-.54,1.07-.36.2-.78.31-1.27.31l-2.57-.12h-3.84l-1.07.12c-.15,0-.4-.01-.75-.04-.35-.03-.52-.13-.52-.31,0-.36.16-.65.48-.88.32-.23.7-.42,1.13-.58.36-.13.66-.27.9-.42.24-.15.36-.41.36-.77,0-.08-.03-.27-.1-.58-.06-.31-.14-.63-.23-.98-.09-.35-.19-.65-.31-.92s-.22-.4-.33-.4c-.08-.26-.13-.54-.17-.84-.04-.31-.09-.58-.15-.83-.06-.24-.17-.43-.31-.56-.14-.13-.35-.17-.63-.12h-1.75c-.22,0-.44.01-.67.04-.23.03-.45.06-.67.1-.22.04-.36.1-.44.17-.33.15-.47.38-.4.67.06.29.1.61.1.94-.08.1-.19.3-.35.59-.15.29-.3.61-.44.94-.14.33-.26.64-.36.92-.1.28-.15.46-.15.54,0,.31.08.52.25.65.17.13.35.25.56.36.2.12.39.28.56.48.17.2.25.55.25,1.04,0,.15-.05.28-.15.36-.1.09-.22.15-.36.19-.14.04-.28.06-.42.08-.14.01-.25.02-.33.02,0,.08-.03.13-.08.15-.05.03-.12.04-.21.04s-.21-.06-.36-.19h-.4c-.17,0-.34-.01-.52-.04l-.69-.08c-.33,0-.6.04-.81.12-.21.08-.47.12-.81.12-.36,0-.61.02-.77.06-.15.04-.26.08-.33.12-.06.04-.11.07-.13.1-.03.03-.08.04-.15.04-.13,0-.35-.01-.67-.04-.32-.03-.65-.07-.98-.13-.33-.06-.62-.15-.86-.27-.24-.12-.36-.25-.36-.4,0-.49.15-.9.44-1.23.29-.33.68-.5,1.17-.5l.73-.19c.05,0,.15-.04.29-.13.14-.09.29-.2.44-.33.15-.13.31-.26.48-.4.17-.14.3-.25.4-.33.15-.64.43-1.34.83-2.09.4-.75.76-1.48,1.09-2.17.15-.43.35-.89.59-1.36.24-.47.47-.88.67-1.21.26-.49.47-.96.65-1.42.18-.46.35-.93.5-1.4.15-.47.32-.95.5-1.44.18-.49.38-.98.61-1.5.18-.38.32-.8.42-1.25.1-.45.2-.91.29-1.38.09-.47.2-.95.35-1.44.14-.49.33-.97.56-1.46.15-.13.32-.28.5-.46.18-.18.43-.35.77-.5h.65ZM12.47,73.24c-.18,0-.34.08-.48.23-.14.15-.26.33-.36.52-.1.19-.18.38-.23.58-.05.19-.08.33-.08.4v.52c0,.12-.01.22-.04.31-.03.09-.06.21-.1.36s-.1.4-.17.73v.31c0,.15.12.3.35.44.23.14.43.21.61.21h.36c.17,0,.33-.01.5-.04.17-.03.31-.08.44-.15.13-.08.19-.19.19-.35,0-.33-.09-.59-.27-.77-.18-.18-.27-.36-.27-.54v-1.69c0-.15-.04-.37-.13-.65-.09-.28-.2-.42-.33-.42Z"/>
        <path class="cls-1" d="M37.91,66.75c.51,0,.99.2,1.44.59.45.4.85.76,1.21,1.09.2.61.52,1.07.96,1.38.15.18.31.37.46.58.15.21.26.45.31.73.1,0,.2.11.31.33.1.22.19.47.27.77.08.29.14.57.19.83.05.26.08.42.08.5,0,.36-.06.75-.19,1.19-.13.44-.29.87-.48,1.3-.19.44-.4.85-.61,1.25-.22.4-.4.72-.56.98-.1.18-.24.32-.4.42-.17.1-.33.2-.48.29-.15.09-.29.21-.4.36-.12.15-.17.36-.17.61,0,.28.08.65.23,1.11.15.46.35.92.58,1.38.23.46.47.87.71,1.23.24.36.44.58.59.65.31.21.58.46.83.77.24.31.5.61.77.92.27.31.56.58.86.83.31.24.66.4,1.07.48.15.05.4.15.73.29.33.14.59.3.77.48.15.15.24.26.25.33.01.06,0,.2-.06.4-.08.28-.26.49-.56.61-.29.13-.61.21-.96.25-.35.04-.66.05-.94.04-.28-.01-.45-.03-.5-.06-.18-.15-.42-.23-.71-.23s-.53-.03-.71-.08c-.69-.41-1.18-.74-1.46-1-.28-.26-.61-.5-1-.73-.15-.08-.35-.21-.58-.4-.23-.19-.48-.42-.75-.67-.27-.26-.54-.52-.81-.81-.27-.28-.52-.54-.75-.77-.31-.38-.57-.75-.79-1.11-.22-.36-.41-.7-.58-1.02-.17-.32-.33-.61-.48-.88-.15-.27-.32-.48-.5-.63-.36-.2-.62-.4-.79-.58-.17-.18-.43-.27-.79-.27-.31,0-.54.1-.71.29-.17.19-.29.42-.38.67-.09.26-.15.52-.17.81-.03.28-.04.51-.04.69l.42,1.8v.77c0,.61.2,1.07.59,1.38.4.31.83.56,1.29.77.46.21.89.4,1.29.59.4.19.59.48.59.86,0,.18-.09.33-.27.46-.18.13-.35.19-.5.19h-1.38l-2.15-.31h-4.8c-.08,0-.33-.02-.75-.06-.42-.04-.87-.1-1.34-.19-.47-.09-.9-.22-1.29-.38-.38-.17-.58-.39-.58-.67,0-.08.04-.15.12-.23s.17-.15.27-.23c.1-.1.23-.19.38-.27.08,0,.19.01.35.04.15.03.31.05.46.08.18.03.37.05.58.08h.77c.51,0,.94-.15,1.29-.44.35-.29.52-.61.52-.94v-10.25l.31-2.76c-.08-.26-.13-.56-.15-.92-.03-.36-.07-.7-.13-1.02-.06-.32-.18-.61-.35-.86-.17-.26-.42-.42-.75-.5h-1.5c-.28,0-.56-.03-.84-.08-.28-.05-.54-.14-.79-.27-.24-.13-.44-.31-.59-.54-.15-.23-.23-.54-.23-.92,0-.08.06-.16.17-.25.12-.09.24-.17.36-.25.15-.1.33-.19.54-.27l6.49-.31h3.95c.08,0,.22-.01.42-.04.2-.03.41-.06.61-.12.26-.05.52-.1.81-.15h1.5ZM34.27,70.67c-.1.03-.22.05-.35.08-.13.05-.27.1-.42.13-.15.04-.32.12-.5.25-.18,0-.35.08-.52.25-.17.17-.25.43-.25.79v2.8c0,.21-.05.39-.15.56-.1.17-.15.33-.15.48l.15.08c.05.05.09.1.12.13.03.04.04.12.04.25-.08.26-.05.49.08.71.13.22.31.41.54.58.23.17.48.29.75.38.27.09.49.13.67.13.23-.1.46-.2.69-.31.2-.08.39-.15.56-.23.17-.08.31-.12.44-.12l.77.31c.33,0,.61-.13.84-.4.23-.27.42-.58.56-.92.14-.35.25-.68.33-1,.08-.32.14-.53.19-.63l-.23-1.07c0-.18-.02-.35-.06-.52-.04-.17-.16-.35-.36-.56,0-.15-.02-.38-.06-.69-.04-.31-.16-.54-.36-.69-.08,0-.26-.04-.56-.12-.29-.08-.61-.17-.96-.27-.35-.1-.69-.19-1.04-.27-.35-.08-.59-.12-.75-.12Z"/>
        <path class="cls-1" d="M69.99,66.41c.08,0,.16.1.25.29.09.19.17.42.25.67.08.26.14.51.19.77.05.26.08.44.08.54v2.76c0,.1,0,.29-.02.58-.01.28-.05.57-.12.86-.06.29-.17.56-.33.79-.15.23-.36.35-.61.35-.44,0-.75-.1-.94-.29-.19-.19-.33-.43-.42-.73-.09-.29-.16-.61-.21-.96-.05-.35-.14-.66-.27-.96-.13-.29-.33-.54-.59-.73-.27-.19-.67-.29-1.21-.29h-2.11c-.13,0-.27.01-.42.04-.15.03-.29.06-.42.12-.15.05-.31.1-.46.15-.54,0-.95.17-1.25.52-.29.35-.44.77-.44,1.29v1.84c0,.2,0,.39-.02.56-.01.17.06.33.21.48l-.19,1.5v6.22c0,.51.04.93.12,1.25.08.32.18.58.31.79.13.21.27.38.42.52.15.14.29.28.42.4.38.13.73.25,1.04.36.31.12.68.17,1.11.17.77.13,1.34.36,1.73.71.38.35.59.7.61,1.07.03.37-.12.72-.42,1.04-.31.32-.77.52-1.38.59-.23,0-.45-.04-.67-.12-.22-.08-.43-.14-.63-.19-.23-.03-.49-.04-.77-.04s-.57,0-.86-.02c-.29-.01-.58-.04-.84-.1-.27-.05-.51-.14-.71-.27h-3.65c-.15,0-.47.07-.94.21-.47.14-1,.21-1.59.21-.41,0-.78-.01-1.11-.04-.28-.03-.57-.04-.86-.06-.29-.01-.49-.02-.59-.02-.13,0-.23.05-.31.15-.08.1-.33.15-.77.15-.05-.03-.1-.08-.15-.15-.05-.05-.09-.11-.12-.17-.03-.06-.04-.16-.04-.29.1-.28.23-.56.38-.84.13-.23.27-.47.44-.73.17-.26.35-.49.56-.69.36-.13.69-.24,1-.35.26-.1.5-.19.75-.27.24-.08.4-.12.48-.12l1.84-.42c.18,0,.32-.12.42-.36.1-.24.18-.5.23-.79.05-.33.08-.73.08-1.19v-4.07c0-.1.05-.28.15-.54l.15-.31v-4.91c0-.2.02-.41.06-.61.04-.2.06-.4.06-.58,0-.08-.04-.19-.12-.35s-.18-.31-.31-.46c-.13-.15-.28-.29-.44-.4-.17-.12-.34-.17-.52-.17h-4.26c-.54,0-.95.1-1.25.29-.29.19-.52.44-.67.73-.15.29-.27.61-.35.96-.08.35-.17.67-.29.96-.12.29-.28.54-.48.73-.21.19-.51.29-.92.29-.38,0-.66-.15-.83-.44-.17-.29-.25-.61-.25-.94,0-.1.01-.26.04-.48.03-.22.06-.44.1-.67.04-.23.08-.45.12-.65.04-.2.06-.35.06-.42l.46-1.84c0-.08.02-.25.06-.52.04-.27.1-.56.19-.86.09-.31.2-.58.33-.81.13-.23.28-.35.46-.35.33,0,.59.06.79.19.19.13.4.27.63.42.15.13.31.23.48.31.17.08.39.12.67.12.15,0,.38-.03.69-.1.31-.06.54-.1.69-.1h.77c.08.05.17.08.27.1.1.01.22.03.35.06.13.03.27.04.42.04h5.79l1.04-.19,1.07.19c.54,0,1.09-.03,1.67-.1.58-.06,1.12-.1,1.63-.1h1.84c.46,0,.87-.06,1.23-.19.36-.13.67-.26.94-.4.27-.14.49-.27.65-.4.17-.13.29-.19.36-.19Z"/>
      </g>
    </g>
  </g>
</svg>