<?xml version="1.0" encoding="UTF-8"?>
<svg id="Layer_2" data-name="Layer 2" xmlns="http://www.w3.org/2000/svg" viewBox="0 0 203.55 84.85">
  <defs>
    <style>
      .cls-1 {
        fill: #283241;
      }
    </style>
  </defs>
  <g id="Layer_1-2" data-name="Layer 1">
    <g>
      <g>
        <path class="cls-1" d="M8.58.79c.53,0,.97.02,1.34.06.37.04.71.2,1.04.49.53.33.86.62,1,.88.14.26.38.54.7.82.28.81.71,1.31,1.28,1.49.57.18,1.1.48,1.58.88.49.41.96.9,1.43,1.49.47.59.94,1.21,1.43,1.86.49.65.95,1.28,1.4,1.89.45.61.89,1.12,1.34,1.52.61.69,1.13,1.41,1.55,2.16.43.75,1.1,1.37,2.04,1.86.24.2.71.67,1.4,1.4.69.73,1.45,1.51,2.28,2.34.83.83,1.63,1.57,2.4,2.22.77.65,1.38.97,1.83.97.28,0,.48-.06.58-.18.1-.12.15-.27.15-.46s-.03-.37-.09-.55c-.06-.18-.09-.33-.09-.46v-4.56c0-.37.11-.79.33-1.28.22-.49.33-1.07.33-1.76v-5.11c-.16-.12-.39-.32-.67-.61-.28-.28-.57-.58-.85-.88-.28-.3-.56-.58-.82-.82-.26-.24-.46-.37-.58-.37h-1.16c-.24,0-.53-.07-.85-.21-.33-.14-.63-.31-.91-.52-.28-.2-.52-.4-.7-.58s-.27-.31-.27-.4v-1.89c0-.4.09-.73.27-.97.18-.24.42-.42.7-.52.28-.1.59-.16.91-.18.32-.02.61-.03.85-.03h1.16c.28,0,.66.03,1.13.09.47.06.95.12,1.46.18.51.06.99.12,1.46.18.47.06.88.09,1.25.09h8.46c.81,0,1.57.18,2.28.55.71.37,1.07.97,1.07,1.83,0,.33-.02.6-.06.82-.04.22-.18.52-.43.88-.93.57-1.84.82-2.71.76-.87-.06-1.71-.09-2.53-.09l-1.7.49h-1.03c-.33,0-.6.23-.82.7-.22.47-.33.96-.33,1.49v9.31c0,.24.08.61.24,1.1s.24.85.24,1.1v3.41l-1.04,5.9c0,.24.05.57.15.97.1.41.22.82.37,1.25.14.43.26.83.37,1.22.1.39.15.7.15.94,0,.16-.01.45-.03.85-.02.41-.06.81-.12,1.22-.06.4-.16.76-.3,1.06-.14.3-.33.46-.58.46h-.82c-.39,0-.78-.02-1.19-.06-.41-.04-.76-.1-1.07-.18-.3-.08-.46-.18-.46-.3-.57-.57-1.04-1.26-1.43-2.07-.39-.81-.86-1.46-1.43-1.95-.45-.61-.87-1.12-1.28-1.52-.41-.41-.8-.79-1.19-1.16-.39-.37-.75-.75-1.1-1.16-.34-.41-.64-.89-.88-1.46-.45-1.01-1.14-1.99-2.07-2.92-.93-.93-1.92-1.87-2.95-2.8-1.04-.93-2.05-1.88-3.04-2.83-1-.95-1.79-1.94-2.4-2.95,0-.12-.06-.31-.18-.58-.12-.26-.29-.52-.49-.76-.2-.24-.44-.47-.7-.67-.26-.2-.54-.3-.82-.3-.77,0-1.16.61-1.16,1.83v6.94l.49,3.41c0,.81-.03,1.37-.09,1.67-.06.3-.09.76-.09,1.37,0,.77.23,1.35.7,1.73.47.39,1.04.68,1.73.88.69.2,1.43.36,2.22.46.79.1,1.53.23,2.22.4.69.16,1.27.42,1.73.76.47.35.7.84.7,1.49,0,.32-.1.52-.3.58s-.45.09-.73.09h-6.94l-3.89.55c-.33-.28-.73-.45-1.22-.49-.49-.04-.87-.06-1.16-.06h-1.16c-.85,0-1.48-.11-1.89-.33-.41-.22-.91-.33-1.52-.33H1.83l-.49.67H.12c0-.16-.01-.44-.03-.82-.02-.39-.03-.76-.03-1.13-.04-.45-.06-.91-.06-1.4,0-.32.18-.61.55-.85.37-.24.69-.37.97-.37h1.31c.22,0,.37,0,.43-.03.06-.02.1-.03.12-.03.02,0,.14,0,.37-.03.22-.02.61-.03,1.16-.03h2.53c.28,0,.53-.09.73-.27s.37-.4.49-.64c.12-.24.2-.5.24-.76.04-.26.06-.46.06-.58-.08-.16-.14-.32-.18-.49-.12-.24-.18-.53-.18-.85,0-.61-.03-1.1-.09-1.49-.06-.38-.14-.72-.24-1-.1-.28-.18-.54-.24-.76-.06-.22-.09-.5-.09-.82,0-.28.03-.63.09-1.03.06-.4.13-.77.21-1.1.12-.41.24-.81.37-1.22v-4.08c0-.24-.03-.53-.09-.85-.06-.32-.25-.65-.58-.97,0-.49.1-.79.3-.91.12-.08.24-.12.37-.12-.04-.16-.12-.39-.24-.67-.12-.28-.25-.57-.4-.85-.14-.28-.26-.55-.37-.79-.1-.24-.15-.43-.15-.55,0-.85-.33-1.5-.97-1.95-.65-.45-1.37-.87-2.16-1.28-.79-.4-1.51-.87-2.16-1.4-.65-.53-.97-1.3-.97-2.31.16-.41.32-.77.49-1.1.16-.28.33-.55.52-.79.18-.24.42-.37.7-.37h5.72Z"/>
        <path class="cls-1" d="M67.24.79l2.19.55h1.22c.53.16,1.01.33,1.46.49.41.16.79.31,1.16.46.37.14.61.27.73.4.61.33,1.31.6,2.1.82.79.22,1.45.62,1.98,1.19.32.28.66.77,1,1.46.34.69.68,1.18,1,1.46,1.38,1.18,2.26,2.3,2.65,3.38.38,1.08.58,2.04.58,2.89l-.18,4.02v1.7c0,.45-.17,1.12-.52,2.01-.34.89-.75,1.83-1.22,2.8-.47.97-.9,1.88-1.31,2.71-.41.83-.67,1.37-.79,1.61-.28.85-.78,1.55-1.49,2.1-.71.55-1.41.98-2.1,1.31-1.1.85-2.12,1.62-3.07,2.31-.95.69-2.02,1.03-3.19,1.03-.49,0-.96-.05-1.43-.15-.47-.1-1.11-.15-1.92-.15-.16,0-.36,0-.61.03-.24.02-.51.05-.79.09-.33.04-.65.06-.97.06h-1.03c-.33,0-.74-.06-1.25-.18s-.98-.28-1.43-.49c-.53-.2-1.1-.45-1.7-.73-1.09-.49-2.21-1.02-3.35-1.61-1.14-.59-2.05-1.57-2.74-2.95-.85-2.03-1.63-4.14-2.34-6.33-.71-2.19-1.07-4.3-1.07-6.33,0-.41.04-.77.12-1.1.08-.32.18-.66.3-1,.12-.34.26-.7.43-1.06.16-.36.32-.83.49-1.4,0-.61.09-1.18.27-1.7.18-.53.44-1.1.76-1.7,0-.12.18-.51.55-1.16.37-.65.81-1.34,1.34-2.07.53-.73,1.08-1.39,1.67-1.98.59-.59,1.08-.88,1.49-.88l1.7-.67c.53,0,1-.02,1.43-.06.43-.04.86-.18,1.31-.43.45-.2.87-.37,1.28-.52.41-.14.81-.21,1.22-.21h4.08ZM62.01,5.54c-.69,0-1.38.47-2.07,1.4-.69.93-1.31,2-1.86,3.19-.55,1.2-.99,2.34-1.34,3.44-.34,1.1-.52,1.81-.52,2.13v4.75c0,.57.35,1.43,1.06,2.59.71,1.16,1.59,2.31,2.65,3.47,1.05,1.16,2.18,2.18,3.38,3.07,1.2.89,2.28,1.34,3.26,1.34h1.16c.85,0,1.77-.22,2.77-.67.99-.45,1.91-1.05,2.74-1.83.83-.77,1.53-1.67,2.1-2.71.57-1.03.85-2.12.85-3.26v-5.72c0-.85-.11-1.53-.33-2.04-.22-.51-.52-.99-.88-1.46-.37-.47-.79-.99-1.28-1.58-.49-.59-1-1.39-1.52-2.4-.33-.24-.68-.55-1.07-.91-.39-.37-.79-.71-1.22-1.03-.43-.32-.87-.61-1.34-.85-.47-.24-.9-.37-1.31-.37h-1.16c-.33,0-.71-.02-1.16-.06-.45-.04-.89-.1-1.34-.18-.49-.08-1.01-.18-1.58-.3Z"/>
        <path class="cls-1" d="M109.05,0c.81,0,1.57.31,2.28.94.71.63,1.35,1.21,1.92,1.73.32.97.83,1.7,1.52,2.19.24.28.49.59.73.91.24.33.41.71.49,1.16.16,0,.32.17.49.52.16.35.3.75.43,1.22.12.47.22.9.3,1.31.08.41.12.67.12.79,0,.57-.1,1.2-.3,1.89-.2.69-.46,1.38-.76,2.07-.3.69-.63,1.35-.97,1.98-.35.63-.64,1.15-.88,1.55-.16.28-.38.51-.64.67-.26.16-.52.31-.76.46-.24.14-.46.33-.64.58-.18.24-.27.57-.27.97,0,.45.12,1.03.37,1.76.24.73.55,1.46.91,2.19.37.73.74,1.38,1.13,1.95.38.57.7.91.94,1.03.49.33.92.73,1.31,1.22.39.49.79.97,1.22,1.46.43.49.88.92,1.37,1.31.49.39,1.05.64,1.7.76.24.08.63.23,1.16.46.53.22.93.48,1.22.76.24.24.37.42.4.52.02.1-.01.31-.09.64-.12.45-.42.77-.88.97-.47.2-.97.33-1.52.4s-1.04.08-1.49.06c-.45-.02-.71-.05-.79-.09-.28-.24-.66-.37-1.13-.37s-.84-.04-1.13-.12c-1.09-.65-1.87-1.18-2.31-1.58-.45-.4-.97-.79-1.58-1.16-.24-.12-.55-.33-.91-.64s-.76-.66-1.19-1.06c-.43-.41-.85-.83-1.28-1.28-.43-.45-.82-.85-1.19-1.22-.49-.61-.9-1.2-1.25-1.76-.35-.57-.65-1.1-.91-1.61-.26-.51-.52-.97-.76-1.4-.24-.43-.51-.76-.79-1-.57-.32-.98-.63-1.25-.91-.26-.28-.68-.43-1.25-.43-.49,0-.86.15-1.13.46s-.47.66-.61,1.06c-.14.41-.23.83-.27,1.28-.04.45-.06.81-.06,1.1l.67,2.86v1.22c0,.97.31,1.7.94,2.19.63.49,1.31.89,2.04,1.22.73.33,1.41.64,2.04.94.63.3.94.76.94,1.37,0,.28-.14.53-.43.73-.28.2-.55.3-.79.3h-2.19l-3.41-.49h-7.61c-.12,0-.52-.03-1.19-.09-.67-.06-1.38-.16-2.13-.3-.75-.14-1.43-.35-2.04-.61-.61-.26-.91-.62-.91-1.06,0-.12.06-.24.18-.36.12-.12.26-.24.43-.37.16-.16.37-.3.61-.43.12,0,.3.02.55.06.24.04.49.08.73.12.28.04.59.08.91.12h1.22c.81,0,1.49-.23,2.04-.7.55-.47.82-.96.82-1.49V14.67l.49-4.38c-.12-.41-.2-.89-.24-1.46-.04-.57-.11-1.1-.21-1.61-.1-.51-.28-.96-.55-1.37-.26-.41-.66-.67-1.19-.79h-2.37c-.45,0-.89-.04-1.34-.12-.45-.08-.86-.22-1.25-.43-.39-.2-.7-.49-.94-.85-.24-.36-.37-.85-.37-1.46,0-.12.09-.25.27-.4.18-.14.37-.27.58-.4.24-.16.53-.3.85-.43l10.28-.49h6.27c.12,0,.34-.02.67-.06.32-.04.65-.1.97-.18.41-.08.83-.16,1.28-.24h2.37ZM103.27,6.21c-.16.04-.34.08-.55.12-.2.08-.43.15-.67.21-.24.06-.51.19-.79.4-.29,0-.56.13-.82.4-.26.26-.4.68-.4,1.25v4.44c0,.33-.08.62-.24.88-.16.26-.24.52-.24.76l.24.12c.08.08.14.15.18.21.04.06.06.19.06.4-.12.41-.08.78.12,1.13.2.35.49.65.85.91.37.26.76.47,1.19.61.43.14.78.21,1.07.21.37-.16.73-.32,1.1-.49.32-.12.62-.24.88-.37.26-.12.5-.18.7-.18l1.22.49c.53,0,.97-.21,1.34-.64.37-.43.66-.91.88-1.46.22-.55.4-1.07.52-1.58.12-.51.22-.84.3-1l-.37-1.7c0-.28-.03-.56-.09-.82-.06-.26-.25-.56-.58-.88,0-.24-.03-.61-.09-1.1s-.25-.85-.58-1.1c-.12,0-.42-.06-.88-.18-.47-.12-.97-.26-1.52-.43-.55-.16-1.1-.3-1.64-.43-.55-.12-.94-.18-1.19-.18Z"/>
        <path class="cls-1" d="M145.68,1.34c2.11,0,4.16.35,6.15,1.03,1.99.69,3.76,1.67,5.32,2.95,1.56,1.28,2.81,2.84,3.74,4.69.93,1.85,1.4,3.9,1.4,6.18l-.49,2.92v4.02c0,.28-.12.67-.37,1.16s-.37.89-.37,1.22c-.24.53-.47,1.06-.67,1.58-.2.45-.43.92-.67,1.43-.24.51-.53.98-.85,1.43-.16.33-.44.69-.82,1.1-.39.41-.83.79-1.34,1.16-.51.37-1.03.67-1.55.91-.53.24-1.04.36-1.52.36h-1.16c-.45,0-.89.06-1.34.18s-.88.25-1.31.4c-.43.14-.8.27-1.12.4-.33.12-.55.18-.67.18h-1.64c-.69,0-1.29.09-1.8.27s-.94.27-1.31.27h-8.46c-.24.12-.47.24-.67.37-.41.2-.79.3-1.16.3l-1.7-.67h-1.7l-1.64.67c-.28,0-.66-.13-1.13-.4-.47-.26-.84-.54-1.13-.82-.16,0-.41,0-.73-.03-.33-.02-.64-.08-.94-.18-.3-.1-.58-.26-.82-.49-.24-.22-.37-.54-.37-.94,0-.32.14-.63.43-.91s.61-.53.97-.73c.45-.24.93-.49,1.46-.73h1.7l2.86-.67c.32.12.63.24.91.37.53.2.97.3,1.34.3.41,0,.72-.13.94-.4.22-.26.38-.58.49-.94.1-.37.16-.74.18-1.13.02-.39.03-.7.03-.94v-3.71c0-.16-.08-.41-.24-.73-.08-.16-.16-.3-.24-.43v-3.77c0-.32.08-.73.24-1.22s.24-1.03.24-1.64v-5.23c0-1.1-.18-2.02-.55-2.77-.37-.75-1.14-1.13-2.31-1.13-.24,0-.45.03-.61.09-.16.06-.31.12-.46.18-.14.06-.29.11-.46.15-.16.04-.39.06-.67.06l-1.7-.49h-1.16c-.28,0-.64-.13-1.06-.4-.43-.26-.64-.52-.64-.76,0-.61.33-1.14,1-1.58.67-.45,1.43-.82,2.28-1.13.85-.3,1.68-.53,2.5-.67.81-.14,1.36-.21,1.64-.21h1.04c.32,0,.63.11.91.33.28.22.59.33.91.33.32-.08.63-.18.91-.3.24-.08.5-.16.76-.24.26-.08.5-.12.7-.12h3.41c.81-.08,1.56-.16,2.25-.24.57-.08,1.12-.14,1.67-.18.55-.04.92-.06,1.13-.06ZM142.82,7.24c-.12,0-.37.08-.73.24-.36.16-.74.39-1.12.67-.39.28-.73.59-1.04.91-.3.33-.46.63-.46.91.08.08.16.18.24.3.16.24.24.53.24.85v15.4c.16.33.26.67.3,1.03.04.36.09.71.15,1.03.06.33.17.61.33.85.16.24.47.41.91.49h.67c.12,0,.33-.02.64-.06.3-.04.63-.08.97-.12.34-.04.68-.08,1-.12.32-.04.57-.06.73-.06,1.74-.04,3.21-.44,4.41-1.19,1.2-.75,2.18-1.69,2.95-2.83.77-1.14,1.34-2.35,1.7-3.65.37-1.3.57-2.51.61-3.65.04-.89-.16-1.97-.61-3.23-.45-1.26-1-2.42-1.64-3.5-.65-1.07-1.32-1.91-2.01-2.49-.69-.59-1.24-.68-1.64-.27-.24-.16-.47-.32-.67-.49-.2-.12-.4-.24-.58-.37s-.33-.18-.46-.18h-.55l-4.38-.49Z"/>
        <path class="cls-1" d="M175.01.67c.12,0,.32.03.61.09.28.06.59.12.91.18.32.06.64.11.94.15.3.04.54.06.7.06.08,0,.22.08.43.24.2.16.4.37.58.61.18.24.34.52.49.82.14.3.21.6.21.88,0,.16-.24.3-.73.43-.49.12-1.03.24-1.64.37s-1.16.26-1.64.43c-.49.16-.73.37-.73.61v4.26c.08.33.18.63.3.91.08.24.16.49.24.73.08.24.12.43.12.55l-.67,2.86c0,.12.03.34.09.67.06.33.14.67.24,1.03s.18.71.24,1.03c.06.33.09.55.09.67l.55,3.04c0,.85-.09,1.64-.27,2.37-.18.73-.27,1.24-.27,1.52v1.7c0,.24-.11.46-.33.64s-.33.7-.33,1.55c0,.16.06.36.18.58.12.22.27.43.46.61.18.18.38.33.58.46.2.12.37.18.49.18l1.34.37c1.14.53,1.7,1.38,1.7,2.56,0,.49-.33.88-1,1.19s-1.35.46-2.04.46h-3.35l-2.25-.67c-.24,0-.59.06-1.04.18s-.91.26-1.4.43c-.49.16-.93.3-1.34.43-.41.12-.67.18-.79.18-.24,0-.58-.13-1-.4-.43-.26-.64-.54-.64-.82,0-.45.23-.84.7-1.19.47-.34.97-.69,1.52-1.03.55-.34,1.01-.72,1.4-1.13.39-.41.52-.91.4-1.52-.33-.61-.41-1.06-.24-1.37s.24-.6.24-.88v-14.54l-.67-1.64c.08-.45.18-.87.3-1.28.08-.32.16-.64.24-.94.08-.3.12-.54.12-.7,0-.81-.06-1.45-.18-1.92-.12-.47-.28-.84-.49-1.13-.2-.2-.43-.33-.67-.4-.24-.06-.5-.1-.76-.12-.26-.02-.54-.05-.82-.09-.28-.04-.55-.12-.79-.24-.24-.16-.45-.43-.61-.79s-.24-.93-.24-1.7c0-.16.02-.32.06-.49.04-.12.09-.24.15-.37.06-.12.17-.18.33-.18h3.35c.16,0,.35.02.58.06.22.04.44.1.64.18.2.08.43.16.67.24.24,0,.55-.02.91-.06.37-.04.71-.1,1.04-.18.4-.08.83-.16,1.28-.24h.67c.16,0,.37-.08.61-.24l.24-.24Z"/>
        <path class="cls-1" d="M200.51,0c.61,0,1.06.13,1.37.4.3.26.54.6.7,1,.16.41.25.82.27,1.25.02.43.03.78.03,1.06v1.16c-.24.93-.66,1.79-1.25,2.56-.59.77-1.35,1.16-2.28,1.16-.61,0-1.26-.19-1.95-.58-.69-.39-1.46-.58-2.31-.58s-1.76.31-2.62.94c-.85.63-1.62,1.37-2.31,2.22-.69.85-1.25,1.71-1.67,2.59-.43.87-.64,1.55-.64,2.04v4.02c0,.49.08,1.32.24,2.49.16,1.18.43,2.38.79,3.62.37,1.24.84,2.33,1.43,3.29.59.95,1.33,1.43,2.22,1.43l1.22-.49c.93,0,1.8-.11,2.62-.33.81-.22,1.56-.68,2.25-1.37.89-1.05,1.74-1.89,2.56-2.5.24-.2.53-.34.85-.43.32-.08.61-.12.85-.12.08.08.18.2.3.37.24.33.36.61.36.85,0,.89-.33,1.92-.97,3.07-.65,1.16-1.43,2.25-2.34,3.29-.91,1.03-1.85,1.92-2.8,2.65-.95.73-1.73,1.1-2.34,1.1h-.49c-.57.12-1.09.24-1.58.37-.45.08-.87.16-1.28.24-.41.08-.69.12-.85.12-.33,0-.78-.14-1.37-.43-.59-.28-1.21-.62-1.86-1-.65-.39-1.24-.79-1.76-1.22-.53-.43-.85-.8-.97-1.13-.16-.12-.38-.52-.64-1.19s-.53-1.42-.79-2.25c-.26-.83-.49-1.65-.67-2.46-.18-.81-.27-1.42-.27-1.83v-1.89c-.12-.24-.24-.47-.37-.67-.2-.41-.3-.75-.3-1.03.08-.49.18-.95.3-1.4.08-.37.16-.75.24-1.16.08-.41.12-.73.12-.97v-1.34c0-.12-.04-.27-.12-.46-.08-.18-.16-.37-.24-.58-.12-.2-.22-.43-.3-.67l.67-1.89v-1.16c.32-.69.63-1.32.91-1.89.24-.49.5-.95.76-1.4.26-.45.5-.77.7-.97.12-.77.43-1.46.91-2.07.49-.61,1.07-1.18,1.73-1.7.67-.53,1.39-1.01,2.16-1.46.77-.45,1.54-.89,2.31-1.34.45-.08.89-.18,1.34-.3.32-.08.66-.16,1-.24.34-.08.58-.12.7-.12h3.53l1.89-.67Z"/>
      </g>
      <g>
        <path class="cls-1" d="M5.6,52.72c0-.65.11-1.21.33-1.67.22-.47.53-.88.91-1.25.38-.37.82-.71,1.31-1.03.49-.32.99-.65,1.52-.97,1.1-.69,2.1-1.26,3.01-1.7.91-.45,2.04-.67,3.38-.67.85,0,1.6.01,2.25.03.65.02,1.32.29,2.01.82.57.45.96.93,1.19,1.46.22.53.33,1.18.33,1.95,0,.41-.07.83-.21,1.28-.14.45-.35.85-.61,1.22-.26.36-.59.66-.97.88-.39.22-.8.33-1.25.33s-.8-.11-1.06-.33c-.26-.22-.51-.46-.73-.7-.22-.24-.47-.48-.73-.7-.26-.22-.6-.33-1-.33-.53,0-1.06.05-1.61.15-.55.1-1.04.27-1.49.52-.45.24-.81.55-1.09.91-.29.37-.43.81-.43,1.34,0,.49.16.83.49,1.03.32.2.72.35,1.19.43.47.08.96.16,1.49.24.53.08,1.01.24,1.46.49,1.1.57,2.04,1.08,2.83,1.52.79.45,1.69,1.01,2.71,1.7.37.2.69.38.97.52.28.14.56.27.82.4.26.12.54.26.82.43.28.16.61.39.97.67,1.18.93,2.12,1.88,2.83,2.83.71.95,1.06,2.2,1.06,3.74v1.4c0,.49.08.92.24,1.31.16.39.24.84.24,1.37,0,.85-.17,1.54-.52,2.07-.34.53-.68,1.14-1,1.83-.08.33-.08.6,0,.82.08.22.02.46-.18.7-.16.53-.43.87-.79,1.03-.37.16-.71.45-1.03.85-.37.33-.71.61-1.04.85-.33.24-.65.48-.97.7-.33.22-.66.44-1,.64-.34.2-.76.43-1.25.67-.77.45-1.46.76-2.07.94-.61.18-1.32.38-2.13.58-.28.08-.53.21-.73.4-.2.18-.47.27-.79.27-.37,0-.65-.03-.85-.09-.2-.06-.43-.09-.67-.09-.61,0-1.09.06-1.43.18-.34.12-.78.18-1.31.18-.33,0-.58-.07-.76-.21-.18-.14-.44-.25-.76-.33-.45-.16-.84-.23-1.19-.21-.34.02-.74-.01-1.19-.09-.45,0-.81-.13-1.09-.4-.29-.26-.65-.54-1.1-.82-.45-.24-.87-.42-1.28-.52-.41-.1-.83-.38-1.28-.82-.45-.24-.69-.56-.73-.94-.04-.38-.18-.8-.43-1.25-.33-.69-.61-1.23-.85-1.61-.24-.39-.36-.98-.36-1.8,0-1.18.45-2.2,1.34-3.07.89-.87,1.97-1.31,3.23-1.31.77,0,1.5.17,2.19.52.69.35,1.04.86,1.04,1.55,0,.24-.03.43-.09.55-.06.12-.09.26-.09.43,0,.28.06.51.18.67.12.16.18.34.18.55,0,.08-.03.19-.09.33-.06.14-.09.25-.09.33,0,.61.16,1.13.49,1.55.32.43.74.79,1.25,1.1.51.3,1.08.53,1.73.67.65.14,1.3.21,1.95.21,1.3,0,2.49-.3,3.56-.91,1.07-.61,2.04-1.42,2.89-2.43.49-.53.89-1.07,1.22-1.64.32-.57.49-1.28.49-2.13,0-.49-.12-.94-.36-1.37-.24-.43-.37-.86-.37-1.31,0-.2.03-.31.09-.33.06-.02.09-.07.09-.15,0-.65-.17-1.19-.52-1.61-.34-.43-.78-.8-1.31-1.13-.53-.32-1.11-.63-1.73-.91-.63-.28-1.25-.59-1.86-.91-.16-.08-.29-.22-.4-.43-.1-.2-.25-.34-.46-.43-.41-.2-.81-.31-1.22-.33-.41-.02-.79-.19-1.16-.52-.33-.2-.55-.42-.67-.64-.12-.22-.35-.46-.67-.7-.45-.2-.84-.31-1.19-.33-.34-.02-.74-.19-1.19-.52-.24-.28-.46-.53-.64-.73-.18-.2-.36-.47-.52-.79-.33-.41-.72-.73-1.19-.97-.47-.24-.7-.67-.7-1.28v-1.52c0-.24-.02-.49-.06-.73-.04-.24-.06-.51-.06-.79,0-.16.02-.29.06-.4.04-.1.06-.23.06-.4,0-.2.03-.37.09-.52.06-.14.09-.25.09-.33Z"/>
        <path class="cls-1" d="M48.07,48.28c.57,0,1.1.16,1.61.49.51.33.76.79.76,1.4v1.16c-.45.33-.87.61-1.28.85-.33.2-.65.4-.97.58-.33.18-.55.27-.67.27h-1.83c-.85,0-1.52.24-2.01.73-.49.49-.73,1.16-.73,2.01v1.83c0,1.1-.13,2.29-.4,3.59-.26,1.3-.52,2.54-.76,3.71v9.13c0,.12.03.33.09.64s.16.61.3.91c.14.3.31.57.52.79.2.22.47.33.79.33h5.23c.12,0,.46-.12,1-.37.55-.24,1.15-.53,1.8-.85.65-.32,1.29-.67,1.92-1.03.63-.37,1.08-.67,1.37-.91.32-.28.65-.56.97-.82.32-.26.63-.4.91-.4.24-.57.42-.9.52-1,.1-.1.31-.15.64-.15.24,0,.59.13,1.04.4.45.26.67.52.67.76,0,.12-.17.6-.52,1.43-.34.83-.76,1.76-1.25,2.8-.49,1.03-1.01,2.03-1.58,2.98-.57.95-1.1,1.59-1.58,1.92-.12.16-.48.27-1.07.33-.59.06-1.21.11-1.86.15-.73.04-1.56.06-2.5.06h-2.86c-.85,0-1.7-.08-2.56-.24s-1.42-.14-1.7.06l-.79.18-2.92.67c-.12,0-.38-.03-.76-.09-.39-.06-.8-.14-1.25-.24-.45-.1-.86-.18-1.25-.24-.39-.06-.64-.09-.76-.09-.33,0-.63.04-.91.12-.28.08-.53.16-.73.24-.24.12-.49.22-.73.3-.45,0-.78-.1-1-.3-.22-.2-.39-.45-.49-.73s-.16-.57-.18-.85c-.02-.28-.03-.51-.03-.67,0-.85.27-1.38.82-1.58.55-.2,1.15-.37,1.79-.52.65-.14,1.25-.39,1.79-.73.55-.34.82-1.08.82-2.22v-5.11l.49-4.56v-2.19c0-.16.02-.48.06-.94.04-.47.1-.96.18-1.49.08-.61.18-1.26.3-1.95,0-.32-.09-.63-.27-.91-.18-.28-.27-.55-.27-.79v-.67c0-1.14-.17-1.92-.52-2.34-.34-.43-.73-.75-1.16-.97-.43-.22-.81-.48-1.16-.76-.34-.28-.52-.85-.52-1.7,0-.41.09-.76.27-1.06s.4-.56.64-.76c.24-.2.49-.34.73-.43.24-.08.43-.12.55-.12h13.21Z"/>
        <path class="cls-1" d="M82.09,45.78c.89,0,1.56.19,2.01.58.45.39.76.88.94,1.49s.3,1.27.37,1.98c.06.71.13,1.39.21,2.04v2.19c.24.45.56,1.04.94,1.8.38.75.58,1.51.58,2.28v1.52c0,.12.1.49.3,1.1.2.61.44,1.28.7,2.01.26.73.5,1.43.7,2.1s.3,1.13.3,1.37c0,.77.1,1.8.3,3.07s.47,2.53.79,3.74c.32,1.22.7,2.27,1.13,3.16.43.89.88,1.34,1.37,1.34.57,0,1.01.06,1.34.18.32.12.61.18.85.18.12,0,.33.02.64.06.3.04.63.12.97.24.34.12.64.29.88.52.24.22.37.52.37.88,0,.81-.28,1.38-.85,1.7-.57.32-1.24.49-2.01.49l-4.08-.18h-6.09l-1.7.18c-.24,0-.64-.02-1.19-.06-.55-.04-.82-.2-.82-.49,0-.57.25-1.03.76-1.4.51-.37,1.1-.67,1.79-.91.57-.2,1.04-.43,1.43-.67.38-.24.58-.65.58-1.22,0-.12-.05-.43-.15-.91-.1-.49-.22-1-.37-1.55-.14-.55-.3-1.03-.49-1.46-.18-.43-.36-.64-.52-.64-.12-.41-.21-.85-.27-1.34-.06-.49-.14-.92-.24-1.31-.1-.39-.26-.68-.49-.88-.22-.2-.56-.26-1-.18h-2.77c-.34,0-.7.02-1.06.06-.37.04-.72.09-1.07.15s-.58.15-.7.27c-.53.24-.74.6-.64,1.06.1.47.15.96.15,1.49-.12.16-.3.48-.55.94-.24.47-.48.96-.7,1.49-.22.53-.42,1.01-.58,1.46-.16.45-.24.73-.24.85,0,.49.13.83.4,1.03.26.2.56.4.88.58.32.18.62.44.88.76.26.33.4.87.4,1.64,0,.24-.08.44-.24.58-.16.14-.36.24-.58.3-.22.06-.45.1-.67.12-.22.02-.4.03-.52.03,0,.12-.04.2-.12.24-.08.04-.19.06-.33.06s-.33-.1-.58-.3h-.64c-.26,0-.54-.02-.82-.06l-1.09-.12c-.53,0-.95.06-1.28.18-.33.12-.75.18-1.28.18-.57,0-.97.03-1.22.09-.24.06-.42.12-.52.18-.1.06-.17.11-.21.15-.04.04-.12.06-.24.06-.2,0-.56-.02-1.06-.06-.51-.04-1.03-.11-1.55-.21-.53-.1-.98-.24-1.37-.43-.39-.18-.58-.4-.58-.64,0-.77.23-1.42.7-1.95.47-.53,1.08-.79,1.86-.79l1.16-.3c.08,0,.23-.07.46-.21.22-.14.46-.31.7-.52.24-.2.5-.42.76-.64.26-.22.48-.4.64-.52.24-1.01.68-2.12,1.31-3.32.63-1.2,1.21-2.34,1.73-3.44.24-.69.56-1.41.94-2.16.38-.75.74-1.39,1.06-1.92.41-.77.75-1.52,1.03-2.25.28-.73.55-1.47.79-2.22.24-.75.51-1.51.79-2.28.28-.77.61-1.56.97-2.37.28-.61.51-1.27.67-1.98.16-.71.31-1.44.46-2.19.14-.75.32-1.51.55-2.28.22-.77.52-1.54.88-2.31.24-.2.51-.45.79-.73s.69-.55,1.22-.79h1.03ZM81.36,56.92c-.28,0-.54.12-.76.36-.22.24-.42.52-.58.82-.16.3-.28.61-.37.91-.08.3-.12.52-.12.64v.82c0,.18-.02.35-.06.49-.04.14-.09.33-.15.58-.06.24-.15.63-.27,1.16v.49c0,.24.18.48.55.7.37.22.69.33.97.33h.58c.26,0,.53-.02.79-.06.26-.04.5-.12.7-.24.2-.12.3-.3.3-.55,0-.53-.14-.93-.43-1.22-.28-.28-.43-.57-.43-.85v-2.68c0-.24-.07-.59-.21-1.03-.14-.45-.31-.67-.52-.67Z"/>
        <path class="cls-1" d="M107.1,47.43c.53,0,.97.02,1.34.06.37.04.71.2,1.04.49.53.33.86.62,1,.88.14.26.38.54.7.82.28.81.71,1.31,1.28,1.49.57.18,1.1.48,1.58.88.49.41.96.9,1.43,1.49.47.59.94,1.21,1.43,1.86.49.65.95,1.28,1.4,1.89.45.61.89,1.12,1.34,1.52.61.69,1.13,1.41,1.55,2.16.43.75,1.1,1.37,2.04,1.86.24.2.71.67,1.4,1.4.69.73,1.45,1.51,2.28,2.34.83.83,1.63,1.57,2.4,2.22.77.65,1.38.97,1.83.97.28,0,.48-.06.58-.18.1-.12.15-.27.15-.46s-.03-.37-.09-.55c-.06-.18-.09-.33-.09-.46v-4.56c0-.37.11-.79.33-1.28.22-.49.33-1.07.33-1.76v-5.11c-.16-.12-.39-.32-.67-.61-.28-.28-.57-.58-.85-.88-.28-.3-.56-.58-.82-.82-.26-.24-.46-.37-.58-.37h-1.16c-.24,0-.53-.07-.85-.21-.33-.14-.63-.31-.91-.52-.28-.2-.52-.4-.7-.58s-.27-.31-.27-.4v-1.89c0-.4.09-.73.27-.97.18-.24.42-.42.7-.52.28-.1.59-.16.91-.18.32-.02.61-.03.85-.03h1.16c.28,0,.66.03,1.13.09.47.06.95.12,1.46.18.51.06.99.12,1.46.18.47.06.88.09,1.25.09h8.46c.81,0,1.57.18,2.28.55.71.37,1.07.97,1.07,1.83,0,.33-.02.6-.06.82-.04.22-.18.52-.43.88-.93.57-1.84.82-2.71.76-.87-.06-1.71-.09-2.53-.09l-1.7.49h-1.03c-.33,0-.6.23-.82.7-.22.47-.33.96-.33,1.49v9.31c0,.24.08.61.24,1.1s.24.85.24,1.1v3.41l-1.04,5.9c0,.24.05.57.15.97.1.41.22.82.37,1.25.14.43.26.83.37,1.22.1.39.15.7.15.94,0,.16-.01.45-.03.85-.02.41-.06.81-.12,1.22-.06.4-.16.76-.3,1.06-.14.3-.33.46-.58.46h-.82c-.39,0-.78-.02-1.19-.06-.41-.04-.76-.1-1.07-.18-.3-.08-.46-.18-.46-.3-.57-.57-1.04-1.26-1.43-2.07-.39-.81-.86-1.46-1.43-1.95-.45-.61-.87-1.12-1.28-1.52-.41-.41-.8-.79-1.19-1.16-.39-.37-.75-.75-1.1-1.16-.34-.41-.64-.89-.88-1.46-.45-1.01-1.14-1.99-2.07-2.92-.93-.93-1.92-1.87-2.95-2.8-1.04-.93-2.05-1.88-3.04-2.83-1-.95-1.79-1.94-2.4-2.95,0-.12-.06-.31-.18-.58-.12-.26-.29-.52-.49-.76-.2-.24-.44-.47-.7-.67-.26-.2-.54-.3-.82-.3-.77,0-1.16.61-1.16,1.83v6.94l.49,3.41c0,.81-.03,1.37-.09,1.67-.06.3-.09.76-.09,1.37,0,.77.23,1.35.7,1.73.47.39,1.04.68,1.73.88.69.2,1.43.36,2.22.46.79.1,1.53.23,2.22.4.69.16,1.27.42,1.73.76.47.35.7.84.7,1.49,0,.32-.1.52-.3.58s-.45.09-.73.09h-6.94l-3.89.55c-.33-.28-.73-.45-1.22-.49-.49-.04-.87-.06-1.16-.06h-1.16c-.85,0-1.48-.11-1.89-.33-.41-.22-.91-.33-1.52-.33h-2.19l-.49.67h-1.22c0-.16-.01-.44-.03-.82-.02-.39-.03-.76-.03-1.13-.04-.45-.06-.91-.06-1.4,0-.32.18-.61.55-.85.37-.24.69-.37.97-.37h1.31c.22,0,.37,0,.43-.03.06-.02.1-.03.12-.03.02,0,.14,0,.37-.03.22-.02.61-.03,1.16-.03h2.53c.28,0,.53-.09.73-.27s.37-.4.49-.64c.12-.24.2-.5.24-.76.04-.26.06-.46.06-.58-.08-.16-.14-.32-.18-.49-.12-.24-.18-.53-.18-.85,0-.61-.03-1.1-.09-1.49-.06-.38-.14-.72-.24-1-.1-.28-.18-.54-.24-.76-.06-.22-.09-.5-.09-.82,0-.28.03-.63.09-1.03.06-.4.13-.77.21-1.1.12-.41.24-.81.37-1.22v-4.08c0-.24-.03-.53-.09-.85-.06-.32-.25-.65-.58-.97,0-.49.1-.79.3-.91.12-.08.24-.12.37-.12-.04-.16-.12-.39-.24-.67-.12-.28-.25-.57-.4-.85-.14-.28-.26-.55-.37-.79-.1-.24-.15-.43-.15-.55,0-.85-.33-1.5-.97-1.95-.65-.45-1.37-.87-2.16-1.28-.79-.4-1.51-.87-2.16-1.4-.65-.53-.97-1.3-.97-2.31.16-.41.32-.77.49-1.1.16-.28.33-.55.52-.79.18-.24.42-.37.7-.37h5.72Z"/>
        <path class="cls-1" d="M170.69,47.3h2.86c.85,0,1.57.36,2.16,1.06.59.71,1.05,1.51,1.4,2.4.34.89.6,1.73.76,2.53.16.79.24,1.27.24,1.43,0,.33.02.58.06.76.04.18.1.36.18.52.08.16.16.3.24.43,0,.12-.02.26-.06.43-.08.28-.22.53-.43.73,0,.28-.02.56-.06.82-.04.26-.18.4-.43.4-.2,0-.53-.23-.97-.7-.45-.47-.91-.98-1.4-1.55-.57-.69-1.2-1.46-1.89-2.31-.45-.24-1.04-.51-1.8-.79-.75-.28-1.47-.55-2.16-.79-.85-.28-1.72-.55-2.62-.79-1.3,0-2.59.24-3.86.73-1.28.49-2.43,1.2-3.47,2.13-1.03.93-1.91,2.07-2.62,3.41s-1.12,2.86-1.25,4.56c0,.81-.08,1.46-.24,1.95-.16.49-.24,1.01-.24,1.58s.02,1.05.06,1.43c.04.39.18.86.43,1.43.28.85.69,1.76,1.22,2.74s1.15,1.88,1.86,2.71c.71.83,1.51,1.52,2.4,2.07.89.55,1.85.82,2.86.82l2.19-.73c.57,0,1.19-.21,1.86-.64.67-.43,1-1.04,1-1.86v-1.22c-.08-.49-.18-.98-.3-1.49-.12-.51-.3-1.02-.55-1.55-.33-.57-.72-1.15-1.19-1.73-.47-.59-.86-.96-1.19-1.13-.57-.2-.85-.49-.85-.85,0-.16.09-.29.27-.4.18-.1.4-.17.64-.21.28-.04.61-.06.97-.06h6.75c.28,0,.52-.02.7-.06.18-.04.38-.09.58-.15.2-.06.47-.12.79-.18.32-.06.77-.09,1.34-.09.28.08.55.18.79.3.2.08.4.2.58.36.18.16.27.33.27.49,0,.24-.1.64-.3,1.19-.2.55-.43.82-.67.82h-.67c-.85,0-1.55.33-2.1.97-.55.65-.82,1.24-.82,1.76v3.53c0,.53-.08.93-.24,1.22-.16.28-.24.73-.24,1.34.08.33.14.65.18.97.04.28.05.6.03.94-.02.35-.09.66-.21.94,0,.28-.09.52-.27.7s-.38.36-.58.52c-.24.16-.53.33-.85.49l-4.08.67h-.97c-.16,0-.42-.03-.76-.09-.35-.06-.71-.14-1.1-.24-.39-.1-.79-.18-1.22-.24s-.82-.09-1.19-.09h-1.64c-.2,0-.49-.04-.85-.12-.37-.08-.71-.2-1.03-.37-.61-.2-1.22-.34-1.83-.43-.61-.08-1.08-.12-1.4-.12-.12-.16-.31-.29-.58-.4-.26-.1-.55-.21-.85-.33-.3-.12-.59-.26-.85-.43-.26-.16-.46-.38-.58-.67-.33-.12-.74-.54-1.25-1.25-.51-.71-1-1.51-1.49-2.4-.49-.89-.91-1.8-1.28-2.71-.37-.91-.55-1.67-.55-2.28v-1.03c0-.32-.11-.72-.33-1.19-.22-.47-.33-.86-.33-1.19v-4.02c.24-.65.47-1.26.67-1.83.16-.49.31-.98.46-1.49.14-.51.21-.92.21-1.25l.49-1.03c0-.89.34-1.85,1.03-2.86.69-1.01,1.51-1.97,2.46-2.86.95-.89,1.95-1.63,2.98-2.22,1.03-.59,1.92-.88,2.65-.88.32-.04.63-.08.91-.12.24-.04.49-.08.73-.12.24-.04.45-.06.61-.06h.67c.61,0,1.04-.03,1.31-.09.26-.06.52-.14.76-.24.24-.1.54-.18.88-.24.34-.06.88-.09,1.61-.09h4.56Z"/>
      </g>
    </g>
  </g>
</svg>