<?xml version="1.0" encoding="UTF-8"?>
<svg id="Layer_2" data-name="Layer 2" xmlns="http://www.w3.org/2000/svg" viewBox="0 0 140.17 611.01">
  <defs>
    <style>
      .cls-1 {
        fill: #283241;
      }
    </style>
  </defs>
  <g id="Layer_1-2" data-name="Layer 1">
    <g>
      <path class="cls-1" d="M35.89,512.31c-2.79-6.48-.93-14.67,3.25-20.44,4.32-4.62,7.84-9.65,10.57-15.07l1.13-.63-.23-1.87c3.26-9.32,2.95-19.72,2.61-29.58.42-2.11.59-4.37.53-6.78l-.84-1.3c-.32-4.93-.72-9.85-1.18-14.76l.36-1.39c-2.49-7.42-3.03-15.51-3.32-23.27l-1.03-1.31c-2.06-9.74-3.64-23.33.29-32.63.1-.24.4-.41.75-.55-.23-2.1.39-4.25,1.87-6.44,5.05-8.55,10.63-16.75,16.77-24.6,4.6-6.84,8.59-14.1,9.78-22.32l1.07-1.49c.17-.82-.03-1.55-.56-2.21,1.52-13.61-1.05-27.21-5.03-40.2-.12-1.63-.52-3.64-1.45-4.95-1.43-3.96-2.55-7.98-3.34-12.06l-.93-.98c-7.73-17.89-14.09-36.24-19.08-55.06-.65-2.16-.77-4.1-.34-6.29-5.36-17.31-.46-35.87,12.64-48.81,4.82-4.78,9.33-9.82,13.55-15.11l1.63-.89.45-2.32c4.69-8.02,1.9-14.58-3.59-21.08-6.84-6.54-13.18-13.55-19-21.01l.12-1.29c-.41-.59-.97-.92-1.69-1.03-5.38-8.11-9.66-17.03-10.95-26.75-.41-3.09-1.08-12.34.33-14.6.19-.3.43-.57.68-.84.26-.84.54-1.13.47-.33l.36-4.65c-.13-.37-.24-.74-.29-1.12s-.1-.72-.01-1.04c2.16-8.2,5.49-16.85,8.64-24.66l.8-.6h7.06l.44,1.44c-1.58,4.06-3.38,8.03-5.41,11.9l-1.25.79c-1.08,1.04-1.64,2.43-1.66,4.15l.06,2.18c-7.69,18.27-5.22,37.17,6.55,53.05l.45,2.12,1.85,1.16c6.79,8.07,13.84,15.9,21.14,23.49l.27,1.12c2.81.67,4.82,5.15,5.58,7.9,2.2,7.96-3.86,14.88-9.21,19.99-7.06,6.33-13.42,12.04-18.14,20.6-4.54,8.24-5.55,14.61-4.8,24.04.62,7.73,2.41,15.77,4.42,23.39l-.29.89,1.43,2.07c2.19,6.65,4.38,13.28,6.58,19.89l-.12,1.3c2.1,3.56,3.43,7.73,4.67,11.76,1.57,3.47,2.96,6.97,4.19,10.51,1.04,2.58,1.89,5.29,2.56,8.11.48.33.89.69,1.05,1.13,4.38,12.34,8,25.12,9.44,38.14l-.31.57c3.57,16.03-2.24,31.41-11.72,44.48l-1.57.81c-.83,1.65-1.72,3.31-2.66,4.98l-.88.14c-1.25,1.97-2.59,3.95-4.02,5.93-.34,1.18-.94,1.83-1.78,1.96-3.46,5.37-6.33,11.07-7.53,17.43l-.99,1.14c.21,2.76.22,5.56.02,8.41l.51.57c.25,5.62,1.07,11.19,2.47,16.71-.57.49-.77,1.06-.51,1.74.97,1.21,1.25,2.73.83,4.57.73,1.57,1.24,4.05,1.09,6.44.91.64,2.25,8.76,2.03,9.48-.66.19-.87.71-.62,1.53.49,1.11.66,2.46.46,3.69.76.61,1.48,3.07.37,3.79.94,2.86,1.73,5.59,1.65,8.66l-.82.69c1.38.4,1.27,5.59,0,6.23,1.32.25,1.59,2.87.42,3.53.17,5.54.23,11.09,0,16.62.26,1.37.19,4.96-.2,6.25-.05.18-.31.3-.63.4,1.04,2.04-.1,7.1-2.08,8.31l.35,1.35c-2.78,5.69-6.84,10.45-12.2,14.3-5.28,4.27-7.59,10.25-7.05,16.98.49,5.53,1.26,10.99,2.29,16.4,2.28,3.23,3.69,8.05,3.74,12.05l1.32,1.36,6.56,18.14c-.36,1.31-.12,2.84,1.08,3.55.52,1.73.92,3.51,1,5.32,1.2,1.16,1.62,2.78,1.25,4.88.25.17.49.36.69.58,1.1,1.23,1.2,7.61,1.19,9.68,0,3.31-.23,6.28-1.09,9.34.17.29.29.58.24.83-.8,4.25-2.63,8.84-4.36,12.8.6,2.03-1.56,5.93-3.32,7.06-2.9.31-5.82.31-8.72,0l-.39-.91c.58-4.04,1.37-9.07,3.71-12.39-.01-2.53.38-5.09,1.18-7.66,1.8-11.49,1.39-22.77-2.27-34.01l.25-1.96c-.92-1.73-1.79-3.49-2.62-5.28-2.74-6.95-5.17-15.18-7.03-22.45-.12-.47-.11-.97-.1-1.48s.09-1.03.19-1.54l-1.02-.69-1.11-5.21c-.71-2.04-.69-3.68.05-4.91Z"/>
      <path class="cls-1" d="M55,518.12l-.56-.38c-.65-3.61-.95-7.26-.9-10.95-.33-.18-.6-.36-.61-.55-.23-4.37,1.96-9.28,5.35-12.01,8.31-5.45,15.19-10.85,17.68-21.14l1.05-.67c-.34-1.21-.21-2.04.42-2.49-.09-.91.05-1.47.42-1.66-.08-2.61-.14-5.2-.06-7.84l.89-.88c-.31-12.71-1.09-25.41-2.33-38.11-.51-3.95-.84-7.86-.99-11.75-.82-.59-1.42-1.05-.42-1.66-1.57-3.74-2.11-7.6-1.66-11.63l-1.05-1.34c-1.35-6.57-1.97-13.18-1.86-19.85-.21-.19-.4-.39-.55-.62s-.27-.44-.25-.63c.3-2.17.88-4.96,1.48-6.98,0-2.43,1.2-5.65,2.29-8.06.08-.19.39-.27.76-.33-.1-.27-.19-.55-.22-.83-.25-2.34,12.16-18.28,14.59-21.37.54-.07,1.02-.29,1.41-.65l.22-1.86c8.67-12.31,10.91-26.65,8.29-41.31l.2-4.2-1.25-2.31c-3.49-14.25-7.82-28.26-12.97-42.04l.1-1.35-.92-.95c-4.91-12.61-9.81-25.49-13.72-38.52-2.12-7.06-4.39-14.73-5.35-22.02-.05-.4,0-.81.09-1.23s.22-.85.37-1.26c-1.4-5.82-2.09-12.76-.42-18.7.48-.91.29-1.06-.43-1.5l.84-.58c-.53-5.72,4.14-11.94,7.8-16.26,5.8-5.84,11.66-11.61,17.58-17.32,7.62-8.46,7.35-13.92-.45-22.11v-1.24c-9.93-8.35-19.88-18.27-26.53-29.57l-.06-1.17c-.34-.16-.67-.34-.97-.57-.28-.21-.54-.43-.72-.7-1.56-2.39-2.92-5.45-4.07-8.1-9.4-21.68-1.7-37.49,8.19-57.02.57-1.13,1.08-2.27,1.29-3.45l.86-.39h5.4l.22,1.72c-6.08,15.39-12.52,32.23-7.78,48.87-.45.54-.58,1.12-.32,1.76l.91.56c.77,3.92,2.64,7.54,4.52,11.06,1.98,2.91,3.49,5.97,4.53,9.16l1.48.76c4.31,6.25,9.1,12.11,14.38,17.58l.33,1.61,1.39.3c4.29,4.05,10.89,12.35,11.51,18.31.62,6-3.88,12.3-7.87,16.59l-.87.12c-.01.62-.18,1.2-.51,1.73l-11.81,11.95c-17.16,17.89-10.6,43.93-4.1,65.09l8.03,23.15-.35,1.54,1.31,2.12c3.31,10.68,7.33,21.46,11.12,31.49l-.38.88c2.4,6.16,4.22,12.59,5.46,19.1,1.7,4.13,3.04,9.74,2.02,14.14,1.16,1.98,1.4,4.43.63,6.58,2.49,18.01-8.29,32.86-18.4,46.58-1.37,2.08-2.64,4.23-3.71,6.49l-1.36,1.01c-.25,1.26-.97,4.44-1.46,5.6-.06.13-.31.19-.61.22-1.58,7.66-1.28,15.46.41,23.06-.54.56-.69,1.18-.41,1.87,1.16,4.27,1.96,8.79,2.74,13.27l-.66,1.27c1.57,5.26,2.45,10.73,2.66,16.4.85,5.04.93,9.96.25,14.76.29,1.86.43,3.8.42,5.82.19.11.18.25,0,.42l.83,1.61c.4,5.54.47,11.99-1.25,17.09.17.33.32.67.41,1.02.83,3.09-2.88,13.76-5,16.6-.6,1.3-1.55,3.25-2.47,3.99l-.52,1.96-10.12,9.81c-3.67,4.28-4.24,7.1-4.46,12.63-.17,4.36.37,8.05,1.11,12.34l-.14,1.9c.56.65,1.04,1.35,1.32,2.17,2.26,6.61,3.9,14.34,5.32,21.1l1.19.96c3.07,7.38,6.73,17.27,8.43,25,1.19,5.44,1.75,11.29,1.13,16.94-.15,1.33-.18,2.13-.18,3.36,0,.49-.55.86-1.02,1.11.14.27.26.55.32.84.54,2.35-6.65,14.02-8.46,16.68l-1.41.76c-2.07.31-4.16.31-6.23,0l.2-1.73c3.65-5.3,6.42-11.26,7.48-17.64.53-.34.88-.8,1.04-1.4-.06-2.82-.11-5.7-.14-8.66-.31-.17-.57-.34-.6-.55-1.19-7.67-3.83-14.43-6.65-21.64l.33-1.56c-2.69-5.46-5.4-11.06-7.1-16.99-.24-.82-.1-1.71.04-2.54-.99-2.7-2.08-5.33-3.25-7.9.17-1.36.23-2.91-1-3.62l-1.7-6.98.55-1.45Z"/>
      <path class="cls-1" d="M80.75,490.7l-.19-.93c1.47-1.16,2.96-2.45,4.49-3.88-.33-.45.04-.79,1.11-1.01-.86-.65-.64-.96.42-.83.52-1.41,1.33-2.72,2.45-3.95-.23-.9.13-1.5,1.05-1.68,2.27-6.44,4.65-13.42,5.11-20.57l.95-1.22c-.67-4.38-1.06-9.55.42-13.71-.54-.95-.49-1.94,0-2.91l-.42-6.65c-1.2-9.35-2.2-18.81-3.01-28.25-.04-.47.03-.95.12-1.44s.23-.99.4-1.47c-.27-.46-.52-.93-.71-1.42s-.37-.96-.45-1.45c-.77-4.97-1.2-10.07-.91-14.99-.39-2.47-.4-5.01,0-7.48-.27-.37-.27-.92,0-1.66-1.2-.83-.41-2.88.35-3.88-.24-1.75.79-3.51,1.72-4.85.14-.56.24-.95-.45-1.19-.06-.45,2.84-7.27,4.19-7.12-.15-.63-.13-1.25.06-1.86,7.12-9.65,12.27-20.07,15.44-31.24.89-5.5,1.46-11,1.71-16.52-.55-2.93-.67-6.03-.6-8.96l-1.15-2.29c-1.31-7.49-2.82-15.01-4.98-22.22l-.1-2.5c-.79-1.22-1.57-2.47-2.05-3.85-3.76-10.81-7.48-21.67-11.09-32.52-.22-.68-.32-1.4-.42-2.13s-.13-1.47-.15-2.21l-1.22-1.06c-3.12-8.05-5.9-17.6-8.13-25.99-5.56-20.97-9.79-42.76,6.98-59.79,7.01-6.59,13.04-13.82,18.11-21.7l1.29-.74c.63-2.6,1.08-5.29,1.34-8.06.78-5.9-2.71-11.87-6.65-16.64l-8.89-10.6.08-1.26-1.47-.56c-4.99-6.8-9.48-14.01-13.24-21.56l.17-1.56-1.3-.83c-1.54-3.31-3-6.66-4.1-10.15l.42-1.49c-1.36-2.33-2.15-5.83-2.61-8.69-2.13-13.16.85-27.04,4.67-39.59l1.26-1.58h5.4c.31.71.46,1.46.44,2.23-2.21,12.91-3.7,26.54,0,39.19l-.45,1.38,1.36,1.95c3.41,11.16,8.18,21.74,14.32,31.73l.11,1.23,1.5.82c2.14,2.79,14.06,19.01,14.01,20.73,0,.29-.07.59-.15.88,2.68,1.68,3.66,6.47,4.11,9.61,1.52,10.5-4.44,19.81-10.82,27.59l-8.83,10.45c-9.63,10.66-14.85,23.05-13.58,37.51-.53.26-.66.82-.38,1.67.21,1.49.64,2.87,1.3,4.15-.41,2.76-.05,5.57,1.09,8.41.49,5.28,1.72,10.31,3.69,15.08,2.49,8.55,5.2,17.11,8.11,25.7,4.09,9.49,7.65,19.5,10.42,29.48l-.1,1.52c.97,1.07,1.48,2.5,1.51,4.28,2.08,4.35,4.4,9.52,3.89,14.41.86,1.28,1.26,2.87,1.21,4.76,1.56,5.64,3.03,12.09,2.11,17.26.52,6.95.87,14.29-1.95,20.77.2.36.34.71.26.99-1.95,6.91-5.88,15.29-9.63,21.43l-1.56,1.26c.21,1.53-.91,3.43-2.08,4.57.89.97,0,2.57-1.25,2.49l.32,1.42c-1.6,3.87-2.94,7.85-3.49,12.02l-.98,1.1c.72,13.51,1.83,27.05,3.34,40.64.56,4.21.42,8.25-.43,12.13.46,1.08.77,2.21.87,3.38.46,5.34.12,11.77-.87,16.97l-.29,2.26c1.02,5.65-1.1,13.33-3.26,18.81-1.09,2.76-2.22,5.15-4.04,7.32.18.58-.08.8-.71.69l.15,1.25c-4.45,4.61-8,9.65-10.64,15.14-2.02,7.77-.59,15.95.87,23.72,1.29,4.83,2.14,9.61,2.56,14.32l1.1.9c2.48,7.16,5.37,15.66,7.17,22.97.79,3.23,1.2,6.1,1.41,9.4.64.23.6.77-.12,1.63,1.78,3.38.65,8.85-.3,12.63-2.27,9.07-8.88,19.56-14.25,27.25-.4.58-1.05.93-1.66,1.25-1.24.31-2.5.31-3.74,0l.09-1.64c8.29-11.48,15.89-24.54,11.82-38.99.4-.37.59-.81.55-1.33-.9-1.79-1.52-3.78-1.86-5.96-.38-.32-.71-.65-.85-1.05-2.58-7.49-5.02-15.18-7.02-22.8l.18-1.36c-1.27-1.84-1.99-3.95-2.14-6.32-1.06-1.39-2.9-7.24-2.41-8.68.09-.28.24-.54.4-.8-.96-2.35-1.47-4.86-1.51-7.53-.67-.11-.83-.66-.49-1.65-.83-4.59-.81-9.04.67-13.61.93-2.88,2.64-7.35,5.49-8.37Z"/>
      <path class="cls-1" d="M105.26,570.06c-.17-3.25-.17-6.43,0-9.56-1.18-.22-2-3.16-.83-3.74-1.27-2.82-2.14-5.81-2.61-8.95-1.51-2.12-2.61-5.49-1.96-8.09-.99-1.31-1.52-2.89-1.6-4.74-.65-1.62-1.05-3.35-1.19-5.18-.84-1.89-1.32-3.92-1.45-6.07-.39-.15-.71-.32-.77-.55-2.19-9.03-3.64-20.51-1.32-29.58.45-1.77,2.03-6.97,3.43-7.64.25-.12.53-.2.81-.25,0-.23,0-.45.08-.65.8-2.06,2.26-4.08,4.07-5.17-.53-1.03-.18-1.28.83-.83l.09-1.68c3.52-5.56,5.92-11.75,7.14-18.21l1.09-1.3c.66-9.93,1.04-19.92,1.13-29.97l.53-1.2c-.7-1.82-.88-3.88-.56-6.19-.29-.33-.52-.66-.55-1.01-1.01-11.97-2.33-30.16.24-41.65.47-2.12,1.18-4.05,2.11-5.99l-.68-.65c1.93-5.7,4.13-11.38,6.58-17.03l1.17-1.02-.41-.76c3.1-6.72,5.05-14.06,6.36-21.61.05-.29.3-.54.62-.78.33-6,.36-11.99.08-17.98l-.83-.97c-.41-4.73-.99-9.44-1.74-14.15-1.09-1.37-.95-3.17-.76-4.82-1.57-2.74-2.68-5.77-3.33-9.09-2.46-7.96-4.84-15.71-7.05-23.73-5.87-13.03-9.81-26.88-13.29-40.72l-1.12-1.31c-5-19.05-8.43-38.7,4.05-55.89,7.72-10.04,14.97-20.37,21.74-30.99l1.5-1.14c.89-3.43,1.94-6.7,3.17-9.83,1.5-7,.39-14.46-2.82-20.84-.08-.16-.32-.24-.6-.3-1.63-3.81-3.69-7.33-6.15-10.56l-6.54-10.53.07-1.55c-1.27-.85-2.19-1.94-2.75-3.26-5.4-8.62-12.81-25.36-14.96-35.23-.07-.34-.05-.71,0-1.08s.15-.77.28-1.14c-.55-.59-1.1-1.23-1.34-2.02-2.34-7.48-3.56-23-2.23-30.71.14-.81.6-1.52,1.08-2.18h5.81l.77,1.88c-.12,8.58,1.72,17.01,4.08,25.2l-.28,2,.95,1.24c4.32,11.88,9.23,23.58,15.08,34.82l.58,2.99c3.17,3.33,5.68,8,7.08,12.33,1.16,1.61,1.99,3.31,2.48,5.12l1.28.66c10.87,16.88,10.77,32.01,1.35,49.67-6.72,10.71-13.69,21.25-20.92,31.63-10.39,15.38-10.98,32.76-5.78,50.09l-.43,1.75c1.18,3.35,2.2,6.78,3.06,10.3,4.89,13.26,9.57,26.65,14.05,40.08.19.56.24,1.16.3,1.78s.05,1.24.03,1.87c2.55,4.97,4.4,10.26,5.56,15.89,2.02,6.16,3.21,12.36,3.58,18.6,2.09,7.15,2.38,14.74,2.13,22.19l-.89,1.08c.61,5.09-.33,10.62-2.18,15.54l-.73.66c.24,1.23.08,2.89-.83,3.74.96.44.82.86-.42,1.25-1.09,5.18-2.4,10.17-4.35,15.15l-1.47,1.88.25,2.1c-2.69,8.28-3.34,16.83-3.98,25.41-.02.29-.3.57-.66.83.06,4.27,0,8.53-.18,12.79,1.29,3.6,1.46,7.53.42,11.22.29,4.36.36,8.73.2,13.12.65.89.84,1.99.57,3.3.08,3.4-.7,6.63-1.6,9.76.17.29.33.59.44.9.62,1.84-1.51,10.03-2.21,12.49-2.55,9-6.72,15.87-12.08,23.13-.77.11-1.14.32-.62.95-1.22,1.06-2.27,2.88-1.83,4.81-.61,1.44-1.13,3-1.55,4.67-.41,2.05-.38,4.18,0,6.23.61,2.45.75,4.81.42,7.06l1.11,2.25c.74,5.09,1.47,10.16,2.22,15.2l.98,1.19c1.61,7.98,3.5,15.89,5.65,23.75.1,3.07.39,6.04.88,8.89-.52,3.85-1.36,7.54-2.53,11.05.12,2.84-.69,5.7-2.42,8.58-5.6,9.82-10.59,19.92-14.97,30.28l-1.31,1.44c-1.38.31-2.78.31-4.15,0l-.69-.81c2.84-6.4,6.22-12.62,10.14-18.67,3.55-6.18,6.63-12.73,7.78-19.82l1.04-1.41Z"/>
      <path class="cls-1" d="M35.48,0h7.06c-.58,2.34-1.71,4.7-2.38,6.96-.62,2.05-.56,4.55-1.77,6.33-.14.66-.22.96-.45.43-1.14,4.83-2.19,9.62-3.18,14.39-.58,6.5-.11,12.97.72,19.43-.47,1.07-1.22,1.64-2.08.66-2.66-10.03-2.99-18.19-1.62-28.42.89-6.66,3.03-13.13,3.69-19.78Z"/>
      <path class="cls-1" d="M6.82,0h5.81c.05,1.15-.11,2.34.04,3.49,2.36,17.39,5,33.14,13.25,48.86.57,2.1.02,2.1-1.66,0-6.95-12.91-11.83-25.02-14.85-39.37-.33-4.41-2.49-8.47-2.6-12.98Z"/>
      <path class="cls-1" d="M20.94,0h5.81c.38,2.66-.59,5.15-.82,7.69-.87,9.36-.65,18.29,0,27.62.13,1.44.41,2.82.83,4.15.18,1.18.69,2.64.83,3.74.5,1.53,1.51,5.73-.83,3.74-4.37-11.26-6.18-24.29-6.25-36.34-.02-3.57.62-7.05.44-10.62Z"/>
      <path class="cls-1" d="M33.4,48.2c2.9-.43.91-5.12.81-7.25-.13-2.94-.52-12.63.03-14.9.08-.32.74-.26.81-.57.21-.88-.12-2.09.01-3.04l.82.83c.25-1.62-.34-4.06.01-5.53.08-.32.75-.25.82-.57.19-.88.4-3.02.93-3.78.16-.23.71-.05.73-.09-.5,3.76-1.76,7.39-2.37,11.13-3.53,21.62,2.52,36.79,15.25,53.69,2.75,3.65,5.72,6.88,8.72,10.39.37.87.05,1.14-.83,1.25l-1.09-.07c-.78-.68-6.08-5.96-6.16-6.4-.06-.37-.04-.69.19-1.01-7.96-9.91-15.43-21.77-18.69-34.07Z"/>
      <path class="cls-1" d="M32.99,463.69c.59-4.07.56-8.81,0-12.88-.36-1.02-.33-2.27,0-3.32l-.94-2.02c-.05-2.78-.02-5.57.1-8.36l-.71-1.64c-.86-7.31-1.82-14.62-2.87-21.94l.26-1.76-1.06-1.47c-1.66-9.06-2.79-18-2.44-27.24.02-.62.13-1.16.59-1.61-1.38-.73-.03-7.54.64-8.1.16-.13.37-.18.61-.21-.14-.28-.26-.57-.32-.87-.92-4.22,12.89-24.07,16.16-28.41,1.54-.9,2.67-2.71,3.01-4.42l1.5-.78c1.31-3.69,3.03-7.27,5.16-10.75,9.11-19.25,7.8-32.07,3.11-52.18-.74-3.17-1.49-6.58-2.04-9.78l-1.03-1.38c-4.96-12.79-9.96-25.57-15.02-38.34-1.95-4.14-3.11-8.35-3.48-12.63-1.11-1.81-1.96-3.77-2.57-5.88l-.22-2.74c-2.16-7.78-3.65-15.4-3.48-23.54.12-5.38,2.35-21.76,6.17-24.98.28-.23.59-.42.92-.6l-.25-.72c4.94-8.64,10.67-16.85,17.17-24.63,8.51-11.25,16.15-25.89,7.2-39.17l-.03-1.55c0-.61.24-1.07.83-1.25,2.93,3.42,6.19,6.54,8.23,10.67,4.78,9.66,1.44,18.46-4.91,26.31-1.34.72-10.05,11.5-11.62,13.52-5.36,6.88-10.96,14.67-13.41,23.15-6.92,23.89,6.48,54.74,14.65,77.18.21.58.75,1.02.83,1.25,2.39,5.33,4.7,10.91,5.81,16.62,4.4,13.16,8.65,27.08,8.72,41.13.16,31.31-20.7,40.8-30.32,65.23-1.64,4.16-3.47,10.33-3.76,14.73-.43,6.62.68,13.72,2.09,20.17l4.15,28.67,1.66,22.44c-.02,2.82.15,5.71.02,8.53-.56,12.22-2.34,18.42-8.32,28.86-1.09,1.9-2.61,3.64-3.52,5.82-3.31,7.94-1.42,16.38.2,24.51,1.2,6.02,2.85,11.98,4.57,17.87,2.41,8.23,6.85,17.41,6.22,25.96-.2,2.68-.91,6.15-1.24,8.94-.54,4.54-2.09,10.74-1.66,15.37l-3.74,25.35c-1.93,0-3.88,0-5.81,0-.39-.71-.75-1.47-.78-2.29-.19-4.18.26-9.67,1.61-13.5-1.27-13.84.92-27.8,4.1-41.08.31-1.83.56-3.68.51-5.53l.78-.76c-1.77-5.19-3.58-10.53-5.42-16l.44-1.45c-.37-1.1-.92-2.03-1.64-2.8l-3.24-13.23c-1.16-3.96-1.48-7.75-.94-11.39-.12-1.15-.43-1.94-.93-2.88.45-6.49,2.23-12.72,5.34-18.69,2.05-5.06,3.15-10.52,3.41-16.02l.9-1.47Z"/>
      <path class="cls-1" d="M.17,378.52l.84-2.83,11.41-16.5c7.51-11.48,12.87-20.67,14.62-34.54.79-6.28.66-12.17.12-18.43l-1.21-2.13c-2.1-11.15-6.3-21.75-10.98-32.05-4.78-9.99-9.4-20.05-13.86-30.18l-.95-4.6c0-21.04,0-42.11,0-63.16,1.86-6.13,4.36-12.05,7.51-17.76,8.53-14.73,16.31-29.8,23.34-45.24,1.13-3.92,2.61-7.57,4.46-10.96.12-.8,0-1.47-.36-2.01,2.43-8.44,2.81-16.72,1.13-24.86l.47-.96c-.79-2,.3-2.08,1.66-.83,1.65,2.47,3.78,5.18,4.55,8.13,1.03,3.99.81,8.56.85,12.65.14.41.27.81.33,1.23s.13.8.05,1.17c-2.47,12.36-7.2,23.95-13.28,34.92l-14.84,26.36c-.47.64-1.06,1.15-1.75,1.55l-.06,1.32c-5.61,12.11-10.81,24.05-11.72,37.51-.78,11.47.78,22.67,4.95,33.55.74,1.8,1.21,3.71,1.43,5.74l1.05,1.24c5.17,11.12,10.06,22.36,14.67,33.7l.06,1.63c1.1,1.35,1.97,2.83,2.61,4.42.53,2.86,1.44,5.54,2.82,8.04-.62,1.21.2,2.44,1.06,3.46,2.49,9.02,4.28,18.7,4.26,28.11,0,.34-.12.69-.25,1.04s-.33.72-.53,1.06c.29,3.34.33,7.05-1.25,9.97.28,1.2.47,3.24-1.25,3.32v2.1c-4.93,12.06-11.47,23.38-19.6,33.96-4.37,6.57-8.37,13.45-10.98,20.93l-1.4,1.6c-.02-3.87.01-7.76,0-11.63Z"/>
      <path class="cls-1" d="M.17,548.87c.23-11.4,7.08-20.43,13.61-28.77,1.74-3.15,1.31-7.04.71-10.55-2-11.76-4.71-23.39-8.89-34.67-.2-2.02-.63-4.09-1.27-6.2-.54-.6-1.02-1.26-1.29-2.04-1.44-4.19-2.22-8.95-2.86-13.34v-33.66l.95.87c.47,1.18,2.66,10.48,2.4,10.98-.11.22-.27.42-.44.61,1.76,3.88,3.14,8.21,2.49,12.46.6,1.83,1,3.71,1.18,5.64,1.71,3.45,2.15,7.56,1.73,11.4,2.23,6.45,3.33,12.96,3.32,19.53.48,2.02,1.13,3.98,1.94,5.88,1.73,7.98,3.26,16.06,4.76,24.08.19,1,.26,2.03.32,3.06s.06,2.08.04,3.12c1.15-.07,1.49,2.13,1.57,3.14.27,3.03-.53,4.79-1.93,7.42-6.17,8.31-10.57,17.21-11.17,27.94l-.93,1.38c.26,3.41.27,6.94,0,10.39l.97,2.27c1.39,10.92,2.84,21.8,4.38,32.65l-.36,1.22c1.44,1.87,1.75,4.87.83,7.06-1.38,0-2.77,0-4.15,0l-.97-2.15c-1.43-10.92-3.42-21.76-5.95-32.51-.32-3.6-.64-7.15-.97-10.64-.41-5.21.05-11.29,0-16.62Z"/>
      <path class="cls-1" d="M.17,140.85c6.73-12.87,13.53-26.02,18.05-39.9,2.86-8.78,7.14-26.6,4.12-35.26-7.17-12.82-13.37-26.12-19.19-39.39-.78-1.77-1.82-4-2.99-5.53.01-4.7,0-9.42,0-14.13,1.56,2.85,2.19,6.12,3.32,9.14.57,2.03,1.13,3.69,1.66,4.99,1.28,1.83,1.93,5.06,2.73,7.03,3.79,9.28,8.39,19.05,13.47,28.08,2.49,4.44,5.49,8.59,7.9,13.08.23.31.45.63.62.97s.31.65.33.98c.99,12.96-1.07,26.11-6.14,38.08-.28.67-.86,1.14-1.46,1.53-.07,1.33-.32,2.62-.76,3.88-5.71,12.99-12.39,25.51-19.12,37.99-.3.56-.73,1.06-1.16,1.57s-.91.98-1.4,1.44c0-4.84,0-9.7,0-14.54Z"/>
      <path class="cls-1" d="M.17,360.65l.67-2.42c17.04-23.17,12.48-51.42.16-75.65l-.83-3.36c0-5.4,0-10.81,0-16.2,7.34,13.71,13.84,28.04,17.66,43.2l1.86,11.23c0,1.31.28,2.29.85,2.95,1.34,17.52-8.64,33.57-18.57,47.51-.18.25-.47.43-.79.61s-.66.32-1.01.45c0-2.76,0-5.55,0-8.31Z"/>
      <path class="cls-1" d="M.17,93.07c3.29-12.9,4.41-25.75,0-38.64,0-5.67,0-11.36,0-17.04,1.05,1.67,2.18,3.73,2.99,5.52,2.94,6.44,6.28,13.47,8.49,20.17,3.73,11.33-1.4,29.36-5.35,40.49-1.69,4.75-3.68,9.63-6.14,14.01,0-8.16,0-16.35,0-24.51Z"/>
      <path class="cls-1" d="M14.71,563.41c-.51-9.93,3.04-19.35,7.66-27.78.64-1.64,1.05-3.38,1.35-5.13l.96-.75c-.17-1.63.11-2.88.83-3.74.37.11.79.25,1.03.57.55.75,1.21,3.84.63,4.41l1.04.64c.75,1.83,1.36,5.49,1.31,7.5-.06,2.38-.85,6.84-2.76,8.06l.42,1.32c-6.07,12.78-5.74,27.3-4.97,41.26.22,7.06.21,14.05-.02,20.99-1.52,0-3.05,0-4.57,0-1.49-6.16-2.04-12.39-1.66-18.7-.47-1.03-.91-2.09-1.13-3.21-1.3-6.69-1.31-16.41-1.08-23.32.01-.36.17-.71.33-1.08s.39-.72.63-1.06Z"/>
      <path class="cls-1" d="M.17,518.12l.63-1.55c8.92-7.95,4.65-21.11.21-30.36l-.84-3.41v-8.73c1.33-.26,2.46,1.41,1.66,2.49,3.71,7.39,7.37,17.34,8.3,25.56.29,2.58.72,8.38.43,10.81s-3.97,4.72-5.66,6.59-2.79,4.11-4.73,5.66c0-2.35,0-4.71,0-7.06Z"/>
      <path class="cls-1" d="M27.59,43.21c3.55,10.28,8.5,20.16,14.78,29.05,2.65,3.74,5.9,7.07,8.48,10.84-.14.62-.55.9-1.25.83-.77.57-.99.34-.42-.42-2.45-5.34-6.31-8.91-9.72-13.75-4.74-6.71-9.74-15.17-12.71-22.81,1.67.19,1-2.46.83-3.74Z"/>
      <path class="cls-1" d="M24.26,52.35c.92-.14,1.47,2.18,1.66,0,3.53,6.73,8.26,12.83,12.46,19.11-1.05.05-1.92-.42-1.66.83l-1.08-.24c-.82-.95-5.54-7.4-5.42-7.87.06-.21.15-.42.26-.62-2.26-3.63-4.22-7.48-6.23-11.22Z"/>
      <path class="cls-1" d="M8.07,402.2c-.44-2.88-.53-5.85,0-8.73.22-3.68.99-7.71,2.08-11.22,8.13-26.18,32.51-39.2,33.23-70.63.38-2.19.38-4.46,0-6.65-.14-1.59-.22-3.44-.42-4.99-1.5-11.79-4.97-22.2-9.14-33.24-6.94-18.38-16.74-36.31-20.77-55.68-4.72-22.71.46-39.39,11.63-59,11.23-19.7,29.41-39.76,26.14-64.17-.14-1.06-1.06-2.73-1.22-3.97-.15-1.25.82-.67,1.25-.83,16.97,24.79-9.21,49.13-21.18,70.22-13.53,23.83-13.36,41.45-4.98,67.31,4.13,12.76,10.21,24.89,14.95,37.39,7.68,20.23,14.49,41.92,8.72,63.57-5.74,21.54-25.22,36.09-31.15,57.34-.65,2.31-1.1,4.21-1.25,6.65-.81,4.48-.91,8.97-.41,13.5.91,8.21,2.92,17.2,4.15,25.56.98,6.69,2.28,13.68,2.91,20.36.39,4.17.72,8.69.83,12.88.31,12.02-1.66,18.34-3.32,29.5l-.47.3c-.06.96-.95,6.58-2.38,3.75-.02-10.48-.04-21-.06-31.53-.88-5.13-1.5-10.3-1.83-15.55.87-.73,1.3-1.5-.03-.75-.68-2.95-1.11-5.89-1.3-8.84l-.58-.14c-.84-5.4-2.05-10.79-2.91-16.2s-2.19-11.04-2.49-16.2Z"/>
      <path class="cls-1" d="M13.46,434.61l.57-.77c1.93,1.38.59,2.09.67,3.87s.84,3.83.85,5.63l.41-2.07c.9.23.97,2.41.82,3.04-.08.31-.74.25-.82.57-.13.54.67,10.44.83,11.07.08.32.79.26.84.56.96,5.72-.85,14.02-.04,19.9.6,4.32.33,3.74.03,7.88-.16,2.25.1,4.59,0,6.85,2.18-.13.92-2.13.88-3.14,0-.11,1.37-.41.78-1.85l.83,1.25c-1.27,8.53.78,17.44,2.49,25.76.88,4.29,1.81,8.65,2.91,12.88.25,1.27-.68,2.74-.83,3.74-.45-4.3-2.32-8.3-3.32-12.46-1.99-8.23-4.15-19.02-4.57-27.42-.41-2.34-.37-4.73,0-7.06.01-1.38-.01-2.77,0-4.15.06-7.32.22-12.93-.42-20.36-.42-4.93-.98-9.25-1.66-14.13-.45-3.18-.74-6.34-1.25-9.56Z"/>
    </g>
  </g>
</svg>