<?xml version="1.0" encoding="UTF-8"?>
<svg id="Layer_2" data-name="Layer 2" xmlns="http://www.w3.org/2000/svg" viewBox="0 0 418.35 613.72">
  <defs>
    <style>
      .cls-1 {
        fill: #3d5b80;
      }

      .cls-2 {
        fill: #8eb2bc;
      }

      .cls-3 {
        fill: #283241;
      }
    </style>
  </defs>
  <g id="Layer_1-2" data-name="Layer 1">
    <g>
      <path class="cls-1" d="M155.93,2.71l1.61.86c3.01,4.13,6.65,7.73,10.33,11.25.78.93,1.37,1.88,1.77,2.85.95-.42,1.25-.12.83.83,1.81.22,3.44,1.52,4.1,3.16,1.62.87,2.61,1.89,2.96,3.07.36.04.72.1,1.06.21s.64.22.87.42c17.66,15.36,35.52,31.77,40.23,55.73,2.49,12.63-.12,25.32-2.78,37.69l-1.16,1.51c-.22,5.17-1.25,10.06-3.09,14.65.02,2.39-.58,4.81-1.82,7.27-.85,6.81-2.67,13.22-5.48,19.21l-.45,4.45c-2.85,9.41-5.85,18.75-9.02,28.01l-.92,1.19c.03,1.88.01,3.74-.71,5.5-2.95,10.72-5.87,21.88-7,33.13l-1.01,2.08c1.22.53.84,4.24-.42,4.57l-.28,8.2c.04,10.09.82,20.04,2.36,29.86-.61.18-.75.65-.42,1.42.64,1.56.91,3.23.81,4.99.93,2.13,1.96,5.1.85,7.06.95,2.89,1.82,5.78,1.55,8.85,1.29,12.98,2.3,26.17,2.79,39.24.09,2.36.16,4.84-.18,7.17,1.73,1.56,1.87,4.85,1.25,7.06,2.06,5.32,2.4,11.39,2.08,17.04,2.06,6.19,2.59,13.33,3.01,19.93.04.61-.03,1.24-.12,1.86s-.24,1.27-.4,1.9c.23,3.05.48,6.04.76,8.99-.4,7.38-.88,15-3.99,21.61.15,1.26-.09,1.99-.73,2.21-.06,1.34-.15,2.78-1.21,3.67-.83,3.28-2.15,6.36-3.96,9.22l.4,1.52c-2.69,7.86-2.09,15.77,1.83,23.09l-.16,1.56c1.11-.15,1.2.03.42.83,1.14.56,2.16,1.69,1.92,3,.4.1.75.23.91.49,1.26,1.93,2.56,4.14,3.51,6.2,1.34,1.26,1.99,2.6,1.96,4.02l1.44.9c3.68,6.31,5.31,13.2,5.73,20.35l-.52.78c.4,2.75.41,5.56,0,8.31.39.9.42,2.05.09,3.44-1.21,5.32-2.79,11.16-6.32,15.26v1.65c-6.69,9.89-13.86,19.44-21.53,28.65-11.63,14.76-21.4,32.52-14.8,51.54l-.64,1.26c-2.77.31-5.54.31-8.31,0-2.1-2.24-3.04-6.88-3.47-10.08-2.28-17.09,5.21-29.74,14.52-43.25l14.47-19.94c7.31-10.48,12.95-23.02,11.83-35.67l.45-.76c-.42-1.32-.61-2.82-.56-4.51-.26-.19-.48-.38-.52-.61-.98-5.38-1.82-9.8-3.81-14.79-.56-1.41-1.18-2.8-2.03-4.04l.27-.99c-1.77-2.06-3.02-4.52-4.17-6.98-2.52-3.1-5.81-7.83-5.38-11.72-.52-.94-1.28-3.92-1.29-5.01,0-.27.2-.54.46-.81-.35-2.05-.42-4.19,0-6.23-.19-.23-.37-.47-.5-.74-1.28-2.6,4.9-19.81,6.35-23.55l1.21-1.06c.28-2.37.75-4.63,1.58-6.69.4-3.58.93-7.3,1.59-11.17l.98-1.25c.42-8.37.48-16.79-.57-25.06.51-.91.56-2.12.16-3.61-.87-2.08-1.27-4.38-1.2-6.9l-1.29-12.32.42-.73c-.23-1.79-.64-3.51-1.23-5.17-.66-12.66-1.49-25.3-2.5-37.93.65-1.23.53-2.38-.36-3.45.11-2.35.09-4.7-.06-7.04l-1.16-2.09c-.17-2.66-.34-5.29-.5-7.88-1.8-3.21-2.34-7.27-2.24-10.91-.68-2.44-.9-4.76-.66-6.96-.25-.25-.48-.51-.66-.8-.96-1.51-2.25-14.98-2.12-17.55.02-.33.33-.64.73-.95-.33-1.28-.34-2.46-.02-3.55l-.55-1.03c-.16-11.51,1.72-23.72,5.4-34.67-.31-1.32.07-2.73,1.15-4.24.17-3.2,1.17-6.27,2.73-9.09l.13-2.42c5.53-18.78,11.2-37.53,17.01-56.25,1.79-4.34,3.49-8.92,3.73-13.75.5-1.55,1.16-3.03,1.96-4.45-.29-.62-.42-1.27-.38-1.95,7.48-23.92,8.62-48.32-7.58-68.94-1.8-1.87-3.02-3.86-3.67-5.98-2.94-2.19-5.6-4.78-7.98-7.77-6.54-5.31-13.07-10.88-19.4-16.56-.3-.27-.52-.64-.73-1.03s-.39-.81-.55-1.24c-1.34.24-2.04-.55-2.58-1.7-3.37-2.76-13.87-12.31-14.74-15.94-.08-.34-.11-.7-.12-1.06h7.48Z"/>
      <path class="cls-1" d="M150.53,550.33c.14-2.05.8-4.44,2.49-5.93.37-1.73,1.02-3.19,1.94-4.36,2.08-5.39,3.35-11.02,4.16-16.82l.97-1.55c-.29-2.34-.33-4.72,0-7.06-.58-.04-.72-.73-.42-2.08-.44-.2-.84-1.04-1.01-1.58-1.14-10.44-2.29-20.87-3.44-31.31.69-.16.81-.58.71-1.18-.42-.55-.61-2.1,0-2.49-.41-3.39-.41-6.71,0-9.97l-.48-1.1c.73-3.22,1.05-6.53.95-9.91.95-2.82,1.5-5.85,1.66-9.1,2.6-11.71,5.44-23.43,8.34-35.01l.75-.96c.71-6.53,1.36-13.12,1.95-19.76l.96-1.85c-.19-18.5-1.02-36.98-2.49-55.44l.42-1.48c-1.76-4.87-2.51-10.63-2.08-15.79-.57-.92-1.12-1.88-1.38-2.94-.97-4.05-1.86-8.19-2.74-12.27-.65-3.04-1.25-6.21-1.7-9.31-1.62-1.79-2.41-4.14-2.57-6.52-1.72-3.9-2.8-7.95-3.25-12.18-.28-.23-.56-.48-.78-.76-1.53-1.86-2.55-8.45-2.64-11.1-.27-.27-.5-.55-.55-.86-.64-3.66-1.26-7.7-1.01-11.39-1.55-2.72-1.13-6.65-.36-9.63.44-4.34.95-8.69,1.77-12.94l.64-.8c.28-3.24,1.42-6.09,2.75-8.95.39-2.23.95-4.48,2.26-6.31l.21-2.14c5.25-14.23,10.96-28.39,16.7-42.46.53-1.31,1.36-2.47,2.19-3.6l-.48-.72c7.09-17.32,12.6-35.69,15.71-54.44l.97-1.35c-.23-2.9-.26-5.82,0-8.73l-.96-1.59c-1.5-13.64-7.06-26.53-14.22-38.13l-.19-1.84c-2.54-2.2-4.83-4.79-6.28-7.81-2.36-2.19-4.52-4.64-6.65-7.13l-.36-1.68c-1.09-.41-1.88-1.24-2.39-2.5-2.02-.47-3.12-2.42-3.89-4.27-.5-.07-.95-.18-1.21-.47-7.51-8.09-15.08-17.09-20.25-26.79l-.09-1.29h5.81l1.62,1.09c4.95,6.94,10.42,13.44,16.43,19.49l.22,1.02c6.39,4.88,12.74,11.08,18.1,17.18.94,1.07,1.63,2.32,2.25,3.6l.88-.03c9.94,12.22,18.45,26.67,20.23,43.14,0,4.13-.11,8.32-.34,12.57.73,3.34.39,7.12-1.03,10.29.89,1.28.57,2.95-.73,3.82l-.91,6.84c-.95,2.7-1.76,5.5-2.41,8.4-2.28,8.79-4.88,17.87-8.1,26.64-6.85,18.73-13.56,37.5-20.13,56.32l-1.17,1.96c-.33,2.11-.69,4.17-1.08,6.19-2.89,8.75-4.16,18.62-4,28.09l-.74,1.88.62.97c-.06,2.61.26,5.13.97,7.55,1.81,9.54,3.87,19.09,6.19,28.63l-.3,1.08c1.84,2.27,2.67,5.44,2.08,8.31.48,1.51,1.06,2.89,1.72,4.17l2.35,13.03c-.38.74-.5,1.52-.33,2.33,2.48,14.06,3.67,28.52,3.32,42.8.24.34.46.69.63,1.06s.32.72.36,1.08c1.19,12.26,1.47,25.58-.15,37.74.19,5.57-1.04,11.27-2.75,16.75-.18,3.07-1.07,5.79-2.65,8.18l.48,1.53-4.97,18.95c-2.01,9.71-3.23,18.98.34,28.56l1.1,1.16c2.07,7.38,3.22,14.89,3.47,22.52.36.37.76.78.87,1.31.86,4.08.82,11.13.76,15.47.63,3.95-.61,8.16-2.28,11.78-.68,3.69-1.99,6.92-3.91,9.67l.02,1.23c-4.2,8.55-8.92,16.86-14.17,24.93-9.05,14.93-15.14,32.82-8.53,49.75l-.16,1.78c-3.04.31-6.1.31-9.14,0-2.49-2.97-2.96-8.34-3.3-12.32-1.54-18.07,7.59-34.28,16.27-49.57l1.57-1.26Z"/>
      <path class="cls-1" d="M178.36,2.71l1.36,1.03c4.3,7.89,9.5,15.14,15.61,21.75l.06.91c.43.17.85.35,1.24.58s.75.45,1.03.76c15.01,16.3,29.07,32.37,36.09,53.62,2.28,6.89,4.01,13.93,2.77,21.08.21,8.3-.61,17.25-2.42,25.46s-3.8,17.05-6.68,24.65c-.38,1-1.02,1.85-1.7,2.66-.52,3.69-1.59,7.29-3.21,10.79-1.94,7.94-4.52,16.06-8.42,23.28-.71,4.14-1.95,8.15-3.74,12.05.43.62.22.82-.42.42l.19.43c-2.17,8.77-3.76,17.69-4.78,26.74l-.81,1.08c-.35,2.75-.29,5.39.19,7.91-.65,3.14-.64,7.4-.37,10.7,0,.12.3.22.67.31.12,4.99.54,9.94,1.24,14.84-.4.18-.62.41-.48.73,1.55,6.83,3.11,13.86,4.14,20.76l-.4.85c.29.37.56.75.78,1.16s.42.8.51,1.21c2.56,12.52,4.03,24.94,3.28,37.51.35.36.74.76.83,1.28.4,2.19.47,5.4.26,7.5.96,3.55,1.43,7,1.4,10.33.6.9,1.05,1.87,1.26,2.93,2.63,13.73,4.66,27.57,5.39,41.53l.83,1.21c.5,3,.92,7.33,0,10.01.39,2.2.39,4.45,0,6.65.5,7.33-.4,14.89-1.66,22.19l-.42.67c.58,1.76.31,3.69-.81,5.8-.53,1.35-2.29,5.26-2.99,6.3-.14.2-.43.3-.76.37l.29,1.39c-3.79,7.49-5.61,15.28-2.39,23.35l-.38,1.43c2.46,4.16,4.68,8.46,6.65,12.88l1.01.43c13.79,22,4.83,50.48-10.46,69.53l-15.59,20.32c-8.41,11.51-14.47,25.17-11.82,39.68l-.52,1.75c-2.9.31-5.82.31-8.72,0-.27-.2-.54-.42-.75-.67-1.14-1.31-1.55-6.57-1.68-8.64-1.06-16.25,8.22-30.41,17.48-42.93l12.73-16.83c13.73-17.35,21.28-38.93,10.1-59.8l-.07-2.01c-1.74-.94-3.84-4.39-4.62-6.33-.48-.6-.6-1.4-.36-2.4-1.17-1.26-2.04-2.9-2.6-4.9-1.09-.97-1.64-2.55-1.67-4.74-.25-.12-.46-.25-.51-.42-2.56-9.37.14-17.53,4.87-25.78.47-1.79,1.27-3.13,2.41-4.04l-.08-1.18c3.44-14.31,2.76-29.21,1.16-43.9l.58-2.29c-1.42-6.63-2.6-13.35-3.54-20.15.67-.33.49-.87.22-1.45-.44-.98-.75-1.73-.42-2.91-.37-.1-.36-.24,0-.42-1.39-2.42-2.72-6.1-1.66-8.73-.77-1.76-1-3.91-.83-5.82-.95.04-1.09-.38-.42-1.25-1.63-2-2.29-5.97-1.25-8.31-.95-2.98-1.26-5.98-.93-8.99l-.57-1.12c.02-12.15-1.08-24.21-3.53-36.12l.47-2.38c-2.34-4.75-2.66-10.55-2.49-15.79l-.73-1.36c-.69-5.24-1.16-10.53-1.43-15.86l.49-1.47c-1.56-5.97-1.06-13.23-.38-19.48.17-1.55.57-2.93,1.02-4.43.05-3.05.45-6.02,1.19-8.92.1-1.86.6-3.8,1.49-5.81l-.47-.82c4.07-14.37,8.46-28.7,13.16-43l1.02-1.47-.37-.88c.95-2.34,1.67-4.76,2.15-7.25.4-.18.77-.52,1.13-1.01-.15-.23,0-.5.42-.83-.44-.41-.31-.93.38-1.56l-.39-.6c1.81-6.08,3.63-12.22,5.46-18.43,1.52-6.6,2.93-13.24,4.23-19.92l1.13-3.95-.53-2.03c5.82-27.46-5.05-53.08-24.56-72.56l-17.65-17.61c-.45-.64-.74-1.35-.88-2.12-5.92-4.89-10.95-11.06-15.06-17.58l.11-1.53h9.97Z"/>
      <path class="cls-1" d="M190.82,2.71h9.55c1.33,1.45,2.26,3.25,2.79,5.38,6.86,13.91,15.34,26.94,25.42,39.1,6.04,8.69,12.02,17.58,17.15,26.88.24.44.37.93.5,1.44s.19,1.04.24,1.57l1.03.17c.26,1.4.92,2.84,1.97,4.31l3.98,7.51-.34.89c2.33,4.48,2.67,10.39,2.51,15.53-.11,3.48-.54,6.82-1.47,10.05-.2.7.1,1.45.4,2.13-1.66,8.99-4.23,17.84-7.44,26.39-.12.31-.35.57-.6.84s-.55.51-.86.74c.07,1.02-.04,2.02-.32,3-5.25,12.34-10.37,25.1-15.42,37.72-.38.94-1.04,1.74-1.7,2.5l.16,2.25c-2.86,8.73-4.46,17.61-5.08,26.68-.25,3.69-.23,7.33-.07,10.96,0,1.21.27,2.09.78,2.62.16,3.93.51,8.11,1.7,11.72l-.82.61.56.3c.51,2.93,1.27,5.9,2.26,8.91-.54.47-.65,1.14-.33,2.01,1.14,2.15,2.02,4.56,2.64,7.22-.54.26-.77.61-.56,1.09,3.59,8.79,6.65,18.56,7.06,28.25l.92,1.04c.85,3.7,1.29,7.87.74,11.43l.92,1.39c.07,4.58.37,9.15.89,13.69l-.57,1.54c.32-.03.81-.02.86.18.3,1.34,1.68,11.86,1.46,12.45-.68.16-.9.66-.66,1.49.95,1.54.7,4.43.42,6.23,1.17.44,1.14,1.16,0,1.66.33.42.6.85.65,1.3,1.44,13.34,1.53,26.86,1.01,40.25-.39,1.61-.21,2.77.55,3.48-.47,7.91-1.47,15.79-2.51,23.88-1.02,3.17-1.27,6.62-1.5,10.06-.79,4.28-1.95,9.09-4.02,12.86l.16,1.38c-2.69,4.43-4.23,9.41-5.41,14.31l-.56.51c.28,2.34.28,4.72,0,7.06l.59.47c.12,2.87.72,5.55,1.81,8.02l-.33.65,1.25,1.13c4.46,9.97,9.27,19.79,14.41,29.46,9.19,18.48,1.74,39.06-7.27,56.02l-1.34.65c-.99,2.64-2.78,5.72-4.46,8.12-.49.7-1.17,1.08-1.92,1.48-1.25,2.85-3.27,5.64-5.74,7.5l-.2.86c-9.75,11.68-20.83,25.01-20.59,40.89l-.73.56c-3.18.31-6.37.31-9.55,0-.44-.43-.82-.93-.96-1.53-1.92-7.95,3.62-21.59,7.81-28.42,6.5-9.6,13.46-18.86,20.88-27.8,8.59-10.75,13.62-23.41,16.16-36.81,2.77-14.59-1.81-24.33-9.12-36.81.28-.52.33-1.05.11-1.59-1.74-1.78-2.83-4.33-3.54-6.6-.36-.06-.66-.14-.75-.33-2.27-4.75-4-10.59-4.05-15.87-.03-3.28.12-8.25,2.53-10.44.29-.93.32-1.8.1-2.6,1.48-1.92,2.52-4.13,3.11-6.63.91-.14,1.24-.87.98-2.18,2.79-7.85,3.54-15.73,4.02-24.05l.93-1.52c-.22-3.74-.18-7.51.42-11.22-.69-.77-.63-.92.42-.83l-.33-1.7c-.24-5.29-.52-10.41-.94-15.72.51-1.1.65-2.49.44-4.19-.11-6.44-.91-12.84-2.4-19.19l-.05-3.6c-1.01-2.06-1.16-4.02-.45-5.88-.69-4.21-1.49-8.43-2.41-12.65l.34-1.48c-.8-2.22-1.15-4.64-1.41-6.98-.76-6.87-1.27-13.98-1.63-20.91-.02-.47.05-.94.14-1.42s.24-.97.41-1.45l-1.09-2.07c-1.47-8.45-3.26-16.84-5.39-25.15l.24-2.28c-.31-.39-.6-.79-.84-1.22s-.46-.84-.57-1.28c-1.65-7.02-3.13-14.49-3.17-21.6l-.69-1.06c-1.18-7.41-1.16-15.13-1.1-22.75l.54-1.12c.5-1.63.38-2.76-.37-3.4.08-5.82,1.45-12.04,3.09-17.75.1-.34.41-.62.79-.88.44-3.11,1.34-6.14,2.69-9.09.17-2.02.88-3.98,2.11-5.86l-.44-.73,2.27-4.96c3.28-8.92,6.68-17.69,10.21-26.3l-.45-.74c6.54-14.87,9.42-31.94,12.08-48.29-.28-3.13-.26-6.39,0-9.56l-.91-.8c-5.83-24.68-22.29-46.13-38.4-65.56-.49-.81-.82-1.68-.98-2.61-1.53-1.37-3.01-2.88-4.45-4.53-1.77-3.16-3.82-6.18-6.14-9.07-2.13-3.34-4.93-7.91-4.78-11.75Z"/>
      <path class="cls-1" d="M222.39,2.71l1.01.45c2.38,19.25,13.81,36.26,25.32,51.6l9.26,11.97c.34.64.52,1.32.54,2.04,1.45.76,2.37,1.78,2.75,3.05,1.6.58,2.31,1.44,2.13,2.59.6,1.07,3.18,3.24,4.3,4.02,7.98,8.64,9.32,20.53,7.24,31.68l-1.05,1.04c.44,1.22.16,2.78-.12,4.09-1.02,4.7-3.26,9.76-5.25,14.16-4.77,9.62-9.84,19.14-15.02,28.54-.16.29-.42.53-.69.76s-.6.45-.93.64l.32,1.23c-3.51,6.23-6.07,12.74-7.7,19.55l-.93.82c-.75,5.49-1.26,10.96-1.54,16.42.61.98,1.29,3.6.24,4.14l.05,2.71c.67,1.42.81,2.66.42,3.74,1.11,5.57,2.24,11.17,3.4,16.81l.92.72c1.27,3.22,1.91,6.38,1.91,9.48,4.49,10.36,8.6,21.54,11.59,32.49.14.5.15,1.04.16,1.58s-.05,1.1-.12,1.66c2.33,2.82,2.87,7.19,2.49,10.8l1.19,2.29c.98,3.92,1.31,9.64.47,13.49.25.46.47.93.65,1.42s.32.96.36,1.44c.45,5.87.22,11.74-.59,17.5.35,2.62.39,5.28,0,7.89.67,1.49.19,3.85-.42,5.4l.52.82c.3,2.17,0,4.25-.93,6.25-.38,1.75-.27,3.25.31,4.48l-2.08,17.43c-1.31,3.41-2.06,7.14-2.23,10.81-.73,2.69-1.47,5.36-2.23,8.01-.3.69-.66,1.61.04,2.11-3.24,13.76-6.71,27.46-10.93,40.95-.19.62-.52,1.2-.85,1.78s-.72,1.15-1.13,1.7l.53,1.04c-.96,2.43-1.78,4.9-2.44,7.43l-.99.68.19,1.3c-.9,4.67-1.1,9.36-.6,14.08l1.02,1.65c1.25,9.51,5.17,18.37,9.69,26.75l12.54,22.58c4.87,9.86,8.2,18.74,8.34,29.86.03,2.2,0,5.63-1.27,7.25-.82,21.88-16.25,39.59-30.21,55.09-4.89,5.77-9.34,12.05-11.74,19.29l-1.25,1.24c-3.6.31-7.2.31-10.8,0-1.1-3.71,1.24-8.79,2.93-12.36,2.23-4.73,5.28-9.02,8.48-13.12,7.4-8.3,14.26-17.04,20.58-26.24,1.53-2.98,3.33-5.68,5.39-8.11.21-2.41.97-4.79,2.29-7.15,10.64-23.79.36-46.27-12.63-66.68-2.52-4.46-4.69-9.08-6.47-13.88-.1-.28-.08-.62-.04-.97s.13-.71.24-1.06c-1.24-1.16-1.79-2.95-1.67-5.34-.87-.33-1.01-1-.68-1.83-.71-8.26-.49-15.96,2.77-23.75l1.25-1.07c-.03-2.01.54-4.01,1.73-5.98,3.8-13.75,6.06-27.98,8.23-42.13.26-1.06.68-2.06,1.25-2.99.23-9.04.87-18.17,1.87-27.22l.62-1.45-.32-1.26c.38-10.21.34-20.17-.1-29.9l-1.07-11.53c-.27-.19-.49-.39-.51-.61-.26-2.71-.64-8.21-.42-10.76.58-.56.7-1.37.34-2.45l-.83-1.36c-.28-4.9-1.13-9.76-2.56-14.56l.48-1.52-1.42-2.26c-1.76-6.34-3.69-12.64-5.78-18.88-.12-1.67-.35-3.35-.69-5.04-1.42-1.12-1.83-2.44-1.25-4.15-.3-.28-.59-.58-.84-.9s-.46-.64-.57-.99c-1.47-4.71-2.59-9.49-2.75-14.31-.56-.59-.98-1.28-1.24-2.05-.85-5.53-1.36-11.07-1.67-16.65-.21-.3-.4-.6-.54-.93-.92-2.12.31-13.34.79-16.38.68-4.27,1.73-8.65,3.22-12.68l.69-.76c-.11-.36-.2-.72-.23-1.08s-.06-.71.05-1c2.42-6.9,5.44-13.61,8.59-20.21.14-.29.39-.52.66-.76s.58-.44.91-.63c-.27-.96-.05-1.88.39-2.77,7.36-13.34,13.01-27.26,16.96-41.78.29-3.94.62-7.83.98-11.66-.27-.44-.46-.91-.47-1.43-.08-4.21-.7-8.21-1.65-12.17l-1.37-1.03c-3.18-6.1-7.13-12.04-11.26-17.23-.35-.44-.31-1.1-.25-1.68-1.19-.94-2.26-2-3.2-3.18-6.45-9.06-12.72-18.25-18.94-27.47-6.98-10.35-12.87-21.16-16.04-33.31-.08-.31-.02-.65.05-1.02s.19-.73.33-1.08h9.55Z"/>
      <path class="cls-1" d="M234.85,2.71h9.97l.64,1.91c-2.8,26.37,15.05,46.17,33.1,62.71l.31,1.03c1.18-.15,2.17.55,2.97,2.1,1.32.57,2.09,1.22,2.3,1.95,6.72,4.01,12.89,10.75,13.75,19.08-.62,1.43-.87,3.14-.75,5.12.19.21.37.44.5.68,1.83,3.51-7.08,18.88-9.96,22.09l-13.95,18.32c-2.26,3.28-4.34,6.7-5.74,10.43l-1.16.82c-5.89,13.44-6.74,27.58-2.85,41.9-.34.53-.5,1.1-.47,1.73,1.41,1.15,2.28,4.77,2.61,6.74-.39.3-.58.68-.53,1.15.99,1.63,2.01,3.41,1.85,5.31,1.36,1.8,2.41,4.03,1.88,6.32,1.5,2.45,2.83,5.12,4,7.99l-.26,1.15c.3.37.59.75.8,1.16,3.43,6.51,6.99,15.67,9.34,22.78.85,2.57,1.68,5.46,1.9,8.05.32.31.62.63.88.99s.49.69.61,1.07c2.49,7.76,4.5,16.49,3.91,24.54.24.34.46.69.63,1.06s.32.72.34,1.09c.49,6.82-.08,13.74-1.24,20.39.51,2.27-.11,4.64-1.16,6.71-.29,2.32-.78,4.49-1.48,6.49.12,5.88-1.67,12.22-4.15,17.52-1.06,4.73-2.58,9.28-4.57,13.65-.05.83-.13,1.67-.26,2.49s-.28,1.63-.54,2.39c-5.49,16.12-11.96,32.02-18.89,47.55-.97,3.13-2.16,6.15-3.57,9.06l-.26,2.8c-4.33,11.42-4.37,24.18-1.42,35.88.32,2.06.6,4.13.85,6.19,1.97,3.19,3.6,6.67,4.88,10.43,6.59,12.9,13.7,25.52,21.34,37.86.29.77.41,1.57.36,2.4,5.38,6.81,8.48,15.34,11.18,23.58l-.38,1.77c.29.27.56.56.79.88,1.48,2.07,2.07,9.96,2.24,12.97,1.1,19.44-6.86,36.6-20.12,50.52-5.85,6.05-11.44,12.33-16.76,18.84l-1.87,1.13c-4.15.31-8.31.31-12.46,0,.39-2.75,1.69-5.36,3.91-7.82,9.18-10.72,18.02-21.66,26.52-32.83,6.89-9.87,9.42-21.53,10.14-33.19-.69-1.45-.69-3.29.13-4.7l-.96-1.59c-1.1-11.84-6.06-22.83-11.78-33.11-8.71-13.58-16.12-27.73-22.24-42.45-2.55-7.6-5.36-21.87-3.1-29.54.2-.68.62-1.25,1.12-1.75-.35-3.15.19-6.33,1.61-9.55,5.66-15.03,11.02-30.33,16.03-46.04l1.47-2.99c-.13-1.66.26-3.31,1.17-4.96,1.26-7.13,2.97-14.57,5.89-21.21.48-4.7,1.32-9.35,2.53-13.95-.16-3.23-.04-6.47,1.62-9.31-.32-3.48.18-7.62.79-11.01l-.41-.48c.48-4.08.56-8.13.24-12.15l.62-.88c-.61-5.26-1.35-10.53-2.24-15.81l.57-1.64c-.7-1.36-1.07-3.5-.83-4.99-1.14.09-1.28-.33-.42-1.25l-1.11-1.18-2.61-10.12.4-1.57-1.67-2.54c-2.99-8.63-6.18-17.19-9.55-25.68-.62-2.34-1.17-4.7-1.66-7.1-2.26-2.34-3.17-6.32-2.91-9.56-2.69-4.1-3.6-9.64-3.32-14.54l-1.07-1.35c-1.71-7.92-1.22-15.5-.55-23.43.05-.6.25-1.07.79-1.4.04-.5-.17-.89-.58-1.21.31-2.37,2-6.83,3.04-9.1.08-.17.37-.24.73-.28.36-2.11,1.33-3.77,2.38-5.55.07-1.31.73-2.57,2-3.8,1.7-3.39,3.61-6.57,5.72-9.56l-.1-.9c5.29-7.43,9.96-15.3,14.01-23.62l.79-.02c.78-1.97,1.7-3.76,2.75-5.37l-.24-1.73c5.45-12.89,2.64-25.23-7.58-34.52l-8.97-8.97-.1-.73c-2.04-1.33-3.34-2.91-3.88-4.74-.36-.08-.7-.18-1.03-.33s-.62-.29-.82-.52c-13.65-15.21-26.83-35.1-27.19-56.19,0-.32.12-.64.25-.98s.33-.67.54-.98Z"/>
      <path class="cls-1" d="M126.86,567.78c1.65-4.8,3.59-9.51,5.81-14.13-.63-.92-.74-1.78.43-1.92.61-3.47,1.26-6.96,1.94-10.48l.95-.9c.18-4.88-.03-9.73-.6-14.55-1.38-2.29-2.43-6.94-1.48-9.55-1.73-4.94-2.65-10.27-3.03-15.6.71-.31.89-1.2.54-2.68-.23-.18-.44-.37-.56-.61-.32-.63-.59-12.69-.38-14.05.34-2.13,1.22-5.4,1.89-7.55.58-.32.81-1,.71-2.06,2.61-6.27,4.99-12.62,7.14-19.05l1.16-1.14c.01-3.78,1.06-7.67,2.08-11.22-1.12-.41-.67-1.18.42-1.25-.68-2.91-.27-5.73,1.25-8.31.21-8.2.95-16.5,2.5-24.62l.83-1.97-.33-3.51,3.21-20.22,1.27-3.28-.34-1.83c.65-8.19,1.11-16.41,1.37-24.64.05-6.26.26-12.4.63-18.41l-.85-1.25c-.16-4.36-.63-8.6-1.43-12.73l.62-1.39c-1.71-3.48-2.61-7.24-2.69-11.28-.79-.51-.96-1.18-.52-2.02-.77-2.03-1.22-4.11-1.36-6.23-.65-.87-1.33-1.76-1.68-2.8-1.88-5.5-3.55-11.1-4.55-16.73l-.94-1.09c-3.64-8.97-6.88-18.24-8.96-27.69-1.15-1.66-1.21-3.34-.9-5.29-.51-.39-.92-.88-1.18-1.47-1.28-2.94-1.93-11.09-2.04-14.6-.37-11.37,3.38-22,7.86-32.49,1.58-1.72,2.48-4.21,2.92-6.49,2.98-6,6.11-11.89,9.39-17.67,1.41-4.15,3.38-7.89,5.9-11.22l-.17-1.57c5.88-12.54,11.56-25.51,14.63-39.11,2.12-9.38,3.05-18.41.36-27.74-3.33-11.57-8.97-22.58-14.69-33.13-.21-.62-.24-1.26-.12-1.91-1.01-.86-1.91-1.83-2.58-2.97-5.64-9.62-11.79-18.72-18.05-27.8-5.31-7.36-9.31-15.29-11.99-23.78l.22-1.12h6.23l1.2.99c4.94,10.74,11.47,20.69,19.61,29.85,1.08,2.01,2.48,3.77,4.19,5.28,2.11,2.83,4.41,6.03,5.73,9.16.33.11.65.23.94.4s.55.33.7.56c2.45,3.84,4.69,7.81,6.67,11.91l1.24,1.05c2.47,6.18,5.09,12.31,7.86,18.38,3.23,7.48,5.52,15.06,5.43,23.26-.03,2.31-.5,6.54-2.08,8-.11,6.79-1.75,13.71-4.15,19.94.64,2.13-.6,5.75-2.49,7.06l-.33,3.32c-6.31,16.21-13.23,32.22-20.77,48.03-6.28,12.7-10.68,25.91-13.19,39.61l-1.02,1.69.33.85c-.38,3.17-.18,6.19.59,9.08-.39,1.49-.54,2.94.46,4.17-.36,1.85-.1,3.24.8,4.15l2.34,9.84-.37,1.82c1.61,3.02,2.93,6.48,3.5,9.79.37.33.69.67.84,1.08,1.63,4.45,3.27,8.92,4.77,13.42.14.41.15.86.15,1.32s-.05.94-.12,1.41c1.96,1.94,3.01,5.19,2.49,7.89.94,1.32,1.45,2.93,1.52,4.81,1.66,4.74,3.04,9.6,4.06,14.57.08.41.07.84.04,1.29s-.12.9-.22,1.35c.2,0,.36.02.37.08.91,3.65,1.48,7.22,1.96,11.09-.51.19-.73.63-.66,1.3l1.04,5.38c1.03,12.49.51,27.54.04,40.21-.08,2.08-.19,4.32-.67,6.35-.35,1.21-.18,1.95.52,2.22-1.04,7.21-2.09,14.43-3.14,21.68l-.6.3c.02,2.61-.35,5.05-1.35,7.38.18.96.35,1.96.19,2.93-1.65,9.79-3.37,19.68-5.71,29.29.13,2.33-.52,4.61-1.95,6.84-.17.62-.02,1.18.41,1.68-2.17,6.25-4.03,12.58-5.59,18.99l-1.05,1.35c-.12,4.43-.26,8.86-.42,13.3l.5.66.33,10.97.83,1.01c.27,3.87.77,7.71,1.5,11.54l-.67,1.17.99,1.01c1.86,8.25,2.09,16.04,0,24.4-.06.25-.37.45-.76.62-.9,6.43-3.67,12.35-6.77,18,.07,1.18-.4,2.41-1.59,2.76-.44,1.71-1.19,3.15-2.26,4.32l.14,1.01c-6.73,14.4-13.42,29.63-8.93,45.8l-.35,1.79c-2.9.31-5.82.31-8.72,0-.25-.21-.5-.43-.69-.68-1.52-1.95-.89-10.96-.52-13.82,1.35-10.51,5.87-20.29,10.47-29.77l1.55-1.43Z"/>
      <path class="cls-1" d="M119.38,555.32c-.28-2.48-.28-5,0-7.48-1.02-.12-1.16-.67-.42-1.66-1.58-4.35-2.86-8.94-3.83-13.77l.51-1.6c-1.44-3.63-2.14-7.47-2.4-11.43-.69-.44-1.04-1.06-1-1.87l-.51-7.09c-.36-.29-.66-.59-.7-.93-.43-3.02-1.59-12.59-.55-14.75.16-.33.37-.63.59-.92-.69-1.45-.49-4.67.67-5.97.06-2.46,1-4.43,2.28-6.48,8.19-11.12,12.27-23.94,13.09-37.87l.99-1.62c-.3-3.54-.29-7.3-.05-11.01l.88-1.87c-.88-.67-.71-1.69,0-2.49.22-4.33.36-8.77.42-13.3-1.28-1.13-.9-5.85.42-6.86-.32-.04-.76-.11-.83-.37-.15-.53-.11-7.36,0-8.18l.83-.59c-1.21-.69-.3-2.93.83-3.12-.15-.46-.28-.92-.36-1.39s-.14-.92-.07-1.35c1.45-9.35,3.77-19.2,7.07-28.01-.63-3.21.32-8.05,2.08-10.8.28-.83.1-1.57-.5-2.23l1.04-9.02c.61-6.38.84-12.74.7-19.08l-1.04-2.03c-.78-6.83-1.82-13.63-3.12-20.4-.62-.84-1.24-1.72-1.56-2.72-2.39-7.58-4.79-15.31-6.33-23.04-.37-.43-.72-.86-1.03-1.33s-.59-.92-.77-1.41c-2.36-6.47-4.72-13-6.87-19.54-3.69-11.2-6.85-22.47-8.54-33.99.03-3.13-.25-6.16-.83-9.09,1.05-8.64,2.4-17.75,7.25-25.22l-.11-1.05c5.36-10.58,11.46-20.8,18.3-30.67,11.82-18.62,20.49-42.91,7.29-62.49l.26-1.35c-4.17-5.99-7.38-12.56-9.55-19.53l-1.99-2.13c-6.29-11.62-12.51-23.95-17.67-36.1-.18-.42-.23-.9-.27-1.4s-.03-1,0-1.5c-1.6-1.23-2.15-2.62-1.66-4.15-.65.17-.78-.25-.42-1.25-.29-.22-.57-.45-.81-.72-1.45-1.63-4.49-15.37-3.81-17.42.11-.34.28-.66.47-.98h5.81l1.31,1.96c2.63,10.6,7.41,20.48,12.71,29.98l11.98,21.01c1.08,1.73,1.69,3.48,1.84,5.23.37.26.73.53,1.06.84s.61.62.81.98c5.23,9.62,10.51,20.8,14.35,31.04,6.5,17.32.09,35.96-7.21,51.95-2.98,6.52-6.72,14.23-10.49,20.27l-1.42.88-.06,1.85c-.91,1.05-1.73,2.2-2.47,3.46-1.24,2.65-2.6,5.23-4.07,7.72-.94,1.48-1.84,3.06-2.64,4.64-.54,1.08-1.12,2.34-1.31,3.34-4.09,7.7-7.34,15.56-8.38,24.38l-1.01,1.56c.13,2.99.13,6.03,0,9.14l.86,1.05c1.33,9.95,3.83,19.69,7.48,29.21l-.45,1.31c3.95,7.99,6.95,16.82,9.5,25.52l.05,1.9c1.02,1.42,1.65,3.09,1.88,5,.41.13.74.3.84.55.77,1.98,3.77,10.63,3.43,11.91-.08.29-.2.56-.35.82,1.23,2.78,1.78,5.55,1.66,8.31.67.31.95,1.14.83,2.49.33.03.83.09.9.33.23.8,1.34,7.08,1.27,7.61-.44.49-.61,1.17-.5,2.03,1.11,4.61,2,9.18,1.78,14.02-.63,2.44-.94,4.96-.95,7.59l.6,4.43c-1,13.08-2.79,26.25-6.42,38.78l.35,1.25c-1.37,11.26-2.83,22.46-4.5,33.66.46,4.05.28,7.93-.57,11.92.07,2.09-.16,4.08-.68,5.95.85,2.52.65,6.23-.96,8.34.2,2.13.3,4.29-1.08,5.96.21,2.17-.22,3.78-1.29,4.82l.42,1.49c-2.51,6.91-5.93,13.6-9.82,19.78-1.12,3.51-2.12,7.03-2.98,10.57l-.49.57c.73.48.73.76,0,.83.28,2.9.29,5.83,0,8.73l.94,1.96c.16,3.94.69,7.8,1.61,11.57-.44,1.53-.2,3.63.99,4.69.91,5.41,1.81,10.84,2.69,16.26,2.03,3.02,1.83,8.04,1.63,11.77-.2,3.91-.97,7.52-1.91,11.2-1.31,3.89-2.74,7.82-4.27,11.78l-.86.57c.15.96-.09,1.88-.48,2.76-6.61,11.25-10.91,23.11-12.88,35.59.21,2.13-.05,4.03-.76,5.7-2.35.31-4.71.31-7.06,0-.33-.5-.68-1.06-.68-1.68.04-5.67,3.58-13.86,5.9-19.11,6-10.5,10.58-21.44,13.73-32.81.02-1.8.48-3.32,1.4-4.56Z"/>
    </g>
    <g>
      <path class="cls-3" d="M35.89,515.01c-2.79-6.48-.93-14.67,3.25-20.44,4.32-4.62,7.84-9.65,10.57-15.07l1.13-.63-.23-1.87c3.26-9.32,2.95-19.72,2.61-29.58.42-2.11.59-4.37.53-6.78l-.84-1.3c-.32-4.93-.72-9.85-1.18-14.76l.36-1.39c-2.49-7.42-3.03-15.51-3.32-23.27l-1.03-1.31c-2.06-9.74-3.64-23.33.29-32.63.1-.24.4-.41.75-.55-.23-2.1.39-4.25,1.87-6.44,5.05-8.55,10.63-16.75,16.77-24.6,4.6-6.84,8.59-14.1,9.78-22.32l1.07-1.49c.17-.82-.03-1.55-.56-2.21,1.52-13.61-1.05-27.21-5.03-40.2-.12-1.63-.52-3.64-1.45-4.95-1.43-3.96-2.55-7.98-3.34-12.06l-.93-.98c-7.73-17.89-14.09-36.24-19.08-55.06-.65-2.16-.77-4.1-.34-6.29-5.36-17.31-.46-35.87,12.64-48.81,4.82-4.78,9.33-9.82,13.55-15.11l1.63-.89.45-2.32c4.69-8.02,1.9-14.58-3.59-21.08-6.84-6.54-13.18-13.55-19-21.01l.12-1.29c-.41-.59-.97-.92-1.69-1.03-5.38-8.11-9.66-17.03-10.95-26.75-.41-3.09-1.08-12.34.33-14.6.19-.3.43-.57.68-.84.26-.84.54-1.13.47-.33l.36-4.65c-.13-.37-.24-.74-.29-1.12s-.1-.72-.01-1.04c2.16-8.2,5.49-16.85,8.64-24.66l.8-.6h7.06l.44,1.44c-1.58,4.06-3.38,8.03-5.41,11.9l-1.25.79c-1.08,1.04-1.64,2.43-1.66,4.15l.06,2.18c-7.69,18.27-5.22,37.17,6.55,53.05l.45,2.12,1.85,1.16c6.79,8.07,13.84,15.9,21.14,23.49l.27,1.12c2.81.67,4.82,5.15,5.58,7.9,2.2,7.96-3.86,14.88-9.21,19.99-7.06,6.33-13.42,12.04-18.14,20.6-4.54,8.24-5.55,14.61-4.8,24.04.62,7.73,2.41,15.77,4.42,23.39l-.29.89,1.43,2.07c2.19,6.65,4.38,13.28,6.58,19.89l-.12,1.3c2.1,3.56,3.43,7.73,4.67,11.76,1.57,3.47,2.96,6.97,4.19,10.51,1.04,2.58,1.89,5.29,2.56,8.11.48.33.89.69,1.05,1.13,4.38,12.34,8,25.12,9.44,38.14l-.31.57c3.57,16.03-2.24,31.41-11.72,44.48l-1.57.81c-.83,1.65-1.72,3.31-2.66,4.98l-.88.14c-1.25,1.97-2.59,3.95-4.02,5.93-.34,1.18-.94,1.83-1.78,1.96-3.46,5.37-6.33,11.07-7.53,17.43l-.99,1.14c.21,2.76.22,5.56.02,8.41l.51.57c.25,5.62,1.07,11.19,2.47,16.71-.57.49-.77,1.06-.51,1.74.97,1.21,1.25,2.73.83,4.57.73,1.57,1.24,4.05,1.09,6.44.91.64,2.25,8.76,2.03,9.48-.66.19-.87.71-.62,1.53.49,1.11.66,2.46.46,3.69.76.61,1.48,3.07.37,3.79.94,2.86,1.73,5.59,1.65,8.66l-.82.69c1.38.4,1.27,5.59,0,6.23,1.32.25,1.59,2.87.42,3.53.17,5.54.23,11.09,0,16.62.26,1.37.19,4.96-.2,6.25-.05.18-.31.3-.63.4,1.04,2.04-.1,7.1-2.08,8.31l.35,1.35c-2.78,5.69-6.84,10.45-12.2,14.3-5.28,4.27-7.59,10.25-7.05,16.98.49,5.53,1.26,10.99,2.29,16.4,2.28,3.23,3.69,8.05,3.74,12.05l1.32,1.36,6.56,18.14c-.36,1.31-.12,2.84,1.08,3.55.52,1.73.92,3.51,1,5.32,1.2,1.16,1.62,2.78,1.25,4.88.25.17.49.36.69.58,1.1,1.23,1.2,7.61,1.19,9.68,0,3.31-.23,6.28-1.09,9.34.17.29.29.58.24.83-.8,4.25-2.63,8.84-4.36,12.8.6,2.03-1.56,5.93-3.32,7.06-2.9.31-5.82.31-8.72,0l-.39-.91c.58-4.04,1.37-9.07,3.71-12.39-.01-2.53.38-5.09,1.18-7.66,1.8-11.49,1.39-22.77-2.27-34.01l.25-1.96c-.92-1.73-1.79-3.49-2.62-5.28-2.74-6.95-5.17-15.18-7.03-22.45-.12-.47-.11-.97-.1-1.48s.09-1.03.19-1.54l-1.02-.69-1.11-5.21c-.71-2.04-.69-3.68.05-4.91Z"/>
      <path class="cls-3" d="M55,520.83l-.56-.38c-.65-3.61-.95-7.26-.9-10.95-.33-.18-.6-.36-.61-.55-.23-4.37,1.96-9.28,5.35-12.01,8.31-5.45,15.19-10.85,17.68-21.14l1.05-.67c-.34-1.21-.21-2.04.42-2.49-.09-.91.05-1.47.42-1.66-.08-2.61-.14-5.2-.06-7.84l.89-.88c-.31-12.71-1.09-25.41-2.33-38.11-.51-3.95-.84-7.86-.99-11.75-.82-.59-1.42-1.05-.42-1.66-1.57-3.74-2.11-7.6-1.66-11.63l-1.05-1.34c-1.35-6.57-1.97-13.18-1.86-19.85-.21-.19-.4-.39-.55-.62s-.27-.44-.25-.63c.3-2.17.88-4.96,1.48-6.98,0-2.43,1.2-5.65,2.29-8.06.08-.19.39-.27.76-.33-.1-.27-.19-.55-.22-.83-.25-2.34,12.16-18.28,14.59-21.37.54-.07,1.02-.29,1.41-.65l.22-1.86c8.67-12.31,10.91-26.65,8.29-41.31l.2-4.2-1.25-2.31c-3.49-14.25-7.82-28.26-12.97-42.04l.1-1.35-.92-.95c-4.91-12.61-9.81-25.49-13.72-38.52-2.12-7.06-4.39-14.73-5.35-22.02-.05-.4,0-.81.09-1.23s.22-.85.37-1.26c-1.4-5.82-2.09-12.76-.42-18.7.48-.91.29-1.06-.43-1.5l.84-.58c-.53-5.72,4.14-11.94,7.8-16.26,5.8-5.84,11.66-11.61,17.58-17.32,7.62-8.46,7.35-13.92-.45-22.11v-1.24c-9.93-8.35-19.88-18.27-26.53-29.57l-.06-1.17c-.34-.16-.67-.34-.97-.57-.28-.21-.54-.43-.72-.7-1.56-2.39-2.92-5.45-4.07-8.1-9.4-21.68-1.7-37.49,8.19-57.02.57-1.13,1.08-2.27,1.29-3.45l.86-.39h5.4l.22,1.72c-6.08,15.39-12.52,32.23-7.78,48.87-.45.54-.58,1.12-.32,1.76l.91.56c.77,3.92,2.64,7.54,4.52,11.06,1.98,2.91,3.49,5.97,4.53,9.16l1.48.76c4.31,6.25,9.1,12.11,14.38,17.58l.33,1.61,1.39.3c4.29,4.05,10.89,12.35,11.51,18.31.62,6-3.88,12.3-7.87,16.59l-.87.12c-.01.62-.18,1.2-.51,1.73l-11.81,11.95c-17.16,17.89-10.6,43.93-4.1,65.09l8.03,23.15-.35,1.54,1.31,2.12c3.31,10.68,7.33,21.46,11.12,31.49l-.38.88c2.4,6.16,4.22,12.59,5.46,19.1,1.7,4.13,3.04,9.74,2.02,14.14,1.16,1.98,1.4,4.43.63,6.58,2.49,18.01-8.29,32.86-18.4,46.58-1.37,2.08-2.64,4.23-3.71,6.49l-1.36,1.01c-.25,1.26-.97,4.44-1.46,5.6-.06.13-.31.19-.61.22-1.58,7.66-1.28,15.46.41,23.06-.54.56-.69,1.18-.41,1.87,1.16,4.27,1.96,8.79,2.74,13.27l-.66,1.27c1.57,5.26,2.45,10.73,2.66,16.4.85,5.04.93,9.96.25,14.76.29,1.86.43,3.8.42,5.82.19.11.18.25,0,.42l.83,1.61c.4,5.54.47,11.99-1.25,17.09.17.33.32.67.41,1.02.83,3.09-2.88,13.76-5,16.6-.6,1.3-1.55,3.25-2.47,3.99l-.52,1.96-10.12,9.81c-3.67,4.28-4.24,7.1-4.46,12.63-.17,4.36.37,8.05,1.11,12.34l-.14,1.9c.56.65,1.04,1.35,1.32,2.17,2.26,6.61,3.9,14.34,5.32,21.1l1.19.96c3.07,7.38,6.73,17.27,8.43,25,1.19,5.44,1.75,11.29,1.13,16.94-.15,1.33-.18,2.13-.18,3.36,0,.49-.55.86-1.02,1.11.14.27.26.55.32.84.54,2.35-6.65,14.02-8.46,16.68l-1.41.76c-2.07.31-4.16.31-6.23,0l.2-1.73c3.65-5.3,6.42-11.26,7.48-17.64.53-.34.88-.8,1.04-1.4-.06-2.82-.11-5.7-.14-8.66-.31-.17-.57-.34-.6-.55-1.19-7.67-3.83-14.43-6.65-21.64l.33-1.56c-2.69-5.46-5.4-11.06-7.1-16.99-.24-.82-.1-1.71.04-2.54-.99-2.7-2.08-5.33-3.25-7.9.17-1.36.23-2.91-1-3.62l-1.7-6.98.55-1.45Z"/>
      <path class="cls-3" d="M80.75,493.41l-.19-.93c1.47-1.16,2.96-2.45,4.49-3.88-.33-.45.04-.79,1.11-1.01-.86-.65-.64-.96.42-.83.52-1.41,1.33-2.72,2.45-3.95-.23-.9.13-1.5,1.05-1.68,2.27-6.44,4.65-13.42,5.11-20.57l.95-1.22c-.67-4.38-1.06-9.55.42-13.71-.54-.95-.49-1.94,0-2.91l-.42-6.65c-1.2-9.35-2.2-18.81-3.01-28.25-.04-.47.03-.95.12-1.44s.23-.99.4-1.47c-.27-.46-.52-.93-.71-1.42s-.37-.96-.45-1.45c-.77-4.97-1.2-10.07-.91-14.99-.39-2.47-.4-5.01,0-7.48-.27-.37-.27-.92,0-1.66-1.2-.83-.41-2.88.35-3.88-.24-1.75.79-3.51,1.72-4.85.14-.56.24-.95-.45-1.19-.06-.45,2.84-7.27,4.19-7.12-.15-.63-.13-1.25.06-1.86,7.12-9.65,12.27-20.07,15.44-31.24.89-5.5,1.46-11,1.71-16.52-.55-2.93-.67-6.03-.6-8.96l-1.15-2.29c-1.31-7.49-2.82-15.01-4.98-22.22l-.1-2.5c-.79-1.22-1.57-2.47-2.05-3.85-3.76-10.81-7.48-21.67-11.09-32.52-.22-.68-.32-1.4-.42-2.13s-.13-1.47-.15-2.21l-1.22-1.06c-3.12-8.05-5.9-17.6-8.13-25.99-5.56-20.97-9.79-42.76,6.98-59.79,7.01-6.59,13.04-13.82,18.11-21.7l1.29-.74c.63-2.6,1.08-5.29,1.34-8.06.78-5.9-2.71-11.87-6.65-16.64l-8.89-10.6.08-1.26-1.47-.56c-4.99-6.8-9.48-14.01-13.24-21.56l.17-1.56-1.3-.83c-1.54-3.31-3-6.66-4.1-10.15l.42-1.49c-1.36-2.33-2.15-5.83-2.61-8.69-2.13-13.16.85-27.04,4.67-39.59l1.26-1.58h5.4c.31.71.46,1.46.44,2.23-2.21,12.91-3.7,26.54,0,39.19l-.45,1.38,1.36,1.95c3.41,11.16,8.18,21.74,14.32,31.73l.11,1.23,1.5.82c2.14,2.79,14.06,19.01,14.01,20.73,0,.29-.07.59-.15.88,2.68,1.68,3.66,6.47,4.11,9.61,1.52,10.5-4.44,19.81-10.82,27.59l-8.83,10.45c-9.63,10.66-14.85,23.05-13.58,37.51-.53.26-.66.82-.38,1.67.21,1.49.64,2.87,1.3,4.15-.41,2.76-.05,5.57,1.09,8.41.49,5.28,1.72,10.31,3.69,15.08,2.49,8.55,5.2,17.11,8.11,25.7,4.09,9.49,7.65,19.5,10.42,29.48l-.1,1.52c.97,1.07,1.48,2.5,1.51,4.28,2.08,4.35,4.4,9.52,3.89,14.41.86,1.28,1.26,2.87,1.21,4.76,1.56,5.64,3.03,12.09,2.11,17.26.52,6.95.87,14.29-1.95,20.77.2.36.34.71.26.99-1.95,6.91-5.88,15.29-9.63,21.43l-1.56,1.26c.21,1.53-.91,3.43-2.08,4.57.89.97,0,2.57-1.25,2.49l.32,1.42c-1.6,3.87-2.94,7.85-3.49,12.02l-.98,1.1c.72,13.51,1.83,27.05,3.34,40.64.56,4.21.42,8.25-.43,12.13.46,1.08.77,2.21.87,3.38.46,5.34.12,11.77-.87,16.97l-.29,2.26c1.02,5.65-1.1,13.33-3.26,18.81-1.09,2.76-2.22,5.15-4.04,7.32.18.58-.08.8-.71.69l.15,1.25c-4.45,4.61-8,9.65-10.64,15.14-2.02,7.77-.59,15.95.87,23.72,1.29,4.83,2.14,9.61,2.56,14.32l1.1.9c2.48,7.16,5.37,15.66,7.17,22.97.79,3.23,1.2,6.1,1.41,9.4.64.23.6.77-.12,1.63,1.78,3.38.65,8.85-.3,12.63-2.27,9.07-8.88,19.56-14.25,27.25-.4.58-1.05.93-1.66,1.25-1.24.31-2.5.31-3.74,0l.09-1.64c8.29-11.48,15.89-24.54,11.82-38.99.4-.37.59-.81.55-1.33-.9-1.79-1.52-3.78-1.86-5.96-.38-.32-.71-.65-.85-1.05-2.58-7.49-5.02-15.18-7.02-22.8l.18-1.36c-1.27-1.84-1.99-3.95-2.14-6.32-1.06-1.39-2.9-7.24-2.41-8.68.09-.28.24-.54.4-.8-.96-2.35-1.47-4.86-1.51-7.53-.67-.11-.83-.66-.49-1.65-.83-4.59-.81-9.04.67-13.61.93-2.88,2.64-7.35,5.49-8.37Z"/>
      <path class="cls-3" d="M105.26,572.77c-.17-3.25-.17-6.43,0-9.56-1.18-.22-2-3.16-.83-3.74-1.27-2.82-2.14-5.81-2.61-8.95-1.51-2.12-2.61-5.49-1.96-8.09-.99-1.31-1.52-2.89-1.6-4.74-.65-1.62-1.05-3.35-1.19-5.18-.84-1.89-1.32-3.92-1.45-6.07-.39-.15-.71-.32-.77-.55-2.19-9.03-3.64-20.51-1.32-29.58.45-1.77,2.03-6.97,3.43-7.64.25-.12.53-.2.81-.25,0-.23,0-.45.08-.65.8-2.06,2.26-4.08,4.07-5.17-.53-1.03-.18-1.28.83-.83l.09-1.68c3.52-5.56,5.92-11.75,7.14-18.21l1.09-1.3c.66-9.93,1.04-19.92,1.13-29.97l.53-1.2c-.7-1.82-.88-3.88-.56-6.19-.29-.33-.52-.66-.55-1.01-1.01-11.97-2.33-30.16.24-41.65.47-2.12,1.18-4.05,2.11-5.99l-.68-.65c1.93-5.7,4.13-11.38,6.58-17.03l1.17-1.02-.41-.76c3.1-6.72,5.05-14.06,6.36-21.61.05-.29.3-.54.62-.78.33-6,.36-11.99.08-17.98l-.83-.97c-.41-4.73-.99-9.44-1.74-14.15-1.09-1.37-.95-3.17-.76-4.82-1.57-2.74-2.68-5.77-3.33-9.09-2.46-7.96-4.84-15.71-7.05-23.73-5.87-13.03-9.81-26.88-13.29-40.72l-1.12-1.31c-5-19.05-8.43-38.7,4.05-55.89,7.72-10.04,14.97-20.37,21.74-30.99l1.5-1.14c.89-3.43,1.94-6.7,3.17-9.83,1.5-7,.39-14.46-2.82-20.84-.08-.16-.32-.24-.6-.3-1.63-3.81-3.69-7.33-6.15-10.56l-6.54-10.53.07-1.55c-1.27-.85-2.19-1.94-2.75-3.26-5.4-8.62-12.81-25.36-14.96-35.23-.07-.34-.05-.71,0-1.08s.15-.77.28-1.14c-.55-.59-1.1-1.23-1.34-2.02-2.34-7.48-3.56-23-2.23-30.71.14-.81.6-1.52,1.08-2.18h5.81l.77,1.88c-.12,8.58,1.72,17.01,4.08,25.2l-.28,2,.95,1.24c4.32,11.88,9.23,23.58,15.08,34.82l.58,2.99c3.17,3.33,5.68,8,7.08,12.33,1.16,1.61,1.99,3.31,2.48,5.12l1.28.66c10.87,16.88,10.77,32.01,1.35,49.67-6.72,10.71-13.69,21.25-20.92,31.63-10.39,15.38-10.98,32.76-5.78,50.09l-.43,1.75c1.18,3.35,2.2,6.78,3.06,10.3,4.89,13.26,9.57,26.65,14.05,40.08.19.56.24,1.16.3,1.78s.05,1.24.03,1.87c2.55,4.97,4.4,10.26,5.56,15.89,2.02,6.16,3.21,12.36,3.58,18.6,2.09,7.15,2.38,14.74,2.13,22.19l-.89,1.08c.61,5.09-.33,10.62-2.18,15.54l-.73.66c.24,1.23.08,2.89-.83,3.74.96.44.82.86-.42,1.25-1.09,5.18-2.4,10.17-4.35,15.15l-1.47,1.88.25,2.1c-2.69,8.28-3.34,16.83-3.98,25.41-.02.29-.3.57-.66.83.06,4.27,0,8.53-.18,12.79,1.29,3.6,1.46,7.53.42,11.22.29,4.36.36,8.73.2,13.12.65.89.84,1.99.57,3.3.08,3.4-.7,6.63-1.6,9.76.17.29.33.59.44.9.62,1.84-1.51,10.03-2.21,12.49-2.55,9-6.72,15.87-12.08,23.13-.77.11-1.14.32-.62.95-1.22,1.06-2.27,2.88-1.83,4.81-.61,1.44-1.13,3-1.55,4.67-.41,2.05-.38,4.18,0,6.23.61,2.45.75,4.81.42,7.06l1.11,2.25c.74,5.09,1.47,10.16,2.22,15.2l.98,1.19c1.61,7.98,3.5,15.89,5.65,23.75.1,3.07.39,6.04.88,8.89-.52,3.85-1.36,7.54-2.53,11.05.12,2.84-.69,5.7-2.42,8.58-5.6,9.82-10.59,19.92-14.97,30.28l-1.31,1.44c-1.38.31-2.78.31-4.15,0l-.69-.81c2.84-6.4,6.22-12.62,10.14-18.67,3.55-6.18,6.63-12.73,7.78-19.82l1.04-1.41Z"/>
      <path class="cls-3" d="M35.48,2.71h7.06c-.58,2.34-1.71,4.7-2.38,6.96-.62,2.05-.56,4.55-1.77,6.33-.14.66-.22.96-.45.43-1.14,4.83-2.19,9.62-3.18,14.39-.58,6.5-.11,12.97.72,19.43-.47,1.07-1.22,1.64-2.08.66-2.66-10.03-2.99-18.19-1.62-28.42.89-6.66,3.03-13.13,3.69-19.78Z"/>
      <path class="cls-3" d="M6.82,2.71h5.81c.05,1.15-.11,2.34.04,3.49,2.36,17.39,5,33.14,13.25,48.86.57,2.1.02,2.1-1.66,0-6.95-12.91-11.83-25.02-14.85-39.37-.33-4.41-2.49-8.47-2.6-12.98Z"/>
      <path class="cls-3" d="M20.94,2.71h5.81c.38,2.66-.59,5.15-.82,7.69-.87,9.36-.65,18.29,0,27.62.13,1.44.41,2.82.83,4.15.18,1.18.69,2.64.83,3.74.5,1.53,1.51,5.73-.83,3.74-4.37-11.26-6.18-24.29-6.25-36.34-.02-3.57.62-7.05.44-10.62Z"/>
      <path class="cls-3" d="M33.4,50.9c2.9-.43.91-5.12.81-7.25-.13-2.94-.52-12.63.03-14.9.08-.32.74-.26.81-.57.21-.88-.12-2.09.01-3.04l.82.83c.25-1.62-.34-4.06.01-5.53.08-.32.75-.25.82-.57.19-.88.4-3.02.93-3.78.16-.23.71-.05.73-.09-.5,3.76-1.76,7.39-2.37,11.13-3.53,21.62,2.52,36.79,15.25,53.69,2.75,3.65,5.72,6.88,8.72,10.39.37.87.05,1.14-.83,1.25l-1.09-.07c-.78-.68-6.08-5.96-6.16-6.4-.06-.37-.04-.69.19-1.01-7.96-9.91-15.43-21.77-18.69-34.07Z"/>
      <path class="cls-3" d="M32.99,466.4c.59-4.07.56-8.81,0-12.88-.36-1.02-.33-2.27,0-3.32l-.94-2.02c-.05-2.78-.02-5.57.1-8.36l-.71-1.64c-.86-7.31-1.82-14.62-2.87-21.94l.26-1.76-1.06-1.47c-1.66-9.06-2.79-18-2.44-27.24.02-.62.13-1.16.59-1.61-1.38-.73-.03-7.54.64-8.1.16-.13.37-.18.61-.21-.14-.28-.26-.57-.32-.87-.92-4.22,12.89-24.07,16.16-28.41,1.54-.9,2.67-2.71,3.01-4.42l1.5-.78c1.31-3.69,3.03-7.27,5.16-10.75,9.11-19.25,7.8-32.07,3.11-52.18-.74-3.17-1.49-6.58-2.04-9.78l-1.03-1.38c-4.96-12.79-9.96-25.57-15.02-38.34-1.95-4.14-3.11-8.35-3.48-12.63-1.11-1.81-1.96-3.77-2.57-5.88l-.22-2.74c-2.16-7.78-3.65-15.4-3.48-23.54.12-5.38,2.35-21.76,6.17-24.98.28-.23.59-.42.92-.6l-.25-.72c4.94-8.64,10.67-16.85,17.17-24.63,8.51-11.25,16.15-25.89,7.2-39.17l-.03-1.55c0-.61.24-1.07.83-1.25,2.93,3.42,6.19,6.54,8.23,10.67,4.78,9.66,1.44,18.46-4.91,26.31-1.34.72-10.05,11.5-11.62,13.52-5.36,6.88-10.96,14.67-13.41,23.15-6.92,23.89,6.48,54.74,14.65,77.18.21.58.75,1.02.83,1.25,2.39,5.33,4.7,10.91,5.81,16.62,4.4,13.16,8.65,27.08,8.72,41.13.16,31.31-20.7,40.8-30.32,65.23-1.64,4.16-3.47,10.33-3.76,14.73-.43,6.62.68,13.72,2.09,20.17l4.15,28.67,1.66,22.44c-.02,2.82.15,5.71.02,8.53-.56,12.22-2.34,18.42-8.32,28.86-1.09,1.9-2.61,3.64-3.52,5.82-3.31,7.94-1.42,16.38.2,24.51,1.2,6.02,2.85,11.98,4.57,17.87,2.41,8.23,6.85,17.41,6.22,25.96-.2,2.68-.91,6.15-1.24,8.94-.54,4.54-2.09,10.74-1.66,15.37l-3.74,25.35c-1.93,0-3.88,0-5.81,0-.39-.71-.75-1.47-.78-2.29-.19-4.18.26-9.67,1.61-13.5-1.27-13.84.92-27.8,4.1-41.08.31-1.83.56-3.68.51-5.53l.78-.76c-1.77-5.19-3.58-10.53-5.42-16l.44-1.45c-.37-1.1-.92-2.03-1.64-2.8l-3.24-13.23c-1.16-3.96-1.48-7.75-.94-11.39-.12-1.15-.43-1.94-.93-2.88.45-6.49,2.23-12.72,5.34-18.69,2.05-5.06,3.15-10.52,3.41-16.02l.9-1.47Z"/>
      <path class="cls-3" d="M.17,381.22l.84-2.83,11.41-16.5c7.51-11.48,12.87-20.67,14.62-34.54.79-6.28.66-12.17.12-18.43l-1.21-2.13c-2.1-11.15-6.3-21.75-10.98-32.05-4.78-9.99-9.4-20.05-13.86-30.18l-.95-4.6c0-21.04,0-42.11,0-63.16,1.86-6.13,4.36-12.05,7.51-17.76,8.53-14.73,16.31-29.8,23.34-45.24,1.13-3.92,2.61-7.57,4.46-10.96.12-.8,0-1.47-.36-2.01,2.43-8.44,2.81-16.72,1.13-24.86l.47-.96c-.79-2,.3-2.08,1.66-.83,1.65,2.47,3.78,5.18,4.55,8.13,1.03,3.99.81,8.56.85,12.65.14.41.27.81.33,1.23s.13.8.05,1.17c-2.47,12.36-7.2,23.95-13.28,34.92l-14.84,26.36c-.47.64-1.06,1.15-1.75,1.55l-.06,1.32c-5.61,12.11-10.81,24.05-11.72,37.51-.78,11.47.78,22.67,4.95,33.55.74,1.8,1.21,3.71,1.43,5.74l1.05,1.24c5.17,11.12,10.06,22.36,14.67,33.7l.06,1.63c1.1,1.35,1.97,2.83,2.61,4.42.53,2.86,1.44,5.54,2.82,8.04-.62,1.21.2,2.44,1.06,3.46,2.49,9.02,4.28,18.7,4.26,28.11,0,.34-.12.69-.25,1.04s-.33.72-.53,1.06c.29,3.34.33,7.05-1.25,9.97.28,1.2.47,3.24-1.25,3.32v2.1c-4.93,12.06-11.47,23.38-19.6,33.96-4.37,6.57-8.37,13.45-10.98,20.93l-1.4,1.6c-.02-3.87.01-7.76,0-11.63Z"/>
      <path class="cls-3" d="M.17,551.58c.23-11.4,7.08-20.43,13.61-28.77,1.74-3.15,1.31-7.04.71-10.55-2-11.76-4.71-23.39-8.89-34.67-.2-2.02-.63-4.09-1.27-6.2-.54-.6-1.02-1.26-1.29-2.04-1.44-4.19-2.22-8.95-2.86-13.34v-33.66l.95.87c.47,1.18,2.66,10.48,2.4,10.98-.11.22-.27.42-.44.61,1.76,3.88,3.14,8.21,2.49,12.46.6,1.83,1,3.71,1.18,5.64,1.71,3.45,2.15,7.56,1.73,11.4,2.23,6.45,3.33,12.96,3.32,19.53.48,2.02,1.13,3.98,1.94,5.88,1.73,7.98,3.26,16.06,4.76,24.08.19,1,.26,2.03.32,3.06s.06,2.08.04,3.12c1.15-.07,1.49,2.13,1.57,3.14.27,3.03-.53,4.79-1.93,7.42-6.17,8.31-10.57,17.21-11.17,27.94l-.93,1.38c.26,3.41.27,6.94,0,10.39l.97,2.27c1.39,10.92,2.84,21.8,4.38,32.65l-.36,1.22c1.44,1.87,1.75,4.87.83,7.06-1.38,0-2.77,0-4.15,0l-.97-2.15c-1.43-10.92-3.42-21.76-5.95-32.51-.32-3.6-.64-7.15-.97-10.64-.41-5.21.05-11.29,0-16.62Z"/>
      <path class="cls-3" d="M.17,143.56c6.73-12.87,13.53-26.02,18.05-39.9,2.86-8.78,7.14-26.6,4.12-35.26-7.17-12.82-13.37-26.12-19.19-39.39-.78-1.77-1.82-4-2.99-5.53.01-4.7,0-9.42,0-14.13,1.56,2.85,2.19,6.12,3.32,9.14.57,2.03,1.13,3.69,1.66,4.99,1.28,1.83,1.93,5.06,2.73,7.03,3.79,9.28,8.39,19.05,13.47,28.08,2.49,4.44,5.49,8.59,7.9,13.08.23.31.45.63.62.97s.31.65.33.98c.99,12.96-1.07,26.11-6.14,38.08-.28.67-.86,1.14-1.46,1.53-.07,1.33-.32,2.62-.76,3.88-5.71,12.99-12.39,25.51-19.12,37.99-.3.56-.73,1.06-1.16,1.57s-.91.98-1.4,1.44c0-4.84,0-9.7,0-14.54Z"/>
      <path class="cls-3" d="M.17,363.36l.67-2.42c17.04-23.17,12.48-51.42.16-75.65l-.83-3.36c0-5.4,0-10.81,0-16.2,7.34,13.71,13.84,28.04,17.66,43.2l1.86,11.23c0,1.31.28,2.29.85,2.95,1.34,17.52-8.64,33.57-18.57,47.51-.18.25-.47.43-.79.61s-.66.32-1.01.45c0-2.76,0-5.55,0-8.31Z"/>
      <path class="cls-3" d="M.17,95.78c3.29-12.9,4.41-25.75,0-38.64,0-5.67,0-11.36,0-17.04,1.05,1.67,2.18,3.73,2.99,5.52,2.94,6.44,6.28,13.47,8.49,20.17,3.73,11.33-1.4,29.36-5.35,40.49-1.69,4.75-3.68,9.63-6.14,14.01,0-8.16,0-16.35,0-24.51Z"/>
      <path class="cls-3" d="M14.71,566.12c-.51-9.93,3.04-19.35,7.66-27.78.64-1.64,1.05-3.38,1.35-5.13l.96-.75c-.17-1.63.11-2.88.83-3.74.37.11.79.25,1.03.57.55.75,1.21,3.84.63,4.41l1.04.64c.75,1.83,1.36,5.49,1.31,7.5-.06,2.38-.85,6.84-2.76,8.06l.42,1.32c-6.07,12.78-5.74,27.3-4.97,41.26.22,7.06.21,14.05-.02,20.99-1.52,0-3.05,0-4.57,0-1.49-6.16-2.04-12.39-1.66-18.7-.47-1.03-.91-2.09-1.13-3.21-1.3-6.69-1.31-16.41-1.08-23.32.01-.36.17-.71.33-1.08s.39-.72.63-1.06Z"/>
      <path class="cls-3" d="M.17,520.83l.63-1.55c8.92-7.95,4.65-21.11.21-30.36l-.84-3.41v-8.73c1.33-.26,2.46,1.41,1.66,2.49,3.71,7.39,7.37,17.34,8.3,25.56.29,2.58.72,8.38.43,10.81s-3.97,4.72-5.66,6.59-2.79,4.11-4.73,5.66c0-2.35,0-4.71,0-7.06Z"/>
      <path class="cls-3" d="M27.59,45.92c3.55,10.28,8.5,20.16,14.78,29.05,2.65,3.74,5.9,7.07,8.48,10.84-.14.62-.55.9-1.25.83-.77.57-.99.34-.42-.42-2.45-5.34-6.31-8.91-9.72-13.75-4.74-6.71-9.74-15.17-12.71-22.81,1.67.19,1-2.46.83-3.74Z"/>
      <path class="cls-3" d="M24.26,55.06c.92-.14,1.47,2.18,1.66,0,3.53,6.73,8.26,12.83,12.46,19.11-1.05.05-1.92-.42-1.66.83l-1.08-.24c-.82-.95-5.54-7.4-5.42-7.87.06-.21.15-.42.26-.62-2.26-3.63-4.22-7.48-6.23-11.22Z"/>
      <path class="cls-3" d="M8.07,404.91c-.44-2.88-.53-5.85,0-8.73.22-3.68.99-7.71,2.08-11.22,8.13-26.18,32.51-39.2,33.23-70.63.38-2.19.38-4.46,0-6.65-.14-1.59-.22-3.44-.42-4.99-1.5-11.79-4.97-22.2-9.14-33.24-6.94-18.38-16.74-36.31-20.77-55.68-4.72-22.71.46-39.39,11.63-59,11.23-19.7,29.41-39.76,26.14-64.17-.14-1.06-1.06-2.73-1.22-3.97-.15-1.25.82-.67,1.25-.83,16.97,24.79-9.21,49.13-21.18,70.22-13.53,23.83-13.36,41.45-4.98,67.31,4.13,12.76,10.21,24.89,14.95,37.39,7.68,20.23,14.49,41.92,8.72,63.57-5.74,21.54-25.22,36.09-31.15,57.34-.65,2.31-1.1,4.21-1.25,6.65-.81,4.48-.91,8.97-.41,13.5.91,8.21,2.92,17.2,4.15,25.56.98,6.69,2.28,13.68,2.91,20.36.39,4.17.72,8.69.83,12.88.31,12.02-1.66,18.34-3.32,29.5l-.47.3c-.06.96-.95,6.58-2.38,3.75-.02-10.48-.04-21-.06-31.53-.88-5.13-1.5-10.3-1.83-15.55.87-.73,1.3-1.5-.03-.75-.68-2.95-1.11-5.89-1.3-8.84l-.58-.14c-.84-5.4-2.05-10.79-2.91-16.2s-2.19-11.04-2.49-16.2Z"/>
      <path class="cls-3" d="M13.46,437.32l.57-.77c1.93,1.38.59,2.09.67,3.87s.84,3.83.85,5.63l.41-2.07c.9.23.97,2.41.82,3.04-.08.31-.74.25-.82.57-.13.54.67,10.44.83,11.07.08.32.79.26.84.56.96,5.72-.85,14.02-.04,19.9.6,4.32.33,3.74.03,7.88-.16,2.25.1,4.59,0,6.85,2.18-.13.92-2.13.88-3.14,0-.11,1.37-.41.78-1.85l.83,1.25c-1.27,8.53.78,17.44,2.49,25.76.88,4.29,1.81,8.65,2.91,12.88.25,1.27-.68,2.74-.83,3.74-.45-4.3-2.32-8.3-3.32-12.46-1.99-8.23-4.15-19.02-4.57-27.42-.41-2.34-.37-4.73,0-7.06.01-1.38-.01-2.77,0-4.15.06-7.32.22-12.93-.42-20.36-.42-4.93-.98-9.25-1.66-14.13-.45-3.18-.74-6.34-1.25-9.56Z"/>
    </g>
    <g>
      <g>
        <path class="cls-2" d="M277.63,389.95c.41-2.98,1.51-5.45,3.18-7.93l.17-1.52c4.53-9.11,9.3-18.11,14.13-27.06.22-.41.56-.77.9-1.13s.74-.69,1.14-1c.92-2.91,2.3-5.74,4.13-8.51-.14-1.22.28-2.18,1.26-2.9,5.49-11.25,10.93-22.71,15.97-34.26l1.07-1.28-.04-1.38c1.81-5.34,3.48-10.69,5-16.07-.04-2.24.53-4.38,1.69-6.24.99-6.86,1.18-13.73.59-20.61l-.67-.71c-.58-4.35-1.56-8.64-2.72-12.87l.32-1.95c-1.81-4.15-3.57-8.35-5.28-12.63l.3-1.5c-1.15-1.03-1.83-3-1.66-4.57-.56.31-.84-.1-.83-1.25-2.13-1.91-3.35-4.61-3.32-7.48-1.39-1.46-2.25-2.99-2.57-4.59-4.05-7.04-7.89-14.54-9.89-22.42-2.2-1.77-4.13-6.34-3.74-9.14-.46-.1-.82-.33-1.12-.68-.34-.4-2.71-8.81-3.03-10.18.34-.34.49-.73.41-1.19-.89.12-1.03-.16-.42-.83-1.85-4.32-2.64-9.69-2.49-14.13-.96-1.33-.99-2.9-.48-4.45-.02-5.05.34-10.47,2.97-14.67-.1-.29-.19-.59-.22-.89-.56-5.52,19.9-25.06,25.51-28.2.84-1.28,1.82-1.97,2.95-2.07l-.12-1,7.54-6.4c9.14-8.81,12.8-16.64-1.43-22.72l-.17-1.04-1.88-.09c-9.91-4.8-20.75-10.51-29.39-16.95-1.98-1.27-3.91-2.62-5.51-4.51-1.88-1.1-3.37-2.5-4.48-4.21l-.99-.27c-.49-1.31-1.22-2.6-2.19-3.88l-1.22-.26c-9.05-11.94-7.17-25.97-.87-38.82l1.27-.81h10.8l.28,1.53c-6.21,11.44-10.98,24.79-2.46,36.38l.1,1.56c7.86,7.6,16.42,14.34,26.39,19.3l1.03,1.48c1.76-.16,3,.34,3.72,1.5,7.43,2.3,14.57,5.36,21.42,9.18l.61.95c.8-.42,1.52-.13,2.18.89,7.98,3.32,5.33,11.48-.16,16.09-7.45,6.48-15.25,12.6-23.41,18.34-7.03,5.44-13.75,11.54-18.21,19.32l-1.51,1.03c0,1.18-.42,2.38-1.25,3.59-3.13,8.19-3.06,16.14-.83,24.64-.51.49-.67,1.05-.41,1.68,1.02.43.95.87.48,1.75,1.58,6.06,3.86,12.15,6.26,18.05l-.51.97c4.27,7.49,8.04,15.67,11.62,23.69.19.43.27.9.34,1.39s.09,1.01.09,1.52l1.06.98c5.27,9.41,9.15,19.48,12.74,29.55l-.1,1.46c1.77,2.34,2.89,5.19,3.36,8.55.8,3.73,1.24,7.49,1.31,11.27.62.76.59,1.91-.1,3.44.22.37.43.75.58,1.15s.28.77.29,1.16c.28,9.15-1.74,20.81-4.6,29.49-.12.37-.47.66-.89.93-.75,3.31-1.73,6.83-3.68,9.66,0,.6-.03,1.2-.12,1.79s-.18,1.17-.39,1.69c-5.31,13.05-11.83,25.7-18.8,37.93-.56,1.93-1.49,3.44-2.78,4.51-1.84,3.62-3.6,7.28-5.29,10.97l-1.28,1.27c.13.68.1,1.36-.11,2.02-5.69,10.57-11.07,20.95-14.97,32.32-.09.27-.37.48-.71.66-.98,3.37-1.61,6.71-1.89,10.03-.86,1.53-1.03,2.97-.51,4.32-.9,3.71-.67,8.14-.06,11.95l-.45,1.03c1.21,2.52,1.99,5.3,2.35,8.35,6.24,22.73,18.98,43.34,31.11,62.64l-.24.89c.41.73,1.02,1.25,1.8,1.58,8.36,14.96,16.41,29.62,20.42,46.42.7,2.95,1.62,7.01.63,9.75,0,1.96.33,3.67,1.02,5.11.16,14.48-4.93,27.44-13.33,39.07-1.99,2.76-9.33,12.45-11.56,13.59-.33.17-.69.29-1.06.4-3.32.31-6.65.31-9.97,0l.58-1.81c5.7-6.03,11.34-12.26,15.72-19.35,6.21-10.04,7.33-16.75,8.7-27.87.06-.53.29-.94.75-1.25l-.79-2.11c.14-11.27-2.61-22.33-7.04-32.64l-.06-2.24c-.99.15-1.4-.68-1.25-2.49l-1.29-1.44c-1.88-3.24-3.38-6.64-4.52-10.19-4.45-5.83-8.23-12.12-11.33-18.88-2.69-3.89-5.67-8.22-7.74-12.48-.27-.56-.38-1.21-.45-1.87-.33-.15-.65-.3-.93-.51s-.54-.4-.7-.65c-9.02-15.44-18.32-33.89-20.59-51.75-.04-.3.06-.62.16-.95s.28-.66.46-.98c-.24-.27-.46-.55-.63-.86-1.31-2.37.05-12.19.61-15.38.6-3.43,3.37-15.32,5.4-17.21.25-.24.55-.43.85-.62Z"/>
        <path class="cls-2" d="M257.28,2.71h10.38c.73,2.13-.48,5.91-2.08,7.48-.36,4.69-.64,9.4-.83,14.13l.83.99c1.08,12.45,11.14,22.03,20.13,29.75l.22,1.25,1.28.31c7.14,5.6,15.13,10.1,23.08,14.25,1.74.91,9.29,5.56,9.06,7.21-.03.22-.11.44-.2.66,3.2,1.17,4.09,6.64,3.6,9.85-.53,3.47-3.84,8.95-6.18,11.57l-1.16.19c.18.32-.54,1.93-.84,2.45-.4.68-.79,1.15-1.65.87-5.45,6.07-11.16,12.05-17.12,17.92-6.74,7.28-12.78,15.67-14.63,25.61l-1.06,1.34c.47.44.54.92.36,1.49-.59,1.91-1.12,4.17-.12,5.97-.5.91-.52,1.54-.05,1.9l.52,7.65c1.61,1.08,1.37,3.56.95,5.42,1.09,2.78,1.96,5.7,2.62,8.76,1.38,1.35,2.59,4.63,1.95,6.62.98.58,1.58,1.28,1.05,2.32.4.13.74.3.86.56,1.62,3.49,3.58,8.22,4.82,11.84l-.09,1.89c3.99,6,7.1,12.92,8.72,19.94,3.26,4.06,5.63,9.78,6.23,14.96,2.96,3.37,3.87,8.48,4.15,12.88.27.21.53.43.75.68,1.28,1.49,3.04,12.37,3.1,14.95,0,.29-.21.59-.49.89.36,3.81.21,7.44-.45,10.9.15.49.29.98.36,1.47s.14.98.07,1.44c-1.3,9.52-3.84,18.7-7.39,27.55-.18,2.06-.57,3.89-2.19,5.27l.61.68-5.49,12.76c-.65.97-1.05,1.61-1.24,2.88-1.01,1.18-2.16,3.2-2.07,4.8-.72.71-1.62,2.56-2.12,3.71-.24,1.64-.76,2.8-1.55,3.46.19.77-.15,1.31-1.02,1.63l.06.89c-5.4,11.44-11.11,23.02-16.75,34.47-.43.88-.96,1.7-1.5,2.53s-1.13,1.63-1.74,2.42l-.02,2.03c-6.73,13.78-11.33,28.4-9.3,43.76.97,3.71,1.53,7.71,1.84,11.55,1.38,1.87,2.33,4.04,2.86,6.52,6.49,15.87,14.52,31.03,24.1,45.48.32.78.47,1.59.46,2.43,2.26,1.27,3.3,3.83,4.12,6.21,4.67,7.08,9.34,15.09,12.48,23.12.13.32.14.69.14,1.07s-.05.78-.13,1.17c.3.18.59.38.83.62s.48.46.57.73c3.62,10.18,5.94,20.55,5.73,31.42-.09,4.91-.28,10.92-2.98,15.02-.13.55.02,1.04.41,1.48-5.03,13.98-15.29,25.39-25.79,35.8-.25.24-.58.41-.92.57s-.73.28-1.12.38c-4.29.31-8.59.31-12.88,0,.07-.75.3-1.44.7-2.08l13.88-14.71c17.87-18.58,22-44.54,12.93-68.33-.6-2-1.05-3.96-1.34-5.87-1.88-2.18-3.37-4.73-4.48-7.65-2.22-3.53-3.91-7.21-5.07-11.05-.35-.2-.7-.41-1-.66s-.58-.49-.77-.8c-7.88-13.1-15.7-26.33-22.51-40.03-3.94-8.46-8.2-18.13-8.12-27.48-.25-.27-.49-.54-.68-.85-1.55-2.5-.95-19.23.77-21.62.21-.29.47-.55.74-.8.65-4.58,1.79-9.05,3.42-13.39,1.07-1.07,1.54-2.5,1.4-4.31,7.03-16.3,14.61-32.43,22.26-48.43.15-.32.4-.59.67-.86s.59-.52.91-.74c.22-2.8,1.48-5.55,2.83-7.93-.02-.61,0-1.2.19-1.73,2.68-7.4,5.19-14.78,7.73-22.23.37-1.1,1.03-2.07,1.71-3.01,1.12-6.91,2.45-13.71,4.01-20.41-.28-.35-.5-.69-.46-1.01.84-8.08.83-16.12-.66-24.14l.43-2.22-1.22-1.74c-1.65-6.34-3.52-12.59-5.61-18.76l.18-1.1-1.13-1.42c-4.04-8.78-7.74-17.69-11.11-26.73l-.22-1.77c-1.13-.94-2.05-1.93-1.85-3.41-1.32-1.26-1.53-3.12-1.48-4.9l-1.03-1.15c-1.68-3.35-2.55-7.22-3.13-10.9-2.22-2.46-2.91-7.47-3.28-10.9-.09-.8-.13-1.59-.04-2.39-.44-.37-.91-.78-1.09-1.34-1.82-5.85-1.9-18.74-.07-24.58.08-.25.37-.42.73-.58.05-1.91.61-3.33,1.68-4.25l-.34-.87c3.71-6.82,7.09-12.64,12.33-18.81,7.9-7.94,14.79-16.55,20.65-25.84l1.42-1.01c2.32-6.75,2.99-11.95-.83-18.28-1.25-.34-2.35-1.23-3.29-2.65-5.81-4.81-11.8-9.24-17.97-13.3-1.25-.84-2.2-1.75-2.83-2.75-.61.04-1.19-.05-1.73-.33-3.08-1.59-9.8-8.72-12.39-11.61-10.83-12.13-15.55-23.73-13.97-40.09.2-2.12.64-5.47,1.93-6.96Z"/>
        <path class="cls-2" d="M293.83,404.08c.39-6.35,2.98-12.91,5.45-18.89,3.81-9.21,8.68-18.18,13.48-26.87l1.01-.78c1.43-3.5,2.88-6.99,4.36-10.47,7.89-14.23,14.23-29.08,20.39-44.1.42-1.03,1.13-1.92,1.84-2.77.42-2.89,1.02-5.86,2.31-8.38,2.76-11.34,4.01-23.45,2.17-35.22l.51-2.1c-.65-1.44-1.01-2.8-1.1-4.07-2.01-7.81-5.02-15.5-8.14-23.12l.1-1.9c-3.75-5.54-7.24-12.21-8.72-18.7-.38-.31-.74-.63-1.07-.99s-.63-.7-.82-1.1c-3.94-8.09-7.82-16.22-11.18-24.57-.46-1.32-.65-2.7-.64-4.09-.29-.2-.58-.41-.82-.66s-.46-.48-.56-.76c-2.95-8.29-5.43-17.28-4.44-26-.21-.24-.41-.48-.56-.76-1.11-2.03,1.03-11.8,2.96-13.7.36-2.2,1.44-4.2,3.23-5.98,1.22-3.19,4.14-6.94,7.24-8.64l.15-.95c7.67-7.29,16.04-13.86,25.1-19.71,2.13-1.59,4.21-3.24,6.21-5,11.44-10.1,10.46-15.49-3.25-20.74-.08-.82-1.5-1.4-2.11-.84-1.44-.75-2.8-1.62-4.07-2.61l-1.79.08c-1.88-.68-9.48-3.99-10.23-5.05-.18-.26-.32-.55-.44-.85l-1.68.05c-9.41-5.13-18.59-11.23-25.49-19.57l-.25-1.67c-.54-.24-.82-.52-.83-.83-2.4-2.16-4.35-6.07-4.43-9.45-1.01-4.37-1.3-9.53.69-13.41-.16-.24-.3-.49-.39-.76-.5-1.44,4.31-12.34,5.41-14.54l1.21-.9h8.72l.39,1.47c-5.92,14.88-8.14,31.25,4.75,43.19l.25,1.46,1.01.28c5.44,4.74,11.4,9.09,17.76,12.65l1.17,1.62c1.87.26,4.28.72,5.13,2.3l1.34.02c6.68,2.92,13.48,5.97,19.45,10.14l.24,1.26c.75-.03,2.41,1.14,2.19,1.82,5.16,6.32-3.14,14.06-7.99,18.03-7.05,5.6-14.17,11.11-21.36,16.55-9.01,7.25-17.52,16.01-20.31,27.58l-1.13,1.26.56,1.6c-.49,1.65-.93,3.31-.88,5.05.72,4,1.17,8.33,1.15,12.46l.83.78c.34,2.82,1.08,5.55,2.22,8.19l-.56,1,.8.73c2.86,7.79,5.93,15.52,9.55,23l.03,2.03c3.9,5.17,7.19,11.57,8.72,17.87l.97.75c3.41,6.42,6.94,13.4,9.34,20.31.12.36.04.79-.11,1.24,1.97,4.49,3.28,9.1,3.92,13.84.28.27.54.55.75.86,1.6,2.33,2.32,14.18,2.17,17.61-.01.33-.22.66-.49.98.16,4.1-.38,8-1.6,11.71.14.37.27.74.34,1.12s.12.74.06,1.08c-1.61,7.77-4.2,16.82-7.26,24.14-.14.34-.51.59-.94.81-.83,2.72-1.78,5.42-3.41,7.75-.06.67-.13,1.34-.27,2s-.27,1.3-.54,1.89c-5.35,12.04-11.28,23.88-17.83,35.27-1.08,3.2-2.62,6.07-4.62,8.62-1.62,4.49-3.94,8.75-6.23,12.88l.07,1.16c-2.88,6.44-5.54,12.98-7.99,19.63-3.95,10.11-4.27,20.37-3.52,31.13,1.04,1.78,1.29,3.34.75,4.69.62,1.02.94,2.25.96,3.69,2.15,7.59,4.77,15.01,7.85,22.25,1.2,1.09,1.78,2.25,1.47,3.87,2.5,2.74,4.3,6.23,5.58,9.71l1.09.98,9.26,15.56c.4.9.63,1.85.69,2.84,1.02,1.13,2.36,2.61,3.2,3.88,6.33,9.6,16.26,27.56,19.04,38.46.08.32.06.67.03,1.02s-.14.73-.25,1.1c.31.3.6.6.84.94,1.96,2.73,3.08,13.63,3.31,17.56,1.32,22.34-9.32,40.54-23.6,56.6l-1.32.51c-2.49.31-4.99.31-7.48,0l-.35-.9,10.4-13.18c9.3-12.74,14.35-27.83,12.96-43.67l.67-2.08-1.05-2.04c-2.33-19.26-12.21-36.3-21.84-52.75l-.5-2.15c-1.37-1.1-2.01-2.34-1.94-3.73-.33-.16-.66-.33-.95-.54s-.55-.41-.71-.68c-3.11-5.19-6.17-10.45-9.13-15.73-9.46-16.89-18.45-34.66-19.09-54.41-.12-3.63-.02-14.1,1.71-16.67.22-.32.48-.61.76-.89Z"/>
        <path class="cls-2" d="M363.61,343.41c.8-4.03,2.6-7.51,4.78-10.92-.35-.87-.08-1.46.81-1.76.57-2.78,1.64-5.19,3.21-7.23l.65-3c4.99-12.22,9.49-24.9,10.41-38.13l.9-1.7c-.37-1.01-.7-2.38-.83-3.55-1.14-9.83-2.26-18.64-6.74-27.75l.09-1.94c-1.68-2.32-2.88-4.82-3.59-7.51-.51-.25-.95-.54-1.17-.94-4-7.56-7.96-15.22-11.7-22.88l-.16-1.5c-3.67-4.67-6.99-10.44-9.4-16.01-.14-.33-.18-.7-.21-1.08s0-.79.06-1.19c-.27-.02-.51-.06-.67-.2-1.19-1.09-4.32-9.15-4.79-11.1l.48-1.16c-1.24-1.59-1.93-3.51-2.07-5.75-.28-.08-.5-.16-.53-.3-1.63-6.78-2.35-13.37-2.1-20.23l.96-1.56c-.29-.12-.71-.32-.68-.55.7-5.18,2.67-11.37,6.08-15.24-.22-.28-.38-.65-.2-.93,3.96-6.5,9.3-12.58,15.03-18,7.39-6.79,14.64-13.66,21.62-20.87,3.16-3.26,6.03-7.38,7.61-11.61,1.01-2.69,1.75-4.95.89-7.9l.33-.52-1.02-.42c-.92-2.39-2.82-4.18-4.85-5.65-.38-.94-1.84-2.4-3.17-2.37l-.52-1.12-1.93-.3c-5.97-3.58-13.46-8.84-18.55-13.54-.22-.2-.31-.54-.37-.91-3.64-2.27-6.33-6.43-8.63-10.18l-1.29-.41c-1.22-2-2.26-4.44-2.86-6.65-.31-.16-.62-.34-.88-.57-1.44-1.2-3.13-7.5-3.7-9.79-1.13-4.52-3.04-21.53-1.03-24.97.17-.3.4-.56.63-.82h8.31l.6.87c.72,10.3,1.9,19.44,5.02,29.33.87,1.11,1.21,2.26,1.02,3.46l1.02.24,2.67,5.4-.37,1c2.35,2.28,4.28,4.86,5.8,7.73.46.02.86.09,1.08.33,4.73,5.16,9.68,10.04,15.34,14.2l1.04,1.84c.85-.25,1.48-.35,1.45.56,3.43,1.42,6.58,3.77,9.27,6.42l.07,1.33,2.42,2.19c.63.89,1.89,4.99.9,5.7.67,1.12.6,1.77.07,2.86.17,1.76-.11,3.03-.85,3.83-1.22,5.57-4.84,10.33-8.68,14.57-6.17,6.72-12.61,13.21-19.31,19.49-4.72,4.75-9.43,9.65-12.72,15.5l-1.28.68c-6.9,11.08-9.43,24.41-6.47,37.18l-.17,2.29,1.31,1.87c1.43,5.15,3.13,10.26,5,15.22l-.09,1.19c.65.48,1.28,1.01,1.69,1.72,2.11,3.63,4.63,8.36,6.39,12.16.59,1.28,1.22,3.05,1.47,4.4.43.34.84.69,1.22,1.08s.73.76.98,1.2c3.52,6.18,6.94,12.42,10.34,18.66,2.19,4.06,4.33,8.25,5.33,12.72,1.86,1.92,3.18,4.37,3.96,7.37,2.01,6.12,3.68,12.35,5.01,18.67-.55,1.31-.47,2.24.24,2.79l-.49,5.66c.93,2.89.17,6.57-1.25,9.14.14.41.25.83.31,1.26s.1.82.03,1.21c-1.36,7.41-4.13,15.31-6.76,22.39-.15.39-.48.72-.86,1.03-2.15,8.05-6,15.67-9.87,23.02-.8,2.28-1.86,4.43-3.19,6.45.05.95-.37,1.61-1.26,1.99l-.29,1.85c-7.76,15.62-15.45,31.29-23.06,47.02-7.77,17.59-15.6,36-8.41,54.78l-.23,1.89c1.44,1.21,2.71,3.43,2.22,5.25,4.22,8.07,9.06,15.96,14.52,23.67l.28,1.83c.49.32.98.66,1.43,1.04s.87.75,1.21,1.19c4.49,5.77,9.02,11.6,13.02,17.68l.54,1.69c.31.07.61.16.89.29,1.35.65,10.01,13.91,10.03,15.4,0,.31-.05.62-.12.93,3.51,3.61,5.36,8.83,6.95,13.59,7.36,21.91-.08,38.55-12.19,56.72-3.73,5.59-7.72,11.14-11.67,16.61-.19.27-.48.47-.78.67s-.66.36-1.01.51c-2.35.31-4.71.31-7.06,0-.19-1.5.51-2.96,2.1-4.38,20.68-22.7,32.03-52.22,15.59-80.97l-.24-2.32-1.96-1.92c-7.59-12.45-15.58-24.64-23.95-36.59l-.26-1.39c-.32-.11-.64-.23-.93-.4s-.54-.33-.7-.56c-6.42-9.61-12.03-19.73-15.67-30.48l.26-.98c-.3-.23-.58-.48-.82-.76-2.04-2.39-3.07-13.58-3.17-17.25-.47-17.43,8.29-35.89,15.88-51.44,5.94-12.17,11.91-24.33,17.97-36.45.38-.76.86-1.46,1.35-2.16s1.04-1.38,1.59-2.05Z"/>
        <path class="cls-2" d="M327.06,372.91l.35-2.01c1.85-2.83,3.21-5.82,4.09-8.95,1.65-2.02,2.92-4.32,3.83-6.88,1.19-3.05,2.67-5.94,4.52-8.73,4.46-10.2,9.06-20.33,13.8-30.39l1.24-1.62c1.41-5.61,3.12-11.19,5.12-16.74.79-3.81,1.99-7.38,3.6-10.69.33-4.58.81-9.17,1.44-13.75-.6-10.44-2.53-20.94-6.4-30.86l-.03-2.34c-1.13-.71-1.5-3.12-1.66-4.57-.38.1-.52-.04-.42-.42-2.7-4.46-5.23-9.35-7.16-14.33l.1-1.04c-4.46-6.92-8.75-14.22-11.83-21.95l-.22-1.73c-4.68-7.48-8.11-15.6-10.28-24.36l-.1-3.89c-.26-.19-.5-.39-.7-.63s-.37-.45-.43-.7c-1.48-6.69-1.47-12.89-1.08-19.5l.55-.36c-.49-1.68-.02-3.21.71-4.96.29-.68.92-1.74,1.28-2.14.48-2.05,1.33-3.7,2.58-4.95-.05-.35-.08-.69-.05-1.03.35-4.28,13.08-15.87,16.82-19.12,6.64-5.32,13.2-10.72,19.69-16.21,7.48-6.4,15.59-15.98,4.05-22.57l.07-.72c-1.13-.24-1.78-.71-1.95-1.42l-2.05-.27c-4.46-2.15-10.04-5.01-14.22-7.58-1.98-1.22-3.9-2.51-5.33-4.2-.48.17-.95.16-1.44.03-1.78-.49-9.42-7.28-11.24-9.02-1.54-1.47-6.86-6.68-7.3-8.26-.13-.49-.14-.96.04-1.44-3.29-2.16-4.86-7.82-5.69-11.73-1.91-8.98-.12-18.24,2.05-27l1.15-1.15h8.72l.56,1.65c-1.69,9.9-2.47,20.21.93,29.85l-.24,1.74c1.42,1.64,2.18,3.39,2.88,5.38.93.77,1.5,1.57,1.71,2.39,4.75,6.3,10.95,11.74,17.5,16.42l.76,1.57.7.1c6.82,3.41,14.34,7.31,20.91,11.82l.4,1.37c3.62,1,5.34,5.22,5.33,8.75,0,1.74-.21,4.86-2.01,5.38.13,2.37-1.17,3.98-2.6,5.73-8.32,8.62-17.2,16.77-26.65,24.44-7.55,6.96-14.77,14.83-18.11,24.72l-1.24,1.2c.1.6-.46,4.74-.67,4.87-.16.1-.36.12-.58.12.21.66.4,1.52,0,2.08-.36,2.33-.41,4.73,0,7.06.65.56.75,1.19.28,1.89,1.23,6.53,2.86,12.97,4.87,19.32l-.16,2.06c.64.63,1.3,1.3,1.67,2.13,2.1,4.74,4.2,9.53,6.25,14.29.17.4.25.84.32,1.29s.08.93.07,1.4c3.73,4.2,6.78,9.93,8.31,15.37l1.05.54c2.6,5.98,5.53,11.82,8.78,17.53,3.76,8.14,6.79,17.09,8.04,25.98,1.21.26,2.27,6.63,2.06,7.46l-.81.64c1.38.4,1.27,5.59,0,6.23,1.21.41,1.44,4,.42,4.78-2.88,16.58-8.02,34.26-15.28,49.7-.2.42-.6.73-1.07,1.02-.27,2.48-1.19,4.65-3.17,6.2-.2,1.46-.57,2.88-1.13,4.24-8.34,16.37-16.68,32.77-24.3,49.44-10.89,23.84-14.56,45.56-2.14,69.88l.15,2.32c1.55,1.19,2.31,3.08,2.87,4.92,3.39,5.13,6.78,10.58,9.92,15.97.19.33.28.71.37,1.11s.12.84.14,1.27c.38.21.75.43,1.09.7s.64.52.86.84c8.27,12.47,16.61,25.06,23.15,38.53.64,1.09.83,2.3.65,3.55.34.26.66.52.94.83,2.56,2.8,5.12,15.33,5.72,19.69,3.35,24.64-9.1,45.09-24.66,62.6l-1.1.39c-2.35.31-4.71.31-7.06,0-.08-.6,0-1.17.24-1.72,20.79-21.5,30.48-50.3,18.11-78.9.44-.85.43-1.68-.08-2.48l-1.78-2.11c-5.57-11.59-11.7-22.88-18.38-33.87l-.2-1.41-1.07-.72c-6.11-8.96-11.71-18.61-16.22-28.29-1.51-3.23-3-6.52-4.3-9.63-1.13-2.91-2.31-6.08-2.5-9.15-1.51-.69-2.24-3.26-1.25-4.57-1.81-4.13-2.11-8.77-2.11-13.27-.26-.3-.46-.6-.47-.9-.16-4.88.56-11.81,1.65-16.59.06-.28.36-.5.72-.72.82-6.46,3.03-12.17,5.53-18.21,2.45-5.91,5.16-11.89,8.3-17.42l.91-.63Z"/>
        <path class="cls-2" d="M344.5,441.47c-.19-.23-.37-.46-.49-.72-1.7-3.49,7.52-26.43,9.68-31.15,9.48-20.7,19.61-41.08,29.81-61.44.65-1.3,1.6-2.41,2.54-3.5l-.1-1.78c2.43-3.95,4.28-8.16,5.56-12.63.9-.85,1.42-1.97,1.55-3.34,4.25-11.09,8.31-22.5,9.5-34.35l.93-1.49c-.56-7.42-1.66-14.69-4.02-21.85l.29-1.84c-1.22-1.42-1.95-2.94-2.17-4.57-3.14-6.29-6.29-12.69-9.46-19.2v-1.16c-1.21-1.4-2.55-3.08-3.52-4.61-3.81-6.01-8.57-13.57-11.55-19.88-.56-1.19-.92-2.45-1.13-3.75-2.59-3.31-9.52-14.31-9.33-18.03.02-.36.1-.72.19-1.08-.97-.97-1.83-3.02-2.35-4.54-1.67-4.92-2.54-10.42-3.31-15.54.41-.53.63-1.17.67-1.94-.11-.23-.2-.47-.21-.71-.07-1.17-.06-2.39-.05-3.57.23-14.35,9.03-26.65,17.85-37.6l1.51-.51c.05-.72.25-1.38.63-1.99,10.56-10.08,19.87-21.14,27.93-33.17l1.76-1.4v12.05l-.76,2.39c-7.32,8.87-14.78,17.63-22.36,26.28-7.54,8.85-13.23,18.72-17.02,29.45-.07,2.77-.85,5.09-1.81,7.53l.73,1.62c.12,7.43.99,14.79,2.59,22.07l1.33,1.38c1.88,5.02,3.94,9.91,6.18,14.67l-.04.99c.76.61,1.54,1.24,2.05,2.08,4.11,6.76,8.2,13.6,12.2,20.43.23.4.36.87.48,1.35s.18.99.23,1.49c.41.29.82.58,1.18.93s.71.67.94,1.06c4.67,8.04,9.31,16.11,13.17,24.58l.91,4.18v48.2c-1.28,6.05-3.17,11.96-5.68,17.75-8.25,19.04-17.55,37.62-26.88,56.16-.34.69-.79,1.32-1.25,1.95s-.97,1.24-1.49,1.84c-1.32,4.51-3.43,8.91-5.81,12.88.46,1.07.43,1.44-.83,1.25-1,3.51-2.37,6.99-4.1,10.45v.81c-2.58,4.78-4.32,10.3-5.64,15.73-2.13,8.76-2.67,17.45.43,26.09l-.24,1.77c.95.71,1.81,1.71,1.25,2.91.81-.26.97.16.42.83l.9.62c6.18,12.23,15.36,22.34,24.67,32.36.35.59.55,1.23.59,1.92,1.27.37,1.82.93,1.66,1.66,1.28-.41,2.16.88,1.66,2.08l1.44.81c7.15,7.46,13.4,15.81,18.18,24.57l.74,2.88v36.15c-1.45,5.69-4.28,11.06-7.51,16.2-5.6,8.94-12.02,18.17-18.19,26.65l-.89.36c-2.35.31-4.71.31-7.06,0-1.16-.83.79-3.45,1.56-4.47l7.11-9.49,1.71-1c1.55-1.36,2.68-3.08,3.32-4.99l.28-1.98c13.26-19,19.56-41.45,6.58-62.43l-.22-2.08-1.56-1c-4.27-7.21-9.6-13.65-14.92-20.08-.55-.84-1.24-2.09-1.38-3.01-4.62-3.73-8.78-8.98-12.32-13.86-.68-.94-1.05-2.07-1.39-3.17l-1.53-.66c-8.97-12.53-19.14-27.89-16.33-43.8Z"/>
      </g>
      <path class="cls-2" d="M407.22,268.62s8.19,24.05,0,48.2"/>
      <path class="cls-2" d="M407.23,94.12c2.61-6.31,3.81-13.83.45-19.77-2.86-5.07-8.37-7.92-13.38-10.9-8.1-4.81-15.73-10.78-20.92-18.64-8.18-12.39-9.47-28.21-7.55-42.93.11-.85.5-1.93,1.35-1.87.51.03.88.5,1.16.93,5.37,8.23,5.41,18.68,6.86,28.4.48,3.22,1.16,6.48,2.84,9.26,1.52,2.51,3.77,4.49,6.02,6.36,6.01,4.99,12.35,9.58,18.97,13.72,5.56,3.48,11.7,7.08,14.15,13.16,1.5,3.74,1.37,7.93.7,11.9-1.4,8.27-5.11,16.13-10.59,22.47"/>
      <path class="cls-2" d="M407.22,534.13s9.67,15.48,0,36.15c-9.67,20.67,0-36.15,0-36.15Z"/>
    </g>
  </g>
</svg>