<?xml version="1.0" encoding="UTF-8"?>
<svg id="Layer_2" data-name="Layer 2" xmlns="http://www.w3.org/2000/svg" viewBox="0 0 199.55 611.01">
  <defs>
    <style>
      .cls-1 {
        fill: #3d5b80;
      }
    </style>
  </defs>
  <g id="Layer_1-2" data-name="Layer 1">
    <g>
      <path class="cls-1" d="M57.58,0l1.61.86c3.01,4.13,6.65,7.73,10.33,11.25.78.93,1.37,1.88,1.77,2.85.95-.42,1.25-.12.83.83,1.81.22,3.44,1.52,4.1,3.16,1.62.87,2.61,1.89,2.96,3.07.36.04.72.1,1.06.21s.64.22.87.42c17.66,15.36,35.52,31.77,40.23,55.73,2.49,12.63-.12,25.32-2.78,37.69l-1.16,1.51c-.22,5.17-1.25,10.06-3.09,14.65.02,2.39-.58,4.81-1.82,7.27-.85,6.81-2.67,13.22-5.48,19.21l-.45,4.45c-2.85,9.41-5.85,18.75-9.02,28.01l-.92,1.19c.03,1.88.01,3.74-.71,5.5-2.95,10.72-5.87,21.88-7,33.13l-1.01,2.08c1.22.53.84,4.24-.42,4.57l-.28,8.2c.04,10.09.82,20.04,2.36,29.86-.61.18-.75.65-.42,1.42.64,1.56.91,3.23.81,4.99.93,2.13,1.96,5.1.85,7.06.95,2.89,1.82,5.78,1.55,8.85,1.29,12.98,2.3,26.17,2.79,39.24.09,2.36.16,4.84-.18,7.17,1.73,1.56,1.87,4.85,1.25,7.06,2.06,5.32,2.4,11.39,2.08,17.04,2.06,6.19,2.59,13.33,3.01,19.93.04.61-.03,1.24-.12,1.86s-.24,1.27-.4,1.9c.23,3.05.48,6.04.76,8.99-.4,7.38-.88,15-3.99,21.61.15,1.26-.09,1.99-.73,2.21-.06,1.34-.15,2.78-1.21,3.67-.83,3.28-2.15,6.36-3.96,9.22l.4,1.52c-2.69,7.86-2.09,15.77,1.83,23.09l-.16,1.56c1.11-.15,1.2.03.42.83,1.14.56,2.16,1.69,1.92,3,.4.1.75.23.91.49,1.26,1.93,2.56,4.14,3.51,6.2,1.34,1.26,1.99,2.6,1.96,4.02l1.44.9c3.68,6.31,5.31,13.2,5.73,20.35l-.52.78c.4,2.75.41,5.56,0,8.31.39.9.42,2.05.09,3.44-1.21,5.32-2.79,11.16-6.32,15.26v1.65c-6.69,9.89-13.86,19.44-21.53,28.65-11.63,14.76-21.4,32.52-14.8,51.54l-.64,1.26c-2.77.31-5.54.31-8.31,0-2.1-2.24-3.04-6.88-3.47-10.08-2.28-17.09,5.21-29.74,14.52-43.25l14.47-19.94c7.31-10.48,12.95-23.02,11.83-35.67l.45-.76c-.42-1.32-.61-2.82-.56-4.51-.26-.19-.48-.38-.52-.61-.98-5.38-1.82-9.8-3.81-14.79-.56-1.41-1.18-2.8-2.03-4.04l.27-.99c-1.77-2.06-3.02-4.52-4.17-6.98-2.52-3.1-5.81-7.83-5.38-11.72-.52-.94-1.28-3.92-1.29-5.01,0-.27.2-.54.46-.81-.35-2.05-.42-4.19,0-6.23-.19-.23-.37-.47-.5-.74-1.28-2.6,4.9-19.81,6.35-23.55l1.21-1.06c.28-2.37.75-4.63,1.58-6.69.4-3.58.93-7.3,1.59-11.17l.98-1.25c.42-8.37.48-16.79-.57-25.06.51-.91.56-2.12.16-3.61-.87-2.08-1.27-4.38-1.2-6.9l-1.29-12.32.42-.73c-.23-1.79-.64-3.51-1.23-5.17-.66-12.66-1.49-25.3-2.5-37.93.65-1.23.53-2.38-.36-3.45.11-2.35.09-4.7-.06-7.04l-1.16-2.09c-.17-2.66-.34-5.29-.5-7.88-1.8-3.21-2.34-7.27-2.24-10.91-.68-2.44-.9-4.76-.66-6.96-.25-.25-.48-.51-.66-.8-.96-1.51-2.25-14.98-2.12-17.55.02-.33.33-.64.73-.95-.33-1.28-.34-2.46-.02-3.55l-.55-1.03c-.16-11.51,1.72-23.72,5.4-34.67-.31-1.32.07-2.73,1.15-4.24.17-3.2,1.17-6.27,2.73-9.09l.13-2.42c5.53-18.78,11.2-37.53,17.01-56.25,1.79-4.34,3.49-8.92,3.73-13.75.5-1.55,1.16-3.03,1.96-4.45-.29-.62-.42-1.27-.38-1.95,7.48-23.92,8.62-48.32-7.58-68.94-1.8-1.87-3.02-3.86-3.67-5.98-2.94-2.19-5.6-4.78-7.98-7.77-6.54-5.31-13.07-10.88-19.4-16.56-.3-.27-.52-.64-.73-1.03s-.39-.81-.55-1.24c-1.34.24-2.04-.55-2.58-1.7-3.37-2.76-13.87-12.31-14.74-15.94-.08-.34-.11-.7-.12-1.06h7.48Z"/>
      <path class="cls-1" d="M52.18,547.62c.14-2.05.8-4.44,2.49-5.93.37-1.73,1.02-3.19,1.94-4.36,2.08-5.39,3.35-11.02,4.16-16.82l.97-1.55c-.29-2.34-.33-4.72,0-7.06-.58-.04-.72-.73-.42-2.08-.44-.2-.84-1.04-1.01-1.58-1.14-10.44-2.29-20.87-3.44-31.31.69-.16.81-.58.71-1.18-.42-.55-.61-2.1,0-2.49-.41-3.39-.41-6.71,0-9.97l-.48-1.1c.73-3.22,1.05-6.53.95-9.91.95-2.82,1.5-5.85,1.66-9.1,2.6-11.71,5.44-23.43,8.34-35.01l.75-.96c.71-6.53,1.36-13.12,1.95-19.76l.96-1.85c-.19-18.5-1.02-36.98-2.49-55.44l.42-1.48c-1.76-4.87-2.51-10.63-2.08-15.79-.57-.92-1.12-1.88-1.38-2.94-.97-4.05-1.86-8.19-2.74-12.27-.65-3.04-1.25-6.21-1.7-9.31-1.62-1.79-2.41-4.14-2.57-6.52-1.72-3.9-2.8-7.95-3.25-12.18-.28-.23-.56-.48-.78-.76-1.53-1.86-2.55-8.45-2.64-11.1-.27-.27-.5-.55-.55-.86-.64-3.66-1.26-7.7-1.01-11.39-1.55-2.72-1.13-6.65-.36-9.63.44-4.34.95-8.69,1.77-12.94l.64-.8c.28-3.24,1.42-6.09,2.75-8.95.39-2.23.95-4.48,2.26-6.31l.21-2.14c5.25-14.23,10.96-28.39,16.7-42.46.53-1.31,1.36-2.47,2.19-3.6l-.48-.72c7.09-17.32,12.6-35.69,15.71-54.44l.97-1.35c-.23-2.9-.26-5.82,0-8.73l-.96-1.59c-1.5-13.64-7.06-26.53-14.22-38.13l-.19-1.84c-2.54-2.2-4.83-4.79-6.28-7.81-2.36-2.19-4.52-4.64-6.65-7.13l-.36-1.68c-1.09-.41-1.88-1.24-2.39-2.5-2.02-.47-3.12-2.42-3.89-4.27-.5-.07-.95-.18-1.21-.47-7.51-8.09-15.08-17.09-20.25-26.79l-.09-1.29h5.81l1.62,1.09c4.95,6.94,10.42,13.44,16.43,19.49l.22,1.02c6.39,4.88,12.74,11.08,18.1,17.18.94,1.07,1.63,2.32,2.25,3.6l.88-.03c9.94,12.22,18.45,26.67,20.23,43.14,0,4.13-.11,8.32-.34,12.57.73,3.34.39,7.12-1.03,10.29.89,1.28.57,2.95-.73,3.82l-.91,6.84c-.95,2.7-1.76,5.5-2.41,8.4-2.28,8.79-4.88,17.87-8.1,26.64-6.85,18.73-13.56,37.5-20.13,56.32l-1.17,1.96c-.33,2.11-.69,4.17-1.08,6.19-2.89,8.75-4.16,18.62-4,28.09l-.74,1.88.62.97c-.06,2.61.26,5.13.97,7.55,1.81,9.54,3.87,19.09,6.19,28.63l-.3,1.08c1.84,2.27,2.67,5.44,2.08,8.31.48,1.51,1.06,2.89,1.72,4.17l2.35,13.03c-.38.74-.5,1.52-.33,2.33,2.48,14.06,3.67,28.52,3.32,42.8.24.34.46.69.63,1.06s.32.72.36,1.08c1.19,12.26,1.47,25.58-.15,37.74.19,5.57-1.04,11.27-2.75,16.75-.18,3.07-1.07,5.79-2.65,8.18l.48,1.53-4.97,18.95c-2.01,9.71-3.23,18.98.34,28.56l1.1,1.16c2.07,7.38,3.22,14.89,3.47,22.52.36.37.76.78.87,1.31.86,4.08.82,11.13.76,15.47.63,3.95-.61,8.16-2.28,11.78-.68,3.69-1.99,6.92-3.91,9.67l.02,1.23c-4.2,8.55-8.92,16.86-14.17,24.93-9.05,14.93-15.14,32.82-8.53,49.75l-.16,1.78c-3.04.31-6.1.31-9.14,0-2.49-2.97-2.96-8.34-3.3-12.32-1.54-18.07,7.59-34.28,16.27-49.57l1.57-1.26Z"/>
      <path class="cls-1" d="M80.01,0l1.36,1.03c4.3,7.89,9.5,15.14,15.61,21.75l.06.91c.43.17.85.35,1.24.58s.75.45,1.03.76c15.01,16.3,29.07,32.37,36.09,53.62,2.28,6.89,4.01,13.93,2.77,21.08.21,8.3-.61,17.25-2.42,25.46s-3.8,17.05-6.68,24.65c-.38,1-1.02,1.85-1.7,2.66-.52,3.69-1.59,7.29-3.21,10.79-1.94,7.94-4.52,16.06-8.42,23.28-.71,4.14-1.95,8.15-3.74,12.05.43.62.22.82-.42.42l.19.43c-2.17,8.77-3.76,17.69-4.78,26.74l-.81,1.08c-.35,2.75-.29,5.39.19,7.91-.65,3.14-.64,7.4-.37,10.7,0,.12.3.22.67.31.12,4.99.54,9.94,1.24,14.84-.4.18-.62.41-.48.73,1.55,6.83,3.11,13.86,4.14,20.76l-.4.85c.29.37.56.75.78,1.16s.42.8.51,1.21c2.56,12.52,4.03,24.94,3.28,37.51.35.36.74.76.83,1.28.4,2.19.47,5.4.26,7.5.96,3.55,1.43,7,1.4,10.33.6.9,1.05,1.87,1.26,2.93,2.63,13.73,4.66,27.57,5.39,41.53l.83,1.21c.5,3,.92,7.33,0,10.01.39,2.2.39,4.45,0,6.65.5,7.33-.4,14.89-1.66,22.19l-.42.67c.58,1.76.31,3.69-.81,5.8-.53,1.35-2.29,5.26-2.99,6.3-.14.2-.43.3-.76.37l.29,1.39c-3.79,7.49-5.61,15.28-2.39,23.35l-.38,1.43c2.46,4.16,4.68,8.46,6.65,12.88l1.01.43c13.79,22,4.83,50.48-10.46,69.53l-15.59,20.32c-8.41,11.51-14.47,25.17-11.82,39.68l-.52,1.75c-2.9.31-5.82.31-8.72,0-.27-.2-.54-.42-.75-.67-1.14-1.31-1.55-6.57-1.68-8.64-1.06-16.25,8.22-30.41,17.48-42.93l12.73-16.83c13.73-17.35,21.28-38.93,10.1-59.8l-.07-2.01c-1.74-.94-3.84-4.39-4.62-6.33-.48-.6-.6-1.4-.36-2.4-1.17-1.26-2.04-2.9-2.6-4.9-1.09-.97-1.64-2.55-1.67-4.74-.25-.12-.46-.25-.51-.42-2.56-9.37.14-17.53,4.87-25.78.47-1.79,1.27-3.13,2.41-4.04l-.08-1.18c3.44-14.31,2.76-29.21,1.16-43.9l.58-2.29c-1.42-6.63-2.6-13.35-3.54-20.15.67-.33.49-.87.22-1.45-.44-.98-.75-1.73-.42-2.91-.37-.1-.36-.24,0-.42-1.39-2.42-2.72-6.1-1.66-8.73-.77-1.76-1-3.91-.83-5.82-.95.04-1.09-.38-.42-1.25-1.63-2-2.29-5.97-1.25-8.31-.95-2.98-1.26-5.98-.93-8.99l-.57-1.12c.02-12.15-1.08-24.21-3.53-36.12l.47-2.38c-2.34-4.75-2.66-10.55-2.49-15.79l-.73-1.36c-.69-5.24-1.16-10.53-1.43-15.86l.49-1.47c-1.56-5.97-1.06-13.23-.38-19.48.17-1.55.57-2.93,1.02-4.43.05-3.05.45-6.02,1.19-8.92.1-1.86.6-3.8,1.49-5.81l-.47-.82c4.07-14.37,8.46-28.7,13.16-43l1.02-1.47-.37-.88c.95-2.34,1.67-4.76,2.15-7.25.4-.18.77-.52,1.13-1.01-.15-.23,0-.5.42-.83-.44-.41-.31-.93.38-1.56l-.39-.6c1.81-6.08,3.63-12.22,5.46-18.43,1.52-6.6,2.93-13.24,4.23-19.92l1.13-3.95-.53-2.03c5.82-27.46-5.05-53.08-24.56-72.56l-17.65-17.61c-.45-.64-.74-1.35-.88-2.12-5.92-4.89-10.95-11.06-15.06-17.58l.11-1.53h9.97Z"/>
      <path class="cls-1" d="M92.47,0h9.55c1.33,1.45,2.26,3.25,2.79,5.38,6.86,13.91,15.34,26.94,25.42,39.1,6.04,8.69,12.02,17.58,17.15,26.88.24.44.37.93.5,1.44s.19,1.04.24,1.57l1.03.17c.26,1.4.92,2.84,1.97,4.31l3.98,7.51-.34.89c2.33,4.48,2.67,10.39,2.51,15.53-.11,3.48-.54,6.82-1.47,10.05-.2.7.1,1.45.4,2.13-1.66,8.99-4.23,17.84-7.44,26.39-.12.31-.35.57-.6.84s-.55.51-.86.74c.07,1.02-.04,2.02-.32,3-5.25,12.34-10.37,25.1-15.42,37.72-.38.94-1.04,1.74-1.7,2.5l.16,2.25c-2.86,8.73-4.46,17.61-5.08,26.68-.25,3.69-.23,7.33-.07,10.96,0,1.21.27,2.09.78,2.62.16,3.93.51,8.11,1.7,11.72l-.82.61.56.3c.51,2.93,1.27,5.9,2.26,8.91-.54.47-.65,1.14-.33,2.01,1.14,2.15,2.02,4.56,2.64,7.22-.54.26-.77.61-.56,1.09,3.59,8.79,6.65,18.56,7.06,28.25l.92,1.04c.85,3.7,1.29,7.87.74,11.43l.92,1.39c.07,4.58.37,9.15.89,13.69l-.57,1.54c.32-.03.81-.02.86.18.3,1.34,1.68,11.86,1.46,12.45-.68.16-.9.66-.66,1.49.95,1.54.7,4.43.42,6.23,1.17.44,1.14,1.16,0,1.66.33.42.6.85.65,1.3,1.44,13.34,1.53,26.86,1.01,40.25-.39,1.61-.21,2.77.55,3.48-.47,7.91-1.47,15.79-2.51,23.88-1.02,3.17-1.27,6.62-1.5,10.06-.79,4.28-1.95,9.09-4.02,12.86l.16,1.38c-2.69,4.43-4.23,9.41-5.41,14.31l-.56.51c.28,2.34.28,4.72,0,7.06l.59.47c.12,2.87.72,5.55,1.81,8.02l-.33.65,1.25,1.13c4.46,9.97,9.27,19.79,14.41,29.46,9.19,18.48,1.74,39.06-7.27,56.02l-1.34.65c-.99,2.64-2.78,5.72-4.46,8.12-.49.7-1.17,1.08-1.92,1.48-1.25,2.85-3.27,5.64-5.74,7.5l-.2.86c-9.75,11.68-20.83,25.01-20.59,40.89l-.73.56c-3.18.31-6.37.31-9.55,0-.44-.43-.82-.93-.96-1.53-1.92-7.95,3.62-21.59,7.81-28.42,6.5-9.6,13.46-18.86,20.88-27.8,8.59-10.75,13.62-23.41,16.16-36.81,2.77-14.59-1.81-24.33-9.12-36.81.28-.52.33-1.05.11-1.59-1.74-1.78-2.83-4.33-3.54-6.6-.36-.06-.66-.14-.75-.33-2.27-4.75-4-10.59-4.05-15.87-.03-3.28.12-8.25,2.53-10.44.29-.93.32-1.8.1-2.6,1.48-1.92,2.52-4.13,3.11-6.63.91-.14,1.24-.87.98-2.18,2.79-7.85,3.54-15.73,4.02-24.05l.93-1.52c-.22-3.74-.18-7.51.42-11.22-.69-.77-.63-.92.42-.83l-.33-1.7c-.24-5.29-.52-10.41-.94-15.72.51-1.1.65-2.49.44-4.19-.11-6.44-.91-12.84-2.4-19.19l-.05-3.6c-1.01-2.06-1.16-4.02-.45-5.88-.69-4.21-1.49-8.43-2.41-12.65l.34-1.48c-.8-2.22-1.15-4.64-1.41-6.98-.76-6.87-1.27-13.98-1.63-20.91-.02-.47.05-.94.14-1.42s.24-.97.41-1.45l-1.09-2.07c-1.47-8.45-3.26-16.84-5.39-25.15l.24-2.28c-.31-.39-.6-.79-.84-1.22s-.46-.84-.57-1.28c-1.65-7.02-3.13-14.49-3.17-21.6l-.69-1.06c-1.18-7.41-1.16-15.13-1.1-22.75l.54-1.12c.5-1.63.38-2.76-.37-3.4.08-5.82,1.45-12.04,3.09-17.75.1-.34.41-.62.79-.88.44-3.11,1.34-6.14,2.69-9.09.17-2.02.88-3.98,2.11-5.86l-.44-.73,2.27-4.96c3.28-8.92,6.68-17.69,10.21-26.3l-.45-.74c6.54-14.87,9.42-31.94,12.08-48.29-.28-3.13-.26-6.39,0-9.56l-.91-.8c-5.83-24.68-22.29-46.13-38.4-65.56-.49-.81-.82-1.68-.98-2.61-1.53-1.37-3.01-2.88-4.45-4.53-1.77-3.16-3.82-6.18-6.14-9.07-2.13-3.34-4.93-7.91-4.78-11.75Z"/>
      <path class="cls-1" d="M124.04,0l1.01.45c2.38,19.25,13.81,36.26,25.32,51.6l9.26,11.97c.34.64.52,1.32.54,2.04,1.45.76,2.37,1.78,2.75,3.05,1.6.58,2.31,1.44,2.13,2.59.6,1.07,3.18,3.24,4.3,4.02,7.98,8.64,9.32,20.53,7.24,31.68l-1.05,1.04c.44,1.22.16,2.78-.12,4.09-1.02,4.7-3.26,9.76-5.25,14.16-4.77,9.62-9.84,19.14-15.02,28.54-.16.29-.42.53-.69.76s-.6.45-.93.64l.32,1.23c-3.51,6.23-6.07,12.74-7.7,19.55l-.93.82c-.75,5.49-1.26,10.96-1.54,16.42.61.98,1.29,3.6.24,4.14l.05,2.71c.67,1.42.81,2.66.42,3.74,1.11,5.57,2.24,11.17,3.4,16.81l.92.72c1.27,3.22,1.91,6.38,1.91,9.48,4.49,10.36,8.6,21.54,11.59,32.49.14.5.15,1.04.16,1.58s-.05,1.1-.12,1.66c2.33,2.82,2.87,7.19,2.49,10.8l1.19,2.29c.98,3.92,1.31,9.64.47,13.49.25.46.47.93.65,1.42s.32.96.36,1.44c.45,5.87.22,11.74-.59,17.5.35,2.62.39,5.28,0,7.89.67,1.49.19,3.85-.42,5.4l.52.82c.3,2.17,0,4.25-.93,6.25-.38,1.75-.27,3.25.31,4.48l-2.08,17.43c-1.31,3.41-2.06,7.14-2.23,10.81-.73,2.69-1.47,5.36-2.23,8.01-.3.69-.66,1.61.04,2.11-3.24,13.76-6.71,27.46-10.93,40.95-.19.62-.52,1.2-.85,1.78s-.72,1.15-1.13,1.7l.53,1.04c-.96,2.43-1.78,4.9-2.44,7.43l-.99.68.19,1.3c-.9,4.67-1.1,9.36-.6,14.08l1.02,1.65c1.25,9.51,5.17,18.37,9.69,26.75l12.54,22.58c4.87,9.86,8.2,18.74,8.34,29.86.03,2.2,0,5.63-1.27,7.25-.82,21.88-16.25,39.59-30.21,55.09-4.89,5.77-9.34,12.05-11.74,19.29l-1.25,1.24c-3.6.31-7.2.31-10.8,0-1.1-3.71,1.24-8.79,2.93-12.36,2.23-4.73,5.28-9.02,8.48-13.12,7.4-8.3,14.26-17.04,20.58-26.24,1.53-2.98,3.33-5.68,5.39-8.11.21-2.41.97-4.79,2.29-7.15,10.64-23.79.36-46.27-12.63-66.68-2.52-4.46-4.69-9.08-6.47-13.88-.1-.28-.08-.62-.04-.97s.13-.71.24-1.06c-1.24-1.16-1.79-2.95-1.67-5.34-.87-.33-1.01-1-.68-1.83-.71-8.26-.49-15.96,2.77-23.75l1.25-1.07c-.03-2.01.54-4.01,1.73-5.98,3.8-13.75,6.06-27.98,8.23-42.13.26-1.06.68-2.06,1.25-2.99.23-9.04.87-18.17,1.87-27.22l.62-1.45-.32-1.26c.38-10.21.34-20.17-.1-29.9l-1.07-11.53c-.27-.19-.49-.39-.51-.61-.26-2.71-.64-8.21-.42-10.76.58-.56.7-1.37.34-2.45l-.83-1.36c-.28-4.9-1.13-9.76-2.56-14.56l.48-1.52-1.42-2.26c-1.76-6.34-3.69-12.64-5.78-18.88-.12-1.67-.35-3.35-.69-5.04-1.42-1.12-1.83-2.44-1.25-4.15-.3-.28-.59-.58-.84-.9s-.46-.64-.57-.99c-1.47-4.71-2.59-9.49-2.75-14.31-.56-.59-.98-1.28-1.24-2.05-.85-5.53-1.36-11.07-1.67-16.65-.21-.3-.4-.6-.54-.93-.92-2.12.31-13.34.79-16.38.68-4.27,1.73-8.65,3.22-12.68l.69-.76c-.11-.36-.2-.72-.23-1.08s-.06-.71.05-1c2.42-6.9,5.44-13.61,8.59-20.21.14-.29.39-.52.66-.76s.58-.44.91-.63c-.27-.96-.05-1.88.39-2.77,7.36-13.34,13.01-27.26,16.96-41.78.29-3.94.62-7.83.98-11.66-.27-.44-.46-.91-.47-1.43-.08-4.21-.7-8.21-1.65-12.17l-1.37-1.03c-3.18-6.1-7.13-12.04-11.26-17.23-.35-.44-.31-1.1-.25-1.68-1.19-.94-2.26-2-3.2-3.18-6.45-9.06-12.72-18.25-18.94-27.47-6.98-10.35-12.87-21.16-16.04-33.31-.08-.31-.02-.65.05-1.02s.19-.73.33-1.08h9.55Z"/>
      <path class="cls-1" d="M136.5,0h9.97l.64,1.91c-2.8,26.37,15.05,46.17,33.1,62.71l.31,1.03c1.18-.15,2.17.55,2.97,2.1,1.32.57,2.09,1.22,2.3,1.95,6.72,4.01,12.89,10.75,13.75,19.08-.62,1.43-.87,3.14-.75,5.12.19.21.37.44.5.68,1.83,3.51-7.08,18.88-9.96,22.09l-13.95,18.32c-2.26,3.28-4.34,6.7-5.74,10.43l-1.16.82c-5.89,13.44-6.74,27.58-2.85,41.9-.34.53-.5,1.1-.47,1.73,1.41,1.15,2.28,4.77,2.61,6.74-.39.3-.58.68-.53,1.15.99,1.63,2.01,3.41,1.85,5.31,1.36,1.8,2.41,4.03,1.88,6.32,1.5,2.45,2.83,5.12,4,7.99l-.26,1.15c.3.37.59.75.8,1.16,3.43,6.51,6.99,15.67,9.34,22.78.85,2.57,1.68,5.46,1.9,8.05.32.31.62.63.88.99s.49.69.61,1.07c2.49,7.76,4.5,16.49,3.91,24.54.24.34.46.69.63,1.06s.32.72.34,1.09c.49,6.82-.08,13.74-1.24,20.39.51,2.27-.11,4.64-1.16,6.71-.29,2.32-.78,4.49-1.48,6.49.12,5.88-1.67,12.22-4.15,17.52-1.06,4.73-2.58,9.28-4.57,13.65-.05.83-.13,1.67-.26,2.49s-.28,1.63-.54,2.39c-5.49,16.12-11.96,32.02-18.89,47.55-.97,3.13-2.16,6.15-3.57,9.06l-.26,2.8c-4.33,11.42-4.37,24.18-1.42,35.88.32,2.06.6,4.13.85,6.19,1.97,3.19,3.6,6.67,4.88,10.43,6.59,12.9,13.7,25.52,21.34,37.86.29.77.41,1.57.36,2.4,5.38,6.81,8.48,15.34,11.18,23.58l-.38,1.77c.29.27.56.56.79.88,1.48,2.07,2.07,9.96,2.24,12.97,1.1,19.44-6.86,36.6-20.12,50.52-5.85,6.05-11.44,12.33-16.76,18.84l-1.87,1.13c-4.15.31-8.31.31-12.46,0,.39-2.75,1.69-5.36,3.91-7.82,9.18-10.72,18.02-21.66,26.52-32.83,6.89-9.87,9.42-21.53,10.14-33.19-.69-1.45-.69-3.29.13-4.7l-.96-1.59c-1.1-11.84-6.06-22.83-11.78-33.11-8.71-13.58-16.12-27.73-22.24-42.45-2.55-7.6-5.36-21.87-3.1-29.54.2-.68.62-1.25,1.12-1.75-.35-3.15.19-6.33,1.61-9.55,5.66-15.03,11.02-30.33,16.03-46.04l1.47-2.99c-.13-1.66.26-3.31,1.17-4.96,1.26-7.13,2.97-14.57,5.89-21.21.48-4.7,1.32-9.35,2.53-13.95-.16-3.23-.04-6.47,1.62-9.31-.32-3.48.18-7.62.79-11.01l-.41-.48c.48-4.08.56-8.13.24-12.15l.62-.88c-.61-5.26-1.35-10.53-2.24-15.81l.57-1.64c-.7-1.36-1.07-3.5-.83-4.99-1.14.09-1.28-.33-.42-1.25l-1.11-1.18-2.61-10.12.4-1.57-1.67-2.54c-2.99-8.63-6.18-17.19-9.55-25.68-.62-2.34-1.17-4.7-1.66-7.1-2.26-2.34-3.17-6.32-2.91-9.56-2.69-4.1-3.6-9.64-3.32-14.54l-1.07-1.35c-1.71-7.92-1.22-15.5-.55-23.43.05-.6.25-1.07.79-1.4.04-.5-.17-.89-.58-1.21.31-2.37,2-6.83,3.04-9.1.08-.17.37-.24.73-.28.36-2.11,1.33-3.77,2.38-5.55.07-1.31.73-2.57,2-3.8,1.7-3.39,3.61-6.57,5.72-9.56l-.1-.9c5.29-7.43,9.96-15.3,14.01-23.62l.79-.02c.78-1.97,1.7-3.76,2.75-5.37l-.24-1.73c5.45-12.89,2.64-25.23-7.58-34.52l-8.97-8.97-.1-.73c-2.04-1.33-3.34-2.91-3.88-4.74-.36-.08-.7-.18-1.03-.33s-.62-.29-.82-.52c-13.65-15.21-26.83-35.1-27.19-56.19,0-.32.12-.64.25-.98s.33-.67.54-.98Z"/>
      <path class="cls-1" d="M28.51,565.07c1.65-4.8,3.59-9.51,5.81-14.13-.63-.92-.74-1.78.43-1.92.61-3.47,1.26-6.96,1.94-10.48l.95-.9c.18-4.88-.03-9.73-.6-14.55-1.38-2.29-2.43-6.94-1.48-9.55-1.73-4.94-2.65-10.27-3.03-15.6.71-.31.89-1.2.54-2.68-.23-.18-.44-.37-.56-.61-.32-.63-.59-12.69-.38-14.05.34-2.13,1.22-5.4,1.89-7.55.58-.32.81-1,.71-2.06,2.61-6.27,4.99-12.62,7.14-19.05l1.16-1.14c.01-3.78,1.06-7.67,2.08-11.22-1.12-.41-.67-1.18.42-1.25-.68-2.91-.27-5.73,1.25-8.31.21-8.2.95-16.5,2.5-24.62l.83-1.97-.33-3.51,3.21-20.22,1.27-3.28-.34-1.83c.65-8.19,1.11-16.41,1.37-24.64.05-6.26.26-12.4.63-18.41l-.85-1.25c-.16-4.36-.63-8.6-1.43-12.73l.62-1.39c-1.71-3.48-2.61-7.24-2.69-11.28-.79-.51-.96-1.18-.52-2.02-.77-2.03-1.22-4.11-1.36-6.23-.65-.87-1.33-1.76-1.68-2.8-1.88-5.5-3.55-11.1-4.55-16.73l-.94-1.09c-3.64-8.97-6.88-18.24-8.96-27.69-1.15-1.66-1.21-3.34-.9-5.29-.51-.39-.92-.88-1.18-1.47-1.28-2.94-1.93-11.09-2.04-14.6-.37-11.37,3.38-22,7.86-32.49,1.58-1.72,2.48-4.21,2.92-6.49,2.98-6,6.11-11.89,9.39-17.67,1.41-4.15,3.38-7.89,5.9-11.22l-.17-1.57c5.88-12.54,11.56-25.51,14.63-39.11,2.12-9.38,3.05-18.41.36-27.74-3.33-11.57-8.97-22.58-14.69-33.13-.21-.62-.24-1.26-.12-1.91-1.01-.86-1.91-1.83-2.58-2.97-5.64-9.62-11.79-18.72-18.05-27.8-5.31-7.36-9.31-15.29-11.99-23.78l.22-1.12h6.23l1.2.99c4.94,10.74,11.47,20.69,19.61,29.85,1.08,2.01,2.48,3.77,4.19,5.28,2.11,2.83,4.41,6.03,5.73,9.16.33.11.65.23.94.4s.55.33.7.56c2.45,3.84,4.69,7.81,6.67,11.91l1.24,1.05c2.47,6.18,5.09,12.31,7.86,18.38,3.23,7.48,5.52,15.06,5.43,23.26-.03,2.31-.5,6.54-2.08,8-.11,6.79-1.75,13.71-4.15,19.94.64,2.13-.6,5.75-2.49,7.06l-.33,3.32c-6.31,16.21-13.23,32.22-20.77,48.03-6.28,12.7-10.68,25.91-13.19,39.61l-1.02,1.69.33.85c-.38,3.17-.18,6.19.59,9.08-.39,1.49-.54,2.94.46,4.17-.36,1.85-.1,3.24.8,4.15l2.34,9.84-.37,1.82c1.61,3.02,2.93,6.48,3.5,9.79.37.33.69.67.84,1.08,1.63,4.45,3.27,8.92,4.77,13.42.14.41.15.86.15,1.32s-.05.94-.12,1.41c1.96,1.94,3.01,5.19,2.49,7.89.94,1.32,1.45,2.93,1.52,4.81,1.66,4.74,3.04,9.6,4.06,14.57.08.41.07.84.04,1.29s-.12.9-.22,1.35c.2,0,.36.02.37.08.91,3.65,1.48,7.22,1.96,11.09-.51.19-.73.63-.66,1.3l1.04,5.38c1.03,12.49.51,27.54.04,40.21-.08,2.08-.19,4.32-.67,6.35-.35,1.21-.18,1.95.52,2.22-1.04,7.21-2.09,14.43-3.14,21.68l-.6.3c.02,2.61-.35,5.05-1.35,7.38.18.96.35,1.96.19,2.93-1.65,9.79-3.37,19.68-5.71,29.29.13,2.33-.52,4.61-1.95,6.84-.17.62-.02,1.18.41,1.68-2.17,6.25-4.03,12.58-5.59,18.99l-1.05,1.35c-.12,4.43-.26,8.86-.42,13.3l.5.66.33,10.97.83,1.01c.27,3.87.77,7.71,1.5,11.54l-.67,1.17.99,1.01c1.86,8.25,2.09,16.04,0,24.4-.06.25-.37.45-.76.62-.9,6.43-3.67,12.35-6.77,18,.07,1.18-.4,2.41-1.59,2.76-.44,1.71-1.19,3.15-2.26,4.32l.14,1.01c-6.73,14.4-13.42,29.63-8.93,45.8l-.35,1.79c-2.9.31-5.82.31-8.72,0-.25-.21-.5-.43-.69-.68-1.52-1.95-.89-10.96-.52-13.82,1.35-10.51,5.87-20.29,10.47-29.77l1.55-1.43Z"/>
      <path class="cls-1" d="M21.03,552.61c-.28-2.48-.28-5,0-7.48-1.02-.12-1.16-.67-.42-1.66-1.58-4.35-2.86-8.94-3.83-13.77l.51-1.6c-1.44-3.63-2.14-7.47-2.4-11.43-.69-.44-1.04-1.06-1-1.87l-.51-7.09c-.36-.29-.66-.59-.7-.93-.43-3.02-1.59-12.59-.55-14.75.16-.33.37-.63.59-.92-.69-1.45-.49-4.67.67-5.97.06-2.46,1-4.43,2.28-6.48,8.19-11.12,12.27-23.94,13.09-37.87l.99-1.62c-.3-3.54-.29-7.3-.05-11.01l.88-1.87c-.88-.67-.71-1.69,0-2.49.22-4.33.36-8.77.42-13.3-1.28-1.13-.9-5.85.42-6.86-.32-.04-.76-.11-.83-.37-.15-.53-.11-7.36,0-8.18l.83-.59c-1.21-.69-.3-2.93.83-3.12-.15-.46-.28-.92-.36-1.39s-.14-.92-.07-1.35c1.45-9.35,3.77-19.2,7.07-28.01-.63-3.21.32-8.05,2.08-10.8.28-.83.1-1.57-.5-2.23l1.04-9.02c.61-6.38.84-12.74.7-19.08l-1.04-2.03c-.78-6.83-1.82-13.63-3.12-20.4-.62-.84-1.24-1.72-1.56-2.72-2.39-7.58-4.79-15.31-6.33-23.04-.37-.43-.72-.86-1.03-1.33s-.59-.92-.77-1.41c-2.36-6.47-4.72-13-6.87-19.54-3.69-11.2-6.85-22.47-8.54-33.99.03-3.13-.25-6.16-.83-9.09,1.05-8.64,2.4-17.75,7.25-25.22l-.11-1.05c5.36-10.58,11.46-20.8,18.3-30.67,11.82-18.62,20.49-42.91,7.29-62.49l.26-1.35c-4.17-5.99-7.38-12.56-9.55-19.53l-1.99-2.13c-6.29-11.62-12.51-23.95-17.67-36.1-.18-.42-.23-.9-.27-1.4s-.03-1,0-1.5c-1.6-1.23-2.15-2.62-1.66-4.15-.65.17-.78-.25-.42-1.25-.29-.22-.57-.45-.81-.72-1.45-1.63-4.49-15.37-3.81-17.42.11-.34.28-.66.47-.98h5.81l1.31,1.96c2.63,10.6,7.41,20.48,12.71,29.98l11.98,21.01c1.08,1.73,1.69,3.48,1.84,5.23.37.26.73.53,1.06.84s.61.62.81.98c5.23,9.62,10.51,20.8,14.35,31.04,6.5,17.32.09,35.96-7.21,51.95-2.98,6.52-6.72,14.23-10.49,20.27l-1.42.88-.06,1.85c-.91,1.05-1.73,2.2-2.47,3.46-1.24,2.65-2.6,5.23-4.07,7.72-.94,1.48-1.84,3.06-2.64,4.64-.54,1.08-1.12,2.34-1.31,3.34-4.09,7.7-7.34,15.56-8.38,24.38l-1.01,1.56c.13,2.99.13,6.03,0,9.14l.86,1.05c1.33,9.95,3.83,19.69,7.48,29.21l-.45,1.31c3.95,7.99,6.95,16.82,9.5,25.52l.05,1.9c1.02,1.42,1.65,3.09,1.88,5,.41.13.74.3.84.55.77,1.98,3.77,10.63,3.43,11.91-.08.29-.2.56-.35.82,1.23,2.78,1.78,5.55,1.66,8.31.67.31.95,1.14.83,2.49.33.03.83.09.9.33.23.8,1.34,7.08,1.27,7.61-.44.49-.61,1.17-.5,2.03,1.11,4.61,2,9.18,1.78,14.02-.63,2.44-.94,4.96-.95,7.59l.6,4.43c-1,13.08-2.79,26.25-6.42,38.78l.35,1.25c-1.37,11.26-2.83,22.46-4.5,33.66.46,4.05.28,7.93-.57,11.92.07,2.09-.16,4.08-.68,5.95.85,2.52.65,6.23-.96,8.34.2,2.13.3,4.29-1.08,5.96.21,2.17-.22,3.78-1.29,4.82l.42,1.49c-2.51,6.91-5.93,13.6-9.82,19.78-1.12,3.51-2.12,7.03-2.98,10.57l-.49.57c.73.48.73.76,0,.83.28,2.9.29,5.83,0,8.73l.94,1.96c.16,3.94.69,7.8,1.61,11.57-.44,1.53-.2,3.63.99,4.69.91,5.41,1.81,10.84,2.69,16.26,2.03,3.02,1.83,8.04,1.63,11.77-.2,3.91-.97,7.52-1.91,11.2-1.31,3.89-2.74,7.82-4.27,11.78l-.86.57c.15.96-.09,1.88-.48,2.76-6.61,11.25-10.91,23.11-12.88,35.59.21,2.13-.05,4.03-.76,5.7-2.35.31-4.71.31-7.06,0-.33-.5-.68-1.06-.68-1.68.04-5.67,3.58-13.86,5.9-19.11,6-10.5,10.58-21.44,13.73-32.81.02-1.8.48-3.32,1.4-4.56Z"/>
    </g>
  </g>
</svg>