<?xml version="1.0" encoding="UTF-8"?>
<svg id="Layer_2" data-name="Layer 2" xmlns="http://www.w3.org/2000/svg" viewBox="0 0 163.3 613.72">
  <defs>
    <style>
      .cls-1 {
        fill: #8eb2bc;
      }
    </style>
  </defs>
  <g id="Layer_1-2" data-name="Layer 1">
    <g>
      <g>
        <path class="cls-1" d="M22.58,389.95c.41-2.98,1.51-5.45,3.18-7.93l.17-1.52c4.53-9.11,9.3-18.11,14.13-27.06.22-.41.56-.77.9-1.13s.74-.69,1.14-1c.92-2.91,2.3-5.74,4.13-8.51-.14-1.22.28-2.18,1.26-2.9,5.49-11.25,10.93-22.71,15.97-34.26l1.07-1.28-.04-1.38c1.81-5.34,3.48-10.69,5-16.07-.04-2.24.53-4.38,1.69-6.24.99-6.86,1.18-13.73.59-20.61l-.67-.71c-.58-4.35-1.56-8.64-2.72-12.87l.32-1.95c-1.81-4.15-3.57-8.35-5.28-12.63l.3-1.5c-1.15-1.03-1.83-3-1.66-4.57-.56.31-.84-.1-.83-1.25-2.13-1.91-3.35-4.61-3.32-7.48-1.39-1.46-2.25-2.99-2.57-4.59-4.05-7.04-7.89-14.54-9.89-22.42-2.2-1.77-4.13-6.34-3.74-9.14-.46-.1-.82-.33-1.12-.68-.34-.4-2.71-8.81-3.03-10.18.34-.34.49-.73.41-1.19-.89.12-1.03-.16-.42-.83-1.85-4.32-2.64-9.69-2.49-14.13-.96-1.33-.99-2.9-.48-4.45-.02-5.05.34-10.47,2.97-14.67-.1-.29-.19-.59-.22-.89-.56-5.52,19.9-25.06,25.51-28.2.84-1.28,1.82-1.97,2.95-2.07l-.12-1,7.54-6.4c9.14-8.81,12.8-16.64-1.43-22.72l-.17-1.04-1.88-.09c-9.91-4.8-20.75-10.51-29.39-16.95-1.98-1.27-3.91-2.62-5.51-4.51-1.88-1.1-3.37-2.5-4.48-4.21l-.99-.27c-.49-1.31-1.22-2.6-2.19-3.88l-1.22-.26c-9.05-11.94-7.17-25.97-.87-38.82l1.27-.81h10.8l.28,1.53c-6.21,11.44-10.98,24.79-2.46,36.38l.1,1.56c7.86,7.6,16.42,14.34,26.39,19.3l1.03,1.48c1.76-.16,3,.34,3.72,1.5,7.43,2.3,14.57,5.36,21.42,9.18l.61.95c.8-.42,1.52-.13,2.18.89,7.98,3.32,5.33,11.48-.16,16.09-7.45,6.48-15.25,12.6-23.41,18.34-7.03,5.44-13.75,11.54-18.21,19.32l-1.51,1.03c0,1.18-.42,2.38-1.25,3.59-3.13,8.19-3.06,16.14-.83,24.64-.51.49-.67,1.05-.41,1.68,1.02.43.95.87.48,1.75,1.58,6.06,3.86,12.15,6.26,18.05l-.51.97c4.27,7.49,8.04,15.67,11.62,23.69.19.43.27.9.34,1.39s.09,1.01.09,1.52l1.06.98c5.27,9.41,9.15,19.48,12.74,29.55l-.1,1.46c1.77,2.34,2.89,5.19,3.36,8.55.8,3.73,1.24,7.49,1.31,11.27.62.76.59,1.91-.1,3.44.22.37.43.75.58,1.15s.28.77.29,1.16c.28,9.15-1.74,20.81-4.6,29.49-.12.37-.47.66-.89.93-.75,3.31-1.73,6.83-3.68,9.66,0,.6-.03,1.2-.12,1.79s-.18,1.17-.39,1.69c-5.31,13.05-11.83,25.7-18.8,37.93-.56,1.93-1.49,3.44-2.78,4.51-1.84,3.62-3.6,7.28-5.29,10.97l-1.28,1.27c.13.68.1,1.36-.11,2.02-5.69,10.57-11.07,20.95-14.97,32.32-.09.27-.37.48-.71.66-.98,3.37-1.61,6.71-1.89,10.03-.86,1.53-1.03,2.97-.51,4.32-.9,3.71-.67,8.14-.06,11.95l-.45,1.03c1.21,2.52,1.99,5.3,2.35,8.35,6.24,22.73,18.98,43.34,31.11,62.64l-.24.89c.41.73,1.02,1.25,1.8,1.58,8.36,14.96,16.41,29.62,20.42,46.42.7,2.95,1.62,7.01.63,9.75,0,1.96.33,3.67,1.02,5.11.16,14.48-4.93,27.44-13.33,39.07-1.99,2.76-9.33,12.45-11.56,13.59-.33.17-.69.29-1.06.4-3.32.31-6.65.31-9.97,0l.58-1.81c5.7-6.03,11.34-12.26,15.72-19.35,6.21-10.04,7.33-16.75,8.7-27.87.06-.53.29-.94.75-1.25l-.79-2.11c.14-11.27-2.61-22.33-7.04-32.64l-.06-2.24c-.99.15-1.4-.68-1.25-2.49l-1.29-1.44c-1.88-3.24-3.38-6.64-4.52-10.19-4.45-5.83-8.23-12.12-11.33-18.88-2.69-3.89-5.67-8.22-7.74-12.48-.27-.56-.38-1.21-.45-1.87-.33-.15-.65-.3-.93-.51s-.54-.4-.7-.65c-9.02-15.44-18.32-33.89-20.59-51.75-.04-.3.06-.62.16-.95s.28-.66.46-.98c-.24-.27-.46-.55-.63-.86-1.31-2.37.05-12.19.61-15.38.6-3.43,3.37-15.32,5.4-17.21.25-.24.55-.43.85-.62Z"/>
        <path class="cls-1" d="M2.22,2.71h10.38c.73,2.13-.48,5.91-2.08,7.48-.36,4.69-.64,9.4-.83,14.13l.83.99c1.08,12.45,11.14,22.03,20.13,29.75l.22,1.25,1.28.31c7.14,5.6,15.13,10.1,23.08,14.25,1.74.91,9.29,5.56,9.06,7.21-.03.22-.11.44-.2.66,3.2,1.17,4.09,6.64,3.6,9.85-.53,3.47-3.84,8.95-6.18,11.57l-1.16.19c.18.32-.54,1.93-.84,2.45-.4.68-.79,1.15-1.65.87-5.45,6.07-11.16,12.05-17.12,17.92-6.74,7.28-12.78,15.67-14.63,25.61l-1.06,1.34c.47.44.54.92.36,1.49-.59,1.91-1.12,4.17-.12,5.97-.5.91-.52,1.54-.05,1.9l.52,7.65c1.61,1.08,1.37,3.56.95,5.42,1.09,2.78,1.96,5.7,2.62,8.76,1.38,1.35,2.59,4.63,1.95,6.62.98.58,1.58,1.28,1.05,2.32.4.13.74.3.86.56,1.62,3.49,3.58,8.22,4.82,11.84l-.09,1.89c3.99,6,7.1,12.92,8.72,19.94,3.26,4.06,5.63,9.78,6.23,14.96,2.96,3.37,3.87,8.48,4.15,12.88.27.21.53.43.75.68,1.28,1.49,3.04,12.37,3.1,14.95,0,.29-.21.59-.49.89.36,3.81.21,7.44-.45,10.9.15.49.29.98.36,1.47s.14.98.07,1.44c-1.3,9.52-3.84,18.7-7.39,27.55-.18,2.06-.57,3.89-2.19,5.27l.61.68-5.49,12.76c-.65.97-1.05,1.61-1.24,2.88-1.01,1.18-2.16,3.2-2.07,4.8-.72.71-1.62,2.56-2.12,3.71-.24,1.64-.76,2.8-1.55,3.46.19.77-.15,1.31-1.02,1.63l.06.89c-5.4,11.44-11.11,23.02-16.75,34.47-.43.88-.96,1.7-1.5,2.53s-1.13,1.63-1.74,2.42l-.02,2.03c-6.73,13.78-11.33,28.4-9.3,43.76.97,3.71,1.53,7.71,1.84,11.55,1.38,1.87,2.33,4.04,2.86,6.52,6.49,15.87,14.52,31.03,24.1,45.48.32.78.47,1.59.46,2.43,2.26,1.27,3.3,3.83,4.12,6.21,4.67,7.08,9.34,15.09,12.48,23.12.13.32.14.69.14,1.07s-.05.78-.13,1.17c.3.18.59.38.83.62s.48.46.57.73c3.62,10.18,5.94,20.55,5.73,31.42-.09,4.91-.28,10.92-2.98,15.02-.13.55.02,1.04.41,1.48-5.03,13.98-15.29,25.39-25.79,35.8-.25.24-.58.41-.92.57s-.73.28-1.12.38c-4.29.31-8.59.31-12.88,0,.07-.75.3-1.44.7-2.08l13.88-14.71c17.87-18.58,22-44.54,12.93-68.33-.6-2-1.05-3.96-1.34-5.87-1.88-2.18-3.37-4.73-4.48-7.65-2.22-3.53-3.91-7.21-5.07-11.05-.35-.2-.7-.41-1-.66s-.58-.49-.77-.8c-7.88-13.1-15.7-26.33-22.51-40.03-3.94-8.46-8.2-18.13-8.12-27.48-.25-.27-.49-.54-.68-.85-1.55-2.5-.95-19.23.77-21.62.21-.29.47-.55.74-.8.65-4.58,1.79-9.05,3.42-13.39,1.07-1.07,1.54-2.5,1.4-4.31,7.03-16.3,14.61-32.43,22.26-48.43.15-.32.4-.59.67-.86s.59-.52.91-.74c.22-2.8,1.48-5.55,2.83-7.93-.02-.61,0-1.2.19-1.73,2.68-7.4,5.19-14.78,7.73-22.23.37-1.1,1.03-2.07,1.71-3.01,1.12-6.91,2.45-13.71,4.01-20.41-.28-.35-.5-.69-.46-1.01.84-8.08.83-16.12-.66-24.14l.43-2.22-1.22-1.74c-1.65-6.34-3.52-12.59-5.61-18.76l.18-1.1-1.13-1.42c-4.04-8.78-7.74-17.69-11.11-26.73l-.22-1.77c-1.13-.94-2.05-1.93-1.85-3.41-1.32-1.26-1.53-3.12-1.48-4.9l-1.03-1.15c-1.68-3.35-2.55-7.22-3.13-10.9-2.22-2.46-2.91-7.47-3.28-10.9-.09-.8-.13-1.59-.04-2.39-.44-.37-.91-.78-1.09-1.34-1.82-5.85-1.9-18.74-.07-24.58.08-.25.37-.42.73-.58.05-1.91.61-3.33,1.68-4.25l-.34-.87c3.71-6.82,7.09-12.64,12.33-18.81,7.9-7.94,14.79-16.55,20.65-25.84l1.42-1.01c2.32-6.75,2.99-11.95-.83-18.28-1.25-.34-2.35-1.23-3.29-2.65-5.81-4.81-11.8-9.24-17.97-13.3-1.25-.84-2.2-1.75-2.83-2.75-.61.04-1.19-.05-1.73-.33-3.08-1.59-9.8-8.72-12.39-11.61C3.44,37.63-1.28,26.03.3,9.67c.2-2.12.64-5.47,1.93-6.96Z"/>
        <path class="cls-1" d="M38.78,404.08c.39-6.35,2.98-12.91,5.45-18.89,3.81-9.21,8.68-18.18,13.48-26.87l1.01-.78c1.43-3.5,2.88-6.99,4.36-10.47,7.89-14.23,14.23-29.08,20.39-44.1.42-1.03,1.13-1.92,1.84-2.77.42-2.89,1.02-5.86,2.31-8.38,2.76-11.34,4.01-23.45,2.17-35.22l.51-2.1c-.65-1.44-1.01-2.8-1.1-4.07-2.01-7.81-5.02-15.5-8.14-23.12l.1-1.9c-3.75-5.54-7.24-12.21-8.72-18.7-.38-.31-.74-.63-1.07-.99s-.63-.7-.82-1.1c-3.94-8.09-7.82-16.22-11.18-24.57-.46-1.32-.65-2.7-.64-4.09-.29-.2-.58-.41-.82-.66s-.46-.48-.56-.76c-2.95-8.29-5.43-17.28-4.44-26-.21-.24-.41-.48-.56-.76-1.11-2.03,1.03-11.8,2.96-13.7.36-2.2,1.44-4.2,3.23-5.98,1.22-3.19,4.14-6.94,7.24-8.64l.15-.95c7.67-7.29,16.04-13.86,25.1-19.71,2.13-1.59,4.21-3.24,6.21-5,11.44-10.1,10.46-15.49-3.25-20.74-.08-.82-1.5-1.4-2.11-.84-1.44-.75-2.8-1.62-4.07-2.61l-1.79.08c-1.88-.68-9.48-3.99-10.23-5.05-.18-.26-.32-.55-.44-.85l-1.68.05c-9.41-5.13-18.59-11.23-25.49-19.57l-.25-1.67c-.54-.24-.82-.52-.83-.83-2.4-2.16-4.35-6.07-4.43-9.45-1.01-4.37-1.3-9.53.69-13.41-.16-.24-.3-.49-.39-.76-.5-1.44,4.31-12.34,5.41-14.54l1.21-.9h8.72l.39,1.47c-5.92,14.88-8.14,31.25,4.75,43.19l.25,1.46,1.01.28c5.44,4.74,11.4,9.09,17.76,12.65l1.17,1.62c1.87.26,4.28.72,5.13,2.3l1.34.02c6.68,2.92,13.48,5.97,19.45,10.14l.24,1.26c.75-.03,2.41,1.14,2.19,1.82,5.16,6.32-3.14,14.06-7.99,18.03-7.05,5.6-14.17,11.11-21.36,16.55-9.01,7.25-17.52,16.01-20.31,27.58l-1.13,1.26.56,1.6c-.49,1.65-.93,3.31-.88,5.05.72,4,1.17,8.33,1.15,12.46l.83.78c.34,2.82,1.08,5.55,2.22,8.19l-.56,1,.8.73c2.86,7.79,5.93,15.52,9.55,23l.03,2.03c3.9,5.17,7.19,11.57,8.72,17.87l.97.75c3.41,6.42,6.94,13.4,9.34,20.31.12.36.04.79-.11,1.24,1.97,4.49,3.28,9.1,3.92,13.84.28.27.54.55.75.86,1.6,2.33,2.32,14.18,2.17,17.61-.01.33-.22.66-.49.98.16,4.1-.38,8-1.6,11.71.14.37.27.74.34,1.12s.12.74.06,1.08c-1.61,7.77-4.2,16.82-7.26,24.14-.14.34-.51.59-.94.81-.83,2.72-1.78,5.42-3.41,7.75-.06.67-.13,1.34-.27,2s-.27,1.3-.54,1.89c-5.35,12.04-11.28,23.88-17.83,35.27-1.08,3.2-2.62,6.07-4.62,8.62-1.62,4.49-3.94,8.75-6.23,12.88l.07,1.16c-2.88,6.44-5.54,12.98-7.99,19.63-3.95,10.11-4.27,20.37-3.52,31.13,1.04,1.78,1.29,3.34.75,4.69.62,1.02.94,2.25.96,3.69,2.15,7.59,4.77,15.01,7.85,22.25,1.2,1.09,1.78,2.25,1.47,3.87,2.5,2.74,4.3,6.23,5.58,9.71l1.09.98,9.26,15.56c.4.9.63,1.85.69,2.84,1.02,1.13,2.36,2.61,3.2,3.88,6.33,9.6,16.26,27.56,19.04,38.46.08.32.06.67.03,1.02s-.14.73-.25,1.1c.31.3.6.6.84.94,1.96,2.73,3.08,13.63,3.31,17.56,1.32,22.34-9.32,40.54-23.6,56.6l-1.32.51c-2.49.31-4.99.31-7.48,0l-.35-.9,10.4-13.18c9.3-12.74,14.35-27.83,12.96-43.67l.67-2.08-1.05-2.04c-2.33-19.26-12.21-36.3-21.84-52.75l-.5-2.15c-1.37-1.1-2.01-2.34-1.94-3.73-.33-.16-.66-.33-.95-.54s-.55-.41-.71-.68c-3.11-5.19-6.17-10.45-9.13-15.73-9.46-16.89-18.45-34.66-19.09-54.41-.12-3.63-.02-14.1,1.71-16.67.22-.32.48-.61.76-.89Z"/>
        <path class="cls-1" d="M108.55,343.41c.8-4.03,2.6-7.51,4.78-10.92-.35-.87-.08-1.46.81-1.76.57-2.78,1.64-5.19,3.21-7.23l.65-3c4.99-12.22,9.49-24.9,10.41-38.13l.9-1.7c-.37-1.01-.7-2.38-.83-3.55-1.14-9.83-2.26-18.64-6.74-27.75l.09-1.94c-1.68-2.32-2.88-4.82-3.59-7.51-.51-.25-.95-.54-1.17-.94-4-7.56-7.96-15.22-11.7-22.88l-.16-1.5c-3.67-4.67-6.99-10.44-9.4-16.01-.14-.33-.18-.7-.21-1.08s0-.79.06-1.19c-.27-.02-.51-.06-.67-.2-1.19-1.09-4.32-9.15-4.79-11.1l.48-1.16c-1.24-1.59-1.93-3.51-2.07-5.75-.28-.08-.5-.16-.53-.3-1.63-6.78-2.35-13.37-2.1-20.23l.96-1.56c-.29-.12-.71-.32-.68-.55.7-5.18,2.67-11.37,6.08-15.24-.22-.28-.38-.65-.2-.93,3.96-6.5,9.3-12.58,15.03-18,7.39-6.79,14.64-13.66,21.62-20.87,3.16-3.26,6.03-7.38,7.61-11.61,1.01-2.69,1.75-4.95.89-7.9l.33-.52-1.02-.42c-.92-2.39-2.82-4.18-4.85-5.65-.38-.94-1.84-2.4-3.17-2.37l-.52-1.12-1.93-.3c-5.97-3.58-13.46-8.84-18.55-13.54-.22-.2-.31-.54-.37-.91-3.64-2.27-6.33-6.43-8.63-10.18l-1.29-.41c-1.22-2-2.26-4.44-2.86-6.65-.31-.16-.62-.34-.88-.57-1.44-1.2-3.13-7.5-3.7-9.79-1.13-4.52-3.04-21.53-1.03-24.97.17-.3.4-.56.63-.82h8.31l.6.87c.72,10.3,1.9,19.44,5.02,29.33.87,1.11,1.21,2.26,1.02,3.46l1.02.24,2.67,5.4-.37,1c2.35,2.28,4.28,4.86,5.8,7.73.46.02.86.09,1.08.33,4.73,5.16,9.68,10.04,15.34,14.2l1.04,1.84c.85-.25,1.48-.35,1.45.56,3.43,1.42,6.58,3.77,9.27,6.42l.07,1.33,2.42,2.19c.63.89,1.89,4.99.9,5.7.67,1.12.6,1.77.07,2.86.17,1.76-.11,3.03-.85,3.83-1.22,5.57-4.84,10.33-8.68,14.57-6.17,6.72-12.61,13.21-19.31,19.49-4.72,4.75-9.43,9.65-12.72,15.5l-1.28.68c-6.9,11.08-9.43,24.41-6.47,37.18l-.17,2.29,1.31,1.87c1.43,5.15,3.13,10.26,5,15.22l-.09,1.19c.65.48,1.28,1.01,1.69,1.72,2.11,3.63,4.63,8.36,6.39,12.16.59,1.28,1.22,3.05,1.47,4.4.43.34.84.69,1.22,1.08s.73.76.98,1.2c3.52,6.18,6.94,12.42,10.34,18.66,2.19,4.06,4.33,8.25,5.33,12.72,1.86,1.92,3.18,4.37,3.96,7.37,2.01,6.12,3.68,12.35,5.01,18.67-.55,1.31-.47,2.24.24,2.79l-.49,5.66c.93,2.89.17,6.57-1.25,9.14.14.41.25.83.31,1.26s.1.82.03,1.21c-1.36,7.41-4.13,15.31-6.76,22.39-.15.39-.48.72-.86,1.03-2.15,8.05-6,15.67-9.87,23.02-.8,2.28-1.86,4.43-3.19,6.45.05.95-.37,1.61-1.26,1.99l-.29,1.85c-7.76,15.62-15.45,31.29-23.06,47.02-7.77,17.59-15.6,36-8.41,54.78l-.23,1.89c1.44,1.21,2.71,3.43,2.22,5.25,4.22,8.07,9.06,15.96,14.52,23.67l.28,1.83c.49.32.98.66,1.43,1.04s.87.75,1.21,1.19c4.49,5.77,9.02,11.6,13.02,17.68l.54,1.69c.31.07.61.16.89.29,1.35.65,10.01,13.91,10.03,15.4,0,.31-.05.62-.12.93,3.51,3.61,5.36,8.83,6.95,13.59,7.36,21.91-.08,38.55-12.19,56.72-3.73,5.59-7.72,11.14-11.67,16.61-.19.27-.48.47-.78.67s-.66.36-1.01.51c-2.35.31-4.71.31-7.06,0-.19-1.5.51-2.96,2.1-4.38,20.68-22.7,32.03-52.22,15.59-80.97l-.24-2.32-1.96-1.92c-7.59-12.45-15.58-24.64-23.95-36.59l-.26-1.39c-.32-.11-.64-.23-.93-.4s-.54-.33-.7-.56c-6.42-9.61-12.03-19.73-15.67-30.48l.26-.98c-.3-.23-.58-.48-.82-.76-2.04-2.39-3.07-13.58-3.17-17.25-.47-17.43,8.29-35.89,15.88-51.44,5.94-12.17,11.91-24.33,17.97-36.45.38-.76.86-1.46,1.35-2.16s1.04-1.38,1.59-2.05Z"/>
        <path class="cls-1" d="M72,372.91l.35-2.01c1.85-2.83,3.21-5.82,4.09-8.95,1.65-2.02,2.92-4.32,3.83-6.88,1.19-3.05,2.67-5.94,4.52-8.73,4.46-10.2,9.06-20.33,13.8-30.39l1.24-1.62c1.41-5.61,3.12-11.19,5.12-16.74.79-3.81,1.99-7.38,3.6-10.69.33-4.58.81-9.17,1.44-13.75-.6-10.44-2.53-20.94-6.4-30.86l-.03-2.34c-1.13-.71-1.5-3.12-1.66-4.57-.38.1-.52-.04-.42-.42-2.7-4.46-5.23-9.35-7.16-14.33l.1-1.04c-4.46-6.92-8.75-14.22-11.83-21.95l-.22-1.73c-4.68-7.48-8.11-15.6-10.28-24.36l-.1-3.89c-.26-.19-.5-.39-.7-.63s-.37-.45-.43-.7c-1.48-6.69-1.47-12.89-1.08-19.5l.55-.36c-.49-1.68-.02-3.21.71-4.96.29-.68.92-1.74,1.28-2.14.48-2.05,1.33-3.7,2.58-4.95-.05-.35-.08-.69-.05-1.03.35-4.28,13.08-15.87,16.82-19.12,6.64-5.32,13.2-10.72,19.69-16.21,7.48-6.4,15.59-15.98,4.05-22.57l.07-.72c-1.13-.24-1.78-.71-1.95-1.42l-2.05-.27c-4.46-2.15-10.04-5.01-14.22-7.58-1.98-1.22-3.9-2.51-5.33-4.2-.48.17-.95.16-1.44.03-1.78-.49-9.42-7.28-11.24-9.02-1.54-1.47-6.86-6.68-7.3-8.26-.13-.49-.14-.96.04-1.44-3.29-2.16-4.86-7.82-5.69-11.73-1.91-8.98-.12-18.24,2.05-27l1.15-1.15h8.72l.56,1.65c-1.69,9.9-2.47,20.21.93,29.85l-.24,1.74c1.42,1.64,2.18,3.39,2.88,5.38.93.77,1.5,1.57,1.71,2.39,4.75,6.3,10.95,11.74,17.5,16.42l.76,1.57.7.1c6.82,3.41,14.34,7.31,20.91,11.82l.4,1.37c3.62,1,5.34,5.22,5.33,8.75,0,1.74-.21,4.86-2.01,5.38.13,2.37-1.17,3.98-2.6,5.73-8.32,8.62-17.2,16.77-26.65,24.44-7.55,6.96-14.77,14.83-18.11,24.72l-1.24,1.2c.1.6-.46,4.74-.67,4.87-.16.1-.36.12-.58.12.21.66.4,1.52,0,2.08-.36,2.33-.41,4.73,0,7.06.65.56.75,1.19.28,1.89,1.23,6.53,2.86,12.97,4.87,19.32l-.16,2.06c.64.63,1.3,1.3,1.67,2.13,2.1,4.74,4.2,9.53,6.25,14.29.17.4.25.84.32,1.29s.08.93.07,1.4c3.73,4.2,6.78,9.93,8.31,15.37l1.05.54c2.6,5.98,5.53,11.82,8.78,17.53,3.76,8.14,6.79,17.09,8.04,25.98,1.21.26,2.27,6.63,2.06,7.46l-.81.64c1.38.4,1.27,5.59,0,6.23,1.21.41,1.44,4,.42,4.78-2.88,16.58-8.02,34.26-15.28,49.7-.2.42-.6.73-1.07,1.02-.27,2.48-1.19,4.65-3.17,6.2-.2,1.46-.57,2.88-1.13,4.24-8.34,16.37-16.68,32.77-24.3,49.44-10.89,23.84-14.56,45.56-2.14,69.88l.15,2.32c1.55,1.19,2.31,3.08,2.87,4.92,3.39,5.13,6.78,10.58,9.92,15.97.19.33.28.71.37,1.11s.12.84.14,1.27c.38.21.75.43,1.09.7s.64.52.86.84c8.27,12.47,16.61,25.06,23.15,38.53.64,1.09.83,2.3.65,3.55.34.26.66.52.94.83,2.56,2.8,5.12,15.33,5.72,19.69,3.35,24.64-9.1,45.09-24.66,62.6l-1.1.39c-2.35.31-4.71.31-7.06,0-.08-.6,0-1.17.24-1.72,20.79-21.5,30.48-50.3,18.11-78.9.44-.85.43-1.68-.08-2.48l-1.78-2.11c-5.57-11.59-11.7-22.88-18.38-33.87l-.2-1.41-1.07-.72c-6.11-8.96-11.71-18.61-16.22-28.29-1.51-3.23-3-6.52-4.3-9.63-1.13-2.91-2.31-6.08-2.5-9.15-1.51-.69-2.24-3.26-1.25-4.57-1.81-4.13-2.11-8.77-2.11-13.27-.26-.3-.46-.6-.47-.9-.16-4.88.56-11.81,1.65-16.59.06-.28.36-.5.72-.72.82-6.46,3.03-12.17,5.53-18.21,2.45-5.91,5.16-11.89,8.3-17.42l.91-.63Z"/>
        <path class="cls-1" d="M89.45,441.47c-.19-.23-.37-.46-.49-.72-1.7-3.49,7.52-26.43,9.68-31.15,9.48-20.7,19.61-41.08,29.81-61.44.65-1.3,1.6-2.41,2.54-3.5l-.1-1.78c2.43-3.95,4.28-8.16,5.56-12.63.9-.85,1.42-1.97,1.55-3.34,4.25-11.09,8.31-22.5,9.5-34.35l.93-1.49c-.56-7.42-1.66-14.69-4.02-21.85l.29-1.84c-1.22-1.42-1.95-2.94-2.17-4.57-3.14-6.29-6.29-12.69-9.46-19.2v-1.16c-1.21-1.4-2.55-3.08-3.52-4.61-3.81-6.01-8.57-13.57-11.55-19.88-.56-1.19-.92-2.45-1.13-3.75-2.59-3.31-9.52-14.31-9.33-18.03.02-.36.1-.72.19-1.08-.97-.97-1.83-3.02-2.35-4.54-1.67-4.92-2.54-10.42-3.31-15.54.41-.53.63-1.17.67-1.94-.11-.23-.2-.47-.21-.71-.07-1.17-.06-2.39-.05-3.57.23-14.35,9.03-26.65,17.85-37.6l1.51-.51c.05-.72.25-1.38.63-1.99,10.56-10.08,19.87-21.14,27.93-33.17l1.76-1.4v12.05l-.76,2.39c-7.32,8.87-14.78,17.63-22.36,26.28-7.54,8.85-13.23,18.72-17.02,29.45-.07,2.77-.85,5.09-1.81,7.53l.73,1.62c.12,7.43.99,14.79,2.59,22.07l1.33,1.38c1.88,5.02,3.94,9.91,6.18,14.67l-.04.99c.76.61,1.54,1.24,2.05,2.08,4.11,6.76,8.2,13.6,12.2,20.43.23.4.36.87.48,1.35s.18.99.23,1.49c.41.29.82.58,1.18.93s.71.67.94,1.06c4.67,8.04,9.31,16.11,13.17,24.58l.91,4.18v48.2c-1.28,6.05-3.17,11.96-5.68,17.75-8.25,19.04-17.55,37.62-26.88,56.16-.34.69-.79,1.32-1.25,1.95s-.97,1.24-1.49,1.84c-1.32,4.51-3.43,8.91-5.81,12.88.46,1.07.43,1.44-.83,1.25-1,3.51-2.37,6.99-4.1,10.45v.81c-2.58,4.78-4.32,10.3-5.64,15.73-2.13,8.76-2.67,17.45.43,26.09l-.24,1.77c.95.71,1.81,1.71,1.25,2.91.81-.26.97.16.42.83l.9.62c6.18,12.23,15.36,22.34,24.67,32.36.35.59.55,1.23.59,1.92,1.27.37,1.82.93,1.66,1.66,1.28-.41,2.16.88,1.66,2.08l1.44.81c7.15,7.46,13.4,15.81,18.18,24.57l.74,2.88v36.15c-1.45,5.69-4.28,11.06-7.51,16.2-5.6,8.94-12.02,18.17-18.19,26.65l-.89.36c-2.35.31-4.71.31-7.06,0-1.16-.83.79-3.45,1.56-4.47l7.11-9.49,1.71-1c1.55-1.36,2.68-3.08,3.32-4.99l.28-1.98c13.26-19,19.56-41.45,6.58-62.43l-.22-2.08-1.56-1c-4.27-7.21-9.6-13.65-14.92-20.08-.55-.84-1.24-2.09-1.38-3.01-4.62-3.73-8.78-8.98-12.32-13.86-.68-.94-1.05-2.07-1.39-3.17l-1.53-.66c-8.97-12.53-19.14-27.89-16.33-43.8Z"/>
      </g>
      <path class="cls-1" d="M152.17,268.62s8.19,24.05,0,48.2"/>
      <path class="cls-1" d="M152.17,94.12c2.61-6.31,3.81-13.83.45-19.77-2.86-5.07-8.37-7.92-13.38-10.9-8.1-4.81-15.73-10.78-20.92-18.64-8.18-12.39-9.47-28.21-7.55-42.93.11-.85.5-1.93,1.35-1.87.51.03.88.5,1.16.93,5.37,8.23,5.41,18.68,6.86,28.4.48,3.22,1.16,6.48,2.84,9.26,1.52,2.51,3.77,4.49,6.02,6.36,6.01,4.99,12.35,9.58,18.97,13.72,5.56,3.48,11.7,7.08,14.15,13.16,1.5,3.74,1.37,7.93.7,11.9-1.4,8.27-5.11,16.13-10.59,22.47"/>
      <path class="cls-1" d="M152.17,534.13s9.67,15.48,0,36.15c-9.67,20.67,0-36.15,0-36.15Z"/>
    </g>
  </g>
</svg>