<svg width="64" height="64" viewBox="0 0 168 168" xmlns="http://www.w3.org/2000/svg"><circle fill="#1DB954" cx="84" cy="84" r="84"/><path fill="#fff" d="M123.2 117.1c-1.4 0-2.3-.6-3.5-1-21-12.5-47.6-13.5-70.1-8.4-1.8.4-4 .1-4.4-1.9-.4-2 1.2-3 3-3.4 24.8-5.7 53.7-4.6 76.5 9.1 1.5.9 2.5 1.8 2.5 3.6-.2 1.7-1.6 3-3.6 3zm4.6-18.9c-1.7 2.3-3.7 1.2-5.8.1-17.1-10.2-43.1-13.3-63.4-7.4-1.9.5-4.7.4-5.3-1.9-.6-2.4 1.4-3.6 3.4-4.2 22.7-6.5 51.7-3.2 71.4 8.5 1.8 1.1 3.5 2.2 3.5 4.7-.2.1-.4.1-.8.2zm6.5-20.8c-1.9 2.8-5 1.4-7.3.2-18.4-11-53.9-15.2-76.7-8.5-2.1.6-5 .5-5.7-1.9-.7-2.6 1.5-4 3.6-4.7 25-7.4 63-3 83.6 9.4 1.8 1.1 3.7 2.3 3.7 4.9 0 .3-.9.6-1.2.6z"/></svg>
